<?xml version="1.0" encoding="UTF-8" standalone="no"?>
<!DOCTYPE svg PUBLIC "-//W3C//DTD SVG 1.1//EN"
 "http://www.w3.org/Graphics/SVG/1.1/DTD/svg11.dtd">
<!-- Generated by graphviz version 2.43.0 (0)
 -->
<!-- Title: %3 Pages: 1 -->
<svg width="248pt" height="344pt"
 viewBox="0.00 0.00 248.20 344.22" xmlns="http://www.w3.org/2000/svg" xmlns:xlink="http://www.w3.org/1999/xlink">
<g id="graph0" class="graph" transform="scale(1 1) rotate(0) translate(4 340.22)">
<title>%3</title>
<polygon fill="white" stroke="transparent" points="-4,4 -4,-340.22 244.2,-340.22 244.2,4 -4,4"/>
<!-- e1 -->
<g id="node1" class="node">
<title>e1</title>
<ellipse fill="none" stroke="black" cx="92.2" cy="-318.22" rx="48.19" ry="18"/>
<text text-anchor="middle" x="92.2" y="-314.52" font-family="Times,serif" font-size="14.00">diff&#45;tree</text>
</g>
<!-- e2 -->
<g id="node2" class="node">
<title>e2</title>
<ellipse fill="none" stroke="black" cx="92.2" cy="-236.35" rx="82.96" ry="26.74"/>
<text text-anchor="middle" x="92.2" y="-240.15" font-family="Times,serif" font-size="14.00">Object DB</text>
<text text-anchor="middle" x="92.2" y="-225.15" font-family="Times,serif" font-size="14.00">Backing Store</text>
</g>
<!-- e1&#45;&gt;e2 -->
<g id="edge1" class="edge">
<title>e1&#45;&gt;e2</title>
<path fill="none" stroke="black" d="M92.2,-299.89C92.2,-292.16 92.2,-282.74 92.2,-273.58"/>
<polygon fill="black" stroke="black" points="95.7,-273.45 92.2,-263.45 88.7,-273.45 95.7,-273.45"/>
</g>
<!-- e3 -->
<g id="node3" class="node">
<title>e3</title>
<ellipse fill="none" stroke="black" cx="50.2" cy="-131.61" rx="50.41" ry="26.74"/>
<text text-anchor="middle" x="50.2" y="-135.41" font-family="Times,serif" font-size="14.00">Index</text>
<text text-anchor="middle" x="50.2" y="-120.41" font-family="Times,serif" font-size="14.00">&quot;cache&quot;</text>
</g>
<!-- e2&#45;&gt;e3 -->
<g id="edge2" class="edge">
<title>e2&#45;&gt;e3</title>
<path fill="none" stroke="black" d="M43.49,-214.56C34.56,-208.46 26.43,-200.85 21.2,-191.48 16.38,-182.82 18.18,-173.25 22.66,-164.39"/>
<polygon fill="black" stroke="black" points="25.67,-166.17 27.9,-155.82 19.7,-162.53 25.67,-166.17"/>
<text text-anchor="middle" x="86.2" y="-180.28" font-family="Times,serif" font-size="14.00">diff&#45;index &#45;&#45;cached</text>
</g>
<!-- e4 -->
<g id="node4" class="node">
<title>e4</title>
<ellipse fill="none" stroke="black" cx="107.2" cy="-26.87" rx="59.29" ry="26.74"/>
<text text-anchor="middle" x="107.2" y="-30.67" font-family="Times,serif" font-size="14.00">Working</text>
<text text-anchor="middle" x="107.2" y="-15.67" font-family="Times,serif" font-size="14.00">Directory</text>
</g>
<!-- e2&#45;&gt;e4 -->
<g id="edge4" class="edge">
<title>e2&#45;&gt;e4</title>
<path fill="none" stroke="black" d="M133.13,-212.91C140.42,-206.95 147.02,-199.81 151.2,-191.48 162.31,-169.38 209.81,-237.68 143.2,-71.74 141.59,-67.73 139.48,-63.8 137.08,-60.05"/>
<polygon fill="black" stroke="black" points="139.73,-57.75 131.06,-51.66 134.04,-61.83 139.73,-57.75"/>
<text text-anchor="middle" x="206.7" y="-127.91" font-family="Times,serif" font-size="14.00">diff&#45;index</text>
</g>
<!-- e3&#45;&gt;e4 -->
<g id="edge3" class="edge">
<title>e3&#45;&gt;e4</title>
<path fill="none" stroke="black" d="M64,-105.74C71.25,-92.68 80.23,-76.48 88.13,-62.25"/>
<polygon fill="black" stroke="black" points="91.35,-63.67 93.14,-53.23 85.23,-60.27 91.35,-63.67"/>
<text text-anchor="middle" x="110.2" y="-75.54" font-family="Times,serif" font-size="14.00">diff&#45;files</text>
</g>
</g>
</svg>
