<?xml version="1.0" encoding="UTF-8" standalone="no"?><svg xmlns="http://www.w3.org/2000/svg" xmlns:xlink="http://www.w3.org/1999/xlink" contentScriptType="application/ecmascript" contentStyleType="text/css" height="546px" preserveAspectRatio="none" style="width:340px;height:546px;" version="1.1" viewBox="0 0 340 546" width="340px" zoomAndPan="magnify"><defs><filter height="300%" id="f12rw6cf1rbsva" width="300%" x="-1" y="-1"><feGaussianBlur result="blurOut" stdDeviation="2.0"/><feColorMatrix in="blurOut" result="blurOut2" type="matrix" values="0 0 0 0 0 0 0 0 0 0 0 0 0 0 0 0 0 0 .4 0"/><feOffset dx="4.0" dy="4.0" in="blurOut2" result="blurOut3"/><feBlend in="SourceGraphic" in2="blurOut3" mode="normal"/></filter></defs><g><text fill="#000000" font-family="sans-serif" font-size="18" lengthAdjust="spacingAndGlyphs" textLength="92" x="123" y="26.708">scudo/free</text><rect fill="#FEFECE" filter="url(#f12rw6cf1rbsva)" height="33.9688" rx="12.5" ry="12.5" style="stroke: #A80036; stroke-width: 1.5;" width="146" x="84" y="30.9531"/><text fill="#000000" font-family="sans-serif" font-size="12" lengthAdjust="spacingAndGlyphs" textLength="126" x="94" y="52.0918">wrappers_c.inc::free</text><rect fill="#FEFECE" filter="url(#f12rw6cf1rbsva)" height="33.9688" rx="12.5" ry="12.5" style="stroke: #A80036; stroke-width: 1.5;" width="167" x="73.5" y="84.9219"/><text fill="#000000" font-family="sans-serif" font-size="12" lengthAdjust="spacingAndGlyphs" textLength="147" x="83.5" y="106.0605">combined.h::deallocate</text><rect fill="#FEFECE" filter="url(#f12rw6cf1rbsva)" height="33.9688" rx="12.5" ry="12.5" style="stroke: #A80036; stroke-width: 1.5;" width="290" x="12" y="138.8906"/><text fill="#000000" font-family="sans-serif" font-size="12" lengthAdjust="spacingAndGlyphs" textLength="270" x="22" y="160.0293">combined.h::quarantineOrDeallocateChunk</text><rect fill="#FEFECE" filter="url(#f12rw6cf1rbsva)" height="33.9688" rx="12.5" ry="12.5" style="stroke: #A80036; stroke-width: 1.5;" width="179" x="67.5" y="192.8594"/><text fill="#000000" font-family="sans-serif" font-size="12" lengthAdjust="spacingAndGlyphs" textLength="159" x="77.5" y="213.998">local_cache.h::deallocate</text><rect fill="#FEFECE" filter="url(#f12rw6cf1rbsva)" height="33.9688" rx="12.5" ry="12.5" style="stroke: #A80036; stroke-width: 1.5;" width="145" x="84.5" y="295.2305"/><text fill="#000000" font-family="sans-serif" font-size="12" lengthAdjust="spacingAndGlyphs" textLength="125" x="94.5" y="316.3691">local_cache.h::drain</text><rect fill="#FEFECE" filter="url(#f12rw6cf1rbsva)" height="33.9688" rx="12.5" ry="12.5" style="stroke: #A80036; stroke-width: 1.5;" width="169" x="72.5" y="349.1992"/><text fill="#000000" font-family="sans-serif" font-size="12" lengthAdjust="spacingAndGlyphs" textLength="149" x="82.5" y="370.3379">primary32.h::pushBatch</text><rect fill="#FEFECE" filter="url(#f12rw6cf1rbsva)" height="33.9688" rx="12.5" ry="12.5" style="stroke: #A80036; stroke-width: 1.5;" width="294" x="10" y="403.168"/><text fill="#000000" font-family="sans-serif" font-size="12" lengthAdjust="spacingAndGlyphs" textLength="274" x="20" y="424.3066">Sci-&gt;Stats.PushedBlocks += B-&gt;getCount()</text><polygon fill="#FEFECE" filter="url(#f12rw6cf1rbsva)" points="130,246.8281,184,246.8281,196,258.8281,184,270.8281,130,270.8281,118,258.8281,130,246.8281" style="stroke: #A80036; stroke-width: 1.5;"/><text fill="#000000" font-family="sans-serif" font-size="11" lengthAdjust="spacingAndGlyphs" textLength="20" x="161" y="281.0386">yes</text><text fill="#000000" font-family="sans-serif" font-size="11" lengthAdjust="spacingAndGlyphs" textLength="54" x="130" y="262.6362">cache full</text><text fill="#000000" font-family="sans-serif" font-size="11" lengthAdjust="spacingAndGlyphs" textLength="14" x="196" y="256.2339">no</text><polygon fill="#FEFECE" filter="url(#f12rw6cf1rbsva)" points="157,457.1367,169,469.1367,157,481.1367,145,469.1367,157,457.1367" style="stroke: #A80036; stroke-width: 1.5;"/><rect fill="#FEFECE" filter="url(#f12rw6cf1rbsva)" height="33.9688" rx="12.5" ry="12.5" style="stroke: #A80036; stroke-width: 1.5;" width="59" x="127.5" y="501.1367"/><text fill="#000000" font-family="sans-serif" font-size="12" lengthAdjust="spacingAndGlyphs" textLength="39" x="137.5" y="522.2754">return</text><line style="stroke: #A80036; stroke-width: 1.5;" x1="157" x2="157" y1="64.9219" y2="84.9219"/><polygon fill="#A80036" points="153,74.9219,157,84.9219,161,74.9219,157,78.9219" style="stroke: #A80036; stroke-width: 1.0;"/><line style="stroke: #A80036; stroke-width: 1.5;" x1="157" x2="157" y1="118.8906" y2="138.8906"/><polygon fill="#A80036" points="153,128.8906,157,138.8906,161,128.8906,157,132.8906" style="stroke: #A80036; stroke-width: 1.0;"/><line style="stroke: #A80036; stroke-width: 1.5;" x1="157" x2="157" y1="172.8594" y2="192.8594"/><polygon fill="#A80036" points="153,182.8594,157,192.8594,161,182.8594,157,186.8594" style="stroke: #A80036; stroke-width: 1.0;"/><line style="stroke: #A80036; stroke-width: 1.5;" x1="157" x2="157" y1="329.1992" y2="349.1992"/><polygon fill="#A80036" points="153,339.1992,157,349.1992,161,339.1992,157,343.1992" style="stroke: #A80036; stroke-width: 1.0;"/><line style="stroke: #A80036; stroke-width: 1.5;" x1="157" x2="157" y1="383.168" y2="403.168"/><polygon fill="#A80036" points="153,393.168,157,403.168,161,393.168,157,397.168" style="stroke: #A80036; stroke-width: 1.0;"/><line style="stroke: #A80036; stroke-width: 1.5;" x1="157" x2="157" y1="270.8281" y2="295.2305"/><polygon fill="#A80036" points="153,285.2305,157,295.2305,161,285.2305,157,289.2305" style="stroke: #A80036; stroke-width: 1.0;"/><line style="stroke: #A80036; stroke-width: 1.5;" x1="196" x2="314" y1="258.8281" y2="258.8281"/><polygon fill="#A80036" points="310,356.1836,314,366.1836,318,356.1836,314,360.1836" style="stroke: #A80036; stroke-width: 1.5;"/><line style="stroke: #A80036; stroke-width: 1.5;" x1="314" x2="314" y1="258.8281" y2="469.1367"/><line style="stroke: #A80036; stroke-width: 1.5;" x1="314" x2="169" y1="469.1367" y2="469.1367"/><polygon fill="#A80036" points="179,465.1367,169,469.1367,179,473.1367,175,469.1367" style="stroke: #A80036; stroke-width: 1.0;"/><line style="stroke: #A80036; stroke-width: 1.5;" x1="157" x2="157" y1="437.1367" y2="457.1367"/><polygon fill="#A80036" points="153,447.1367,157,457.1367,161,447.1367,157,451.1367" style="stroke: #A80036; stroke-width: 1.0;"/><line style="stroke: #A80036; stroke-width: 1.5;" x1="157" x2="157" y1="226.8281" y2="246.8281"/><polygon fill="#A80036" points="153,236.8281,157,246.8281,161,236.8281,157,240.8281" style="stroke: #A80036; stroke-width: 1.0;"/><line style="stroke: #A80036; stroke-width: 1.5;" x1="157" x2="157" y1="481.1367" y2="501.1367"/><polygon fill="#A80036" points="153,491.1367,157,501.1367,161,491.1367,157,495.1367" style="stroke: #A80036; stroke-width: 1.0;"/><!--MD5=[700b842cc79dfa2f8ca17c3d19331ac6]
@startuml

title scudo/free

:wrappers_c.inc::free;
:combined.h::deallocate;
:combined.h::quarantineOrDeallocateChunk;
:local_cache.h::deallocate;

if (cache full) then (yes)
    :local_cache.h::drain;
    :primary32.h::pushBatch;
    :Sci->Stats.PushedBlocks += B->getCount();
else (no)
endif
:return;

@enduml

PlantUML version 1.2020.02(Sun Mar 01 10:22:07 UTC 2020)
(GPL source distribution)
Java Runtime: OpenJDK Runtime Environment
JVM: OpenJDK 64-Bit Server VM
Java Version: 11.0.21+9-post-Ubuntu-0ubuntu122.04
Operating System: Linux
Default Encoding: UTF-8
Language: en
Country: US
--></g></svg>