<?xml version="1.0" encoding="us-ascii" standalone="no"?><svg xmlns="http://www.w3.org/2000/svg" xmlns:xlink="http://www.w3.org/1999/xlink" contentStyleType="text/css" height="332px" preserveAspectRatio="none" style="width:834px;height:332px;background:#FFFFFF;" version="1.1" viewBox="0 0 834 332" width="834px" zoomAndPan="magnify"><defs/><g><text fill="#000000" font-family="sans-serif" font-size="14" font-weight="bold" lengthAdjust="spacing" textLength="43.3125" x="394.3438" y="27.9951">&#31526;&#21495;&#34920;</text><line style="stroke:#181818;stroke-width:0.5;stroke-dasharray:5.0,5.0;" x1="33" x2="33" y1="73.5938" y2="297.5234"/><line style="stroke:#181818;stroke-width:0.5;stroke-dasharray:5.0,5.0;" x1="122" x2="122" y1="73.5938" y2="297.5234"/><line style="stroke:#181818;stroke-width:0.5;stroke-dasharray:5.0,5.0;" x1="198" x2="198" y1="73.5938" y2="297.5234"/><line style="stroke:#181818;stroke-width:0.5;stroke-dasharray:5.0,5.0;" x1="274" x2="274" y1="73.5938" y2="297.5234"/><line style="stroke:#181818;stroke-width:0.5;stroke-dasharray:5.0,5.0;" x1="389" x2="389" y1="73.5938" y2="297.5234"/><line style="stroke:#181818;stroke-width:0.5;stroke-dasharray:5.0,5.0;" x1="530" x2="530" y1="73.5938" y2="297.5234"/><line style="stroke:#181818;stroke-width:0.5;stroke-dasharray:5.0,5.0;" x1="638" x2="638" y1="73.5938" y2="297.5234"/><line style="stroke:#181818;stroke-width:0.5;stroke-dasharray:5.0,5.0;" x1="779" x2="779" y1="73.5938" y2="297.5234"/><rect fill="#E3E3E3" height="30.2969" rx="2.5" ry="2.5" style="stroke:#181818;stroke-width:0.5;" width="56" x="5" y="42.2969"/><text fill="#000000" font-family="sans-serif" font-size="14" lengthAdjust="spacing" textLength="42" x="12" y="62.292">&#23383;&#31526;&#27969;</text><rect fill="#E3E3E3" height="30.2969" rx="2.5" ry="2.5" style="stroke:#181818;stroke-width:0.5;" width="56" x="5" y="296.5234"/><text fill="#000000" font-family="sans-serif" font-size="14" lengthAdjust="spacing" textLength="42" x="12" y="316.5186">&#23383;&#31526;&#27969;</text><rect fill="#E3E3E3" height="30.2969" rx="2.5" ry="2.5" style="stroke:#181818;stroke-width:0.5;" width="56" x="94" y="42.2969"/><text fill="#000000" font-family="sans-serif" font-size="14" lengthAdjust="spacing" textLength="42" x="101" y="62.292">&#31526;&#21495;&#27969;</text><rect fill="#E3E3E3" height="30.2969" rx="2.5" ry="2.5" style="stroke:#181818;stroke-width:0.5;" width="56" x="94" y="296.5234"/><text fill="#000000" font-family="sans-serif" font-size="14" lengthAdjust="spacing" textLength="42" x="101" y="316.5186">&#31526;&#21495;&#27969;</text><rect fill="#E3E3E3" height="30.2969" rx="2.5" ry="2.5" style="stroke:#181818;stroke-width:0.5;" width="56" x="170" y="42.2969"/><text fill="#000000" font-family="sans-serif" font-size="14" lengthAdjust="spacing" textLength="42" x="177" y="62.292">&#35821;&#27861;&#26641;</text><rect fill="#E3E3E3" height="30.2969" rx="2.5" ry="2.5" style="stroke:#181818;stroke-width:0.5;" width="56" x="170" y="296.5234"/><text fill="#000000" font-family="sans-serif" font-size="14" lengthAdjust="spacing" textLength="42" x="177" y="316.5186">&#35821;&#27861;&#26641;</text><rect fill="#E3E3E3" height="30.2969" rx="2.5" ry="2.5" style="stroke:#181818;stroke-width:0.5;" width="56" x="246" y="42.2969"/><text fill="#000000" font-family="sans-serif" font-size="14" lengthAdjust="spacing" textLength="42" x="253" y="62.292">&#35821;&#27861;&#26641;</text><rect fill="#E3E3E3" height="30.2969" rx="2.5" ry="2.5" style="stroke:#181818;stroke-width:0.5;" width="56" x="246" y="296.5234"/><text fill="#000000" font-family="sans-serif" font-size="14" lengthAdjust="spacing" textLength="42" x="253" y="316.5186">&#35821;&#27861;&#26641;</text><rect fill="#E3E3E3" height="30.2969" rx="2.5" ry="2.5" style="stroke:#181818;stroke-width:0.5;" width="98" x="340" y="42.2969"/><text fill="#000000" font-family="sans-serif" font-size="14" lengthAdjust="spacing" textLength="84" x="347" y="62.292">&#20013;&#38388;&#34920;&#31034;&#24418;&#24335;</text><rect fill="#E3E3E3" height="30.2969" rx="2.5" ry="2.5" style="stroke:#181818;stroke-width:0.5;" width="98" x="340" y="296.5234"/><text fill="#000000" font-family="sans-serif" font-size="14" lengthAdjust="spacing" textLength="84" x="347" y="316.5186">&#20013;&#38388;&#34920;&#31034;&#24418;&#24335;</text><rect fill="#E3E3E3" height="30.2969" rx="2.5" ry="2.5" style="stroke:#181818;stroke-width:0.5;" width="98" x="481" y="42.2969"/><text fill="#000000" font-family="sans-serif" font-size="14" lengthAdjust="spacing" textLength="84" x="488" y="62.292">&#20013;&#38388;&#34920;&#31034;&#24418;&#24335;</text><rect fill="#E3E3E3" height="30.2969" rx="2.5" ry="2.5" style="stroke:#181818;stroke-width:0.5;" width="98" x="481" y="296.5234"/><text fill="#000000" font-family="sans-serif" font-size="14" lengthAdjust="spacing" textLength="84" x="488" y="316.5186">&#20013;&#38388;&#34920;&#31034;&#24418;&#24335;</text><rect fill="#E3E3E3" height="30.2969" rx="2.5" ry="2.5" style="stroke:#181818;stroke-width:0.5;" width="98" x="589" y="42.2969"/><text fill="#000000" font-family="sans-serif" font-size="14" lengthAdjust="spacing" textLength="84" x="596" y="62.292">&#30446;&#26631;&#26426;&#22120;&#35821;&#35328;</text><rect fill="#E3E3E3" height="30.2969" rx="2.5" ry="2.5" style="stroke:#181818;stroke-width:0.5;" width="98" x="589" y="296.5234"/><text fill="#000000" font-family="sans-serif" font-size="14" lengthAdjust="spacing" textLength="84" x="596" y="316.5186">&#30446;&#26631;&#26426;&#22120;&#35821;&#35328;</text><rect fill="#E3E3E3" height="30.2969" rx="2.5" ry="2.5" style="stroke:#181818;stroke-width:0.5;" width="98" x="730" y="42.2969"/><text fill="#000000" font-family="sans-serif" font-size="14" lengthAdjust="spacing" textLength="84" x="737" y="62.292">&#30446;&#26631;&#26426;&#22120;&#35821;&#35328;</text><rect fill="#E3E3E3" height="30.2969" rx="2.5" ry="2.5" style="stroke:#181818;stroke-width:0.5;" width="98" x="730" y="296.5234"/><text fill="#000000" font-family="sans-serif" font-size="14" lengthAdjust="spacing" textLength="84" x="737" y="316.5186">&#30446;&#26631;&#26426;&#22120;&#35821;&#35328;</text><polygon fill="#181818" points="110,100.7266,120,104.7266,110,108.7266,114,104.7266" style="stroke:#181818;stroke-width:1.0;"/><line style="stroke:#181818;stroke-width:1.0;" x1="33" x2="116" y1="104.7266" y2="104.7266"/><text fill="#000000" font-family="sans-serif" font-size="13" lengthAdjust="spacing" textLength="65" x="40" y="99.6606">&#35821;&#27861;&#20998;&#26512;&#22120;</text><polygon fill="#181818" points="186,129.8594,196,133.8594,186,137.8594,190,133.8594" style="stroke:#181818;stroke-width:1.0;"/><line style="stroke:#181818;stroke-width:1.0;" x1="122" x2="192" y1="133.8594" y2="133.8594"/><text fill="#000000" font-family="sans-serif" font-size="13" lengthAdjust="spacing" textLength="52" x="129" y="128.7935">&#35821;&#27861;&#20998;&#26512;</text><polygon fill="#181818" points="262,158.9922,272,162.9922,262,166.9922,266,162.9922" style="stroke:#181818;stroke-width:1.0;"/><line style="stroke:#181818;stroke-width:1.0;" x1="198" x2="268" y1="162.9922" y2="162.9922"/><text fill="#000000" font-family="sans-serif" font-size="13" lengthAdjust="spacing" textLength="52" x="205" y="157.9263">&#35821;&#20041;&#20998;&#26512;</text><polygon fill="#181818" points="377,188.125,387,192.125,377,196.125,381,192.125" style="stroke:#181818;stroke-width:1.0;"/><line style="stroke:#181818;stroke-width:1.0;" x1="274" x2="383" y1="192.125" y2="192.125"/><text fill="#000000" font-family="sans-serif" font-size="13" lengthAdjust="spacing" textLength="91" x="281" y="187.0591">&#20013;&#38388;&#20195;&#30721;&#29983;&#25104;&#22120;</text><polygon fill="#181818" points="518,217.2578,528,221.2578,518,225.2578,522,221.2578" style="stroke:#181818;stroke-width:1.0;"/><line style="stroke:#181818;stroke-width:1.0;" x1="389" x2="524" y1="221.2578" y2="221.2578"/><text fill="#000000" font-family="sans-serif" font-size="13" lengthAdjust="spacing" textLength="117" x="396" y="216.1919">&#26426;&#22120;&#26080;&#20851;&#20195;&#30721;&#20248;&#21270;&#22120;</text><polygon fill="#181818" points="626,246.3906,636,250.3906,626,254.3906,630,250.3906" style="stroke:#181818;stroke-width:1.0;"/><line style="stroke:#181818;stroke-width:1.0;" x1="530" x2="632" y1="250.3906" y2="250.3906"/><text fill="#000000" font-family="sans-serif" font-size="13" lengthAdjust="spacing" textLength="65" x="537" y="245.3247">&#20195;&#30721;&#29983;&#25104;&#22120;</text><polygon fill="#181818" points="767,275.5234,777,279.5234,767,283.5234,771,279.5234" style="stroke:#181818;stroke-width:1.0;"/><line style="stroke:#181818;stroke-width:1.0;" x1="638" x2="773" y1="279.5234" y2="279.5234"/><text fill="#000000" font-family="sans-serif" font-size="13" lengthAdjust="spacing" textLength="117" x="645" y="274.4575">&#26426;&#22120;&#30456;&#20851;&#20195;&#30721;&#20248;&#21270;&#22120;</text><!--SRC=[ZOxBJi9058RtynGdx7c1BapebTTeI1CRQKlAk9U5Yea9a23LOBHUOhgmka0Y8hvDPwQ-XNEHHI4XRF_l-y_vkqT-s75ZDu0W2gFMOHm57k3us4FOnsqFsEiB6NoM3ndY5lPRViSDCTH8dd12vxqQk5reLA7ghA5UXULxJcTND1r9QEo2PXKMY_mt-U1JsFEI_3oIrK1QrbwMlJ5n-aRJStgx93SPVrfc9z9ozhAQg07r0z0rK7j9_upU3Rc3T94RrHmP8ZHbM7nT_8Uc22qDrDpY-ucbFJQ-ftrvnnBKra2zfabAJcVAALRNv78Y75iu3h-mqNL4tbntsNIntVq3]--></g></svg>