<?xml version="1.0" encoding="UTF-8" standalone="no"?>
<!DOCTYPE svg PUBLIC "-//W3C//DTD SVG 1.1//EN"
 "http://www.w3.org/Graphics/SVG/1.1/DTD/svg11.dtd">
<!-- Generated by graphviz version 2.43.0 (0)
 -->
<!-- Title: %3 Pages: 1 -->
<svg width="321pt" height="387pt"
 viewBox="0.00 0.00 321.00 387.00" xmlns="http://www.w3.org/2000/svg" xmlns:xlink="http://www.w3.org/1999/xlink">
<g id="graph0" class="graph" transform="scale(1 1) rotate(0) translate(4 383)">
<title>%3</title>
<polygon fill="white" stroke="transparent" points="-4,4 -4,-383 317,-383 317,4 -4,4"/>
<g id="clust1" class="cluster">
<title>cluster1</title>
<polygon fill="none" stroke="black" points="8,-8 8,-371 305,-371 305,-8 8,-8"/>
<text text-anchor="middle" x="156.5" y="-355.8" font-family="Times,serif" font-size="14.00">Grammer Tree</text>
</g>
<!-- e1 -->
<g id="node1" class="node">
<title>e1</title>
<ellipse fill="none" stroke="black" cx="104" cy="-322" rx="27" ry="18"/>
<text text-anchor="middle" x="104" y="-318.3" font-family="Times,serif" font-size="14.00">=</text>
</g>
<!-- e2 -->
<g id="node2" class="node">
<title>e2</title>
<ellipse fill="none" stroke="black" cx="60" cy="-250" rx="44.39" ry="18"/>
<text text-anchor="middle" x="60" y="-246.3" font-family="Times,serif" font-size="14.00">&lt;id,1&gt;</text>
</g>
<!-- e1&#45;&gt;e2 -->
<g id="edge1" class="edge">
<title>e1&#45;&gt;e2</title>
<path fill="none" stroke="black" d="M94.02,-305.12C88.71,-296.68 82.07,-286.1 76.06,-276.55"/>
<polygon fill="black" stroke="black" points="78.84,-274.4 70.56,-267.8 72.92,-278.13 78.84,-274.4"/>
</g>
<!-- e3 -->
<g id="node3" class="node">
<title>e3</title>
<ellipse fill="none" stroke="black" cx="149" cy="-250" rx="27" ry="18"/>
<text text-anchor="middle" x="149" y="-246.3" font-family="Times,serif" font-size="14.00">+</text>
</g>
<!-- e1&#45;&gt;e3 -->
<g id="edge2" class="edge">
<title>e1&#45;&gt;e3</title>
<path fill="none" stroke="black" d="M114.21,-305.12C119.85,-296.34 126.97,-285.26 133.3,-275.42"/>
<polygon fill="black" stroke="black" points="136.37,-277.13 138.83,-266.82 130.48,-273.34 136.37,-277.13"/>
</g>
<!-- null -->
<!-- e2&#45;&gt;null -->
<!-- e4 -->
<g id="node4" class="node">
<title>e4</title>
<ellipse fill="none" stroke="black" cx="108" cy="-178" rx="44.39" ry="18"/>
<text text-anchor="middle" x="108" y="-174.3" font-family="Times,serif" font-size="14.00">&lt;id,2&gt;</text>
</g>
<!-- e3&#45;&gt;e4 -->
<g id="edge4" class="edge">
<title>e3&#45;&gt;e4</title>
<path fill="none" stroke="black" d="M139.49,-232.76C134.54,-224.32 128.38,-213.8 122.83,-204.31"/>
<polygon fill="black" stroke="black" points="125.82,-202.49 117.74,-195.63 119.78,-206.03 125.82,-202.49"/>
</g>
<!-- e5 -->
<g id="node5" class="node">
<title>e5</title>
<ellipse fill="none" stroke="black" cx="197" cy="-178" rx="27" ry="18"/>
<text text-anchor="middle" x="197" y="-174.3" font-family="Times,serif" font-size="14.00">*</text>
</g>
<!-- e3&#45;&gt;e5 -->
<g id="edge5" class="edge">
<title>e3&#45;&gt;e5</title>
<path fill="none" stroke="black" d="M159.89,-233.12C165.97,-224.26 173.66,-213.04 180.46,-203.12"/>
<polygon fill="black" stroke="black" points="183.38,-205.05 186.15,-194.82 177.61,-201.09 183.38,-205.05"/>
</g>
<!-- e4&#45;&gt;null -->
<!-- e6 -->
<g id="node7" class="node">
<title>e6</title>
<ellipse fill="none" stroke="black" cx="136" cy="-106" rx="44.39" ry="18"/>
<text text-anchor="middle" x="136" y="-102.3" font-family="Times,serif" font-size="14.00">&lt;id,3&gt;</text>
</g>
<!-- e5&#45;&gt;e6 -->
<g id="edge7" class="edge">
<title>e5&#45;&gt;e6</title>
<path fill="none" stroke="black" d="M184.06,-162.15C176.15,-153.07 165.84,-141.24 156.8,-130.87"/>
<polygon fill="black" stroke="black" points="159.4,-128.53 150.2,-123.29 154.13,-133.13 159.4,-128.53"/>
</g>
<!-- e7 -->
<g id="node8" class="node">
<title>e7</title>
<ellipse fill="none" stroke="black" cx="248" cy="-106" rx="49.29" ry="18"/>
<text text-anchor="middle" x="248" y="-102.3" font-family="Times,serif" font-size="14.00">intofloat</text>
</g>
<!-- e5&#45;&gt;e7 -->
<g id="edge8" class="edge">
<title>e5&#45;&gt;e7</title>
<path fill="none" stroke="black" d="M208.32,-161.46C214.67,-152.74 222.75,-141.65 229.96,-131.76"/>
<polygon fill="black" stroke="black" points="232.94,-133.61 236,-123.47 227.29,-129.49 232.94,-133.61"/>
</g>
<!-- e8 -->
<g id="node9" class="node">
<title>e8</title>
<ellipse fill="none" stroke="black" cx="248" cy="-34" rx="27" ry="18"/>
<text text-anchor="middle" x="248" y="-30.3" font-family="Times,serif" font-size="14.00">60</text>
</g>
<!-- e7&#45;&gt;e8 -->
<g id="edge9" class="edge">
<title>e7&#45;&gt;e8</title>
<path fill="none" stroke="black" d="M248,-87.7C248,-79.98 248,-70.71 248,-62.11"/>
<polygon fill="black" stroke="black" points="251.5,-62.1 248,-52.1 244.5,-62.1 251.5,-62.1"/>
</g>
</g>
</svg>
