<?xml version="1.0" encoding="UTF-8" standalone="no"?>
<!DOCTYPE svg PUBLIC "-//W3C//DTD SVG 1.1//EN"
 "http://www.w3.org/Graphics/SVG/1.1/DTD/svg11.dtd">
<!-- Generated by graphviz version 2.43.0 (0)
 -->
<!-- Title: %3 Pages: 1 -->
<svg width="276pt" height="315pt"
 viewBox="0.00 0.00 276.00 315.00" xmlns="http://www.w3.org/2000/svg" xmlns:xlink="http://www.w3.org/1999/xlink">
<g id="graph0" class="graph" transform="scale(1 1) rotate(0) translate(4 311)">
<title>%3</title>
<polygon fill="white" stroke="transparent" points="-4,4 -4,-311 272,-311 272,4 -4,4"/>
<g id="clust1" class="cluster">
<title>cluster1</title>
<polygon fill="none" stroke="black" points="8,-8 8,-299 260,-299 260,-8 8,-8"/>
<text text-anchor="middle" x="134" y="-283.8" font-family="Times,serif" font-size="14.00">Grammer Tree</text>
</g>
<!-- e1 -->
<g id="node1" class="node">
<title>e1</title>
<ellipse fill="none" stroke="black" cx="104" cy="-250" rx="27" ry="18"/>
<text text-anchor="middle" x="104" y="-246.3" font-family="Times,serif" font-size="14.00">=</text>
</g>
<!-- e2 -->
<g id="node2" class="node">
<title>e2</title>
<ellipse fill="none" stroke="black" cx="60" cy="-178" rx="44.39" ry="18"/>
<text text-anchor="middle" x="60" y="-174.3" font-family="Times,serif" font-size="14.00">&lt;id,1&gt;</text>
</g>
<!-- e1&#45;&gt;e2 -->
<g id="edge1" class="edge">
<title>e1&#45;&gt;e2</title>
<path fill="none" stroke="black" d="M94.02,-233.12C88.71,-224.68 82.07,-214.1 76.06,-204.55"/>
<polygon fill="black" stroke="black" points="78.84,-202.4 70.56,-195.8 72.92,-206.13 78.84,-202.4"/>
</g>
<!-- e3 -->
<g id="node3" class="node">
<title>e3</title>
<ellipse fill="none" stroke="black" cx="149" cy="-178" rx="27" ry="18"/>
<text text-anchor="middle" x="149" y="-174.3" font-family="Times,serif" font-size="14.00">+</text>
</g>
<!-- e1&#45;&gt;e3 -->
<g id="edge2" class="edge">
<title>e1&#45;&gt;e3</title>
<path fill="none" stroke="black" d="M114.21,-233.12C119.85,-224.34 126.97,-213.26 133.3,-203.42"/>
<polygon fill="black" stroke="black" points="136.37,-205.13 138.83,-194.82 130.48,-201.34 136.37,-205.13"/>
</g>
<!-- null -->
<!-- e2&#45;&gt;null -->
<!-- e4 -->
<g id="node4" class="node">
<title>e4</title>
<ellipse fill="none" stroke="black" cx="108" cy="-106" rx="44.39" ry="18"/>
<text text-anchor="middle" x="108" y="-102.3" font-family="Times,serif" font-size="14.00">&lt;id,2&gt;</text>
</g>
<!-- e3&#45;&gt;e4 -->
<g id="edge4" class="edge">
<title>e3&#45;&gt;e4</title>
<path fill="none" stroke="black" d="M139.49,-160.76C134.54,-152.32 128.38,-141.8 122.83,-132.31"/>
<polygon fill="black" stroke="black" points="125.82,-130.49 117.74,-123.63 119.78,-134.03 125.82,-130.49"/>
</g>
<!-- e5 -->
<g id="node5" class="node">
<title>e5</title>
<ellipse fill="none" stroke="black" cx="197" cy="-106" rx="27" ry="18"/>
<text text-anchor="middle" x="197" y="-102.3" font-family="Times,serif" font-size="14.00">*</text>
</g>
<!-- e3&#45;&gt;e5 -->
<g id="edge5" class="edge">
<title>e3&#45;&gt;e5</title>
<path fill="none" stroke="black" d="M159.89,-161.12C165.97,-152.26 173.66,-141.04 180.46,-131.12"/>
<polygon fill="black" stroke="black" points="183.38,-133.05 186.15,-122.82 177.61,-129.09 183.38,-133.05"/>
</g>
<!-- e4&#45;&gt;null -->
<!-- e6 -->
<g id="node7" class="node">
<title>e6</title>
<ellipse fill="none" stroke="black" cx="136" cy="-34" rx="44.39" ry="18"/>
<text text-anchor="middle" x="136" y="-30.3" font-family="Times,serif" font-size="14.00">&lt;id,3&gt;</text>
</g>
<!-- e5&#45;&gt;e6 -->
<g id="edge7" class="edge">
<title>e5&#45;&gt;e6</title>
<path fill="none" stroke="black" d="M184.06,-90.15C176.15,-81.07 165.84,-69.24 156.8,-58.87"/>
<polygon fill="black" stroke="black" points="159.4,-56.53 150.2,-51.29 154.13,-61.13 159.4,-56.53"/>
</g>
<!-- e7 -->
<g id="node8" class="node">
<title>e7</title>
<ellipse fill="none" stroke="black" cx="225" cy="-34" rx="27" ry="18"/>
<text text-anchor="middle" x="225" y="-30.3" font-family="Times,serif" font-size="14.00">60</text>
</g>
<!-- e5&#45;&gt;e7 -->
<g id="edge8" class="edge">
<title>e5&#45;&gt;e7</title>
<path fill="none" stroke="black" d="M203.64,-88.41C206.91,-80.22 210.94,-70.14 214.62,-60.95"/>
<polygon fill="black" stroke="black" points="217.95,-62.05 218.41,-51.47 211.45,-59.45 217.95,-62.05"/>
</g>
</g>
</svg>
