<?xml version="1.0" encoding="UTF-8" standalone="no"?>
<!DOCTYPE svg PUBLIC "-//W3C//DTD SVG 1.1//EN"
 "http://www.w3.org/Graphics/SVG/1.1/DTD/svg11.dtd">
<!-- Generated by graphviz version 2.43.0 (0)
 -->
<!-- Title: %3 Pages: 1 -->
<svg width="342pt" height="99pt"
 viewBox="0.00 0.00 342.00 99.00" xmlns="http://www.w3.org/2000/svg" xmlns:xlink="http://www.w3.org/1999/xlink">
<g id="graph0" class="graph" transform="scale(1 1) rotate(0) translate(4 95)">
<title>%3</title>
<polygon fill="white" stroke="transparent" points="-4,4 -4,-95 338,-95 338,4 -4,4"/>
<g id="clust1" class="cluster">
<title>cluster1</title>
<polygon fill="none" stroke="black" points="8,-8 8,-83 326,-83 326,-8 8,-8"/>
<text text-anchor="middle" x="167" y="-67.8" font-family="Times,serif" font-size="14.00">从名字到值的两步映射</text>
</g>
<!-- e1 -->
<g id="node1" class="node">
<title>e1</title>
<ellipse fill="none" stroke="black" cx="45" cy="-34" rx="29.5" ry="18"/>
<text text-anchor="middle" x="45" y="-30.3" font-family="Times,serif" font-size="14.00">名字</text>
</g>
<!-- e2 -->
<g id="node2" class="node">
<title>e2</title>
<ellipse fill="none" stroke="black" cx="169" cy="-34" rx="48.19" ry="18"/>
<text text-anchor="middle" x="169" y="-30.3" font-family="Times,serif" font-size="14.00">内存位置</text>
</g>
<!-- e1&#45;&gt;e2 -->
<g id="edge1" class="edge">
<title>e1&#45;&gt;e2</title>
<path fill="none" stroke="black" d="M74.39,-34C85.13,-34 97.7,-34 110.1,-34"/>
<polygon fill="black" stroke="black" points="110.44,-37.5 120.44,-34 110.44,-30.5 110.44,-37.5"/>
<text text-anchor="middle" x="97.58" y="-40.8" font-family="Times,serif" font-size="14.00">环境</text>
</g>
<!-- e3 -->
<g id="node3" class="node">
<title>e3</title>
<ellipse fill="none" stroke="black" cx="291" cy="-34" rx="27" ry="18"/>
<text text-anchor="middle" x="291" y="-30.3" font-family="Times,serif" font-size="14.00">值</text>
</g>
<!-- e2&#45;&gt;e3 -->
<g id="edge2" class="edge">
<title>e2&#45;&gt;e3</title>
<path fill="none" stroke="black" d="M217.22,-34C229.35,-34 242.2,-34 253.71,-34"/>
<polygon fill="black" stroke="black" points="253.84,-37.5 263.84,-34 253.84,-30.5 253.84,-37.5"/>
<text text-anchor="middle" x="240.55" y="-40.8" font-family="Times,serif" font-size="14.00">状态</text>
</g>
</g>
</svg>
