<?xml version="1.0" encoding="UTF-8" standalone="no"?>
<!DOCTYPE svg PUBLIC "-//W3C//DTD SVG 1.1//EN"
 "http://www.w3.org/Graphics/SVG/1.1/DTD/svg11.dtd">
<!-- Generated by graphviz version 2.43.0 (0)
 -->
<!-- Title: %3 Pages: 1 -->
<svg width="898pt" height="116pt"
 viewBox="0.00 0.00 897.54 116.00" xmlns="http://www.w3.org/2000/svg" xmlns:xlink="http://www.w3.org/1999/xlink">
<g id="graph0" class="graph" transform="scale(1 1) rotate(0) translate(4 112)">
<title>%3</title>
<polygon fill="white" stroke="transparent" points="-4,4 -4,-112 893.54,-112 893.54,4 -4,4"/>
<!-- e1 -->
<g id="node1" class="node">
<title>e1</title>
<ellipse fill="none" stroke="black" cx="38.35" cy="-90" rx="38.19" ry="18"/>
<text text-anchor="middle" x="38.35" y="-86.3" font-family="Times,serif" font-size="14.00">源程序</text>
</g>
<!-- e2 -->
<g id="node2" class="node">
<title>e2</title>
<ellipse fill="none" stroke="black" cx="152.35" cy="-90" rx="57.39" ry="18"/>
<text text-anchor="middle" x="152.35" y="-86.3" font-family="Times,serif" font-size="14.00">词法分析器</text>
</g>
<!-- e1&#45;&gt;e2 -->
<g id="edge1" class="edge">
<title>e1&#45;&gt;e2</title>
<path fill="none" stroke="black" d="M77.09,-90C79.7,-90 82.32,-90 84.93,-90"/>
<polygon fill="black" stroke="black" points="85.02,-93.5 95.02,-90 85.02,-86.5 85.02,-93.5"/>
</g>
<!-- e3 -->
<g id="node3" class="node">
<title>e3</title>
<ellipse fill="none" stroke="black" cx="275.35" cy="-90" rx="48.19" ry="18"/>
<text text-anchor="middle" x="275.35" y="-86.3" font-family="Times,serif" font-size="14.00">词法单元</text>
</g>
<!-- e2&#45;&gt;e3 -->
<g id="edge2" class="edge">
<title>e2&#45;&gt;e3</title>
<path fill="none" stroke="black" d="M210,-90C212.32,-90 214.63,-90 216.95,-90"/>
<polygon fill="black" stroke="black" points="217.1,-93.5 227.1,-90 217.1,-86.5 217.1,-93.5"/>
</g>
<!-- e8 -->
<g id="node8" class="node">
<title>e8</title>
<ellipse fill="none" stroke="black" cx="398.35" cy="-18" rx="38.19" ry="18"/>
<text text-anchor="middle" x="398.35" y="-14.3" font-family="Times,serif" font-size="14.00">符号表</text>
</g>
<!-- e2&#45;&gt;e8 -->
<g id="edge7" class="edge">
<title>e2&#45;&gt;e8</title>
<path fill="none" stroke="black" d="M193.24,-77.36C238.46,-64.5 310.93,-43.88 356.51,-30.9"/>
<polygon fill="black" stroke="black" points="357.71,-34.2 366.37,-28.1 355.8,-27.47 357.71,-34.2"/>
</g>
<!-- e4 -->
<g id="node4" class="node">
<title>e4</title>
<ellipse fill="none" stroke="black" cx="398.35" cy="-90" rx="57.39" ry="18"/>
<text text-anchor="middle" x="398.35" y="-86.3" font-family="Times,serif" font-size="14.00">语法分析器</text>
</g>
<!-- e3&#45;&gt;e4 -->
<g id="edge3" class="edge">
<title>e3&#45;&gt;e4</title>
<path fill="none" stroke="black" d="M323.87,-90C326.2,-90 328.52,-90 330.85,-90"/>
<polygon fill="black" stroke="black" points="331.04,-93.5 341.04,-90 331.04,-86.5 331.04,-93.5"/>
</g>
<!-- e5 -->
<g id="node5" class="node">
<title>e5</title>
<ellipse fill="none" stroke="black" cx="530.35" cy="-90" rx="57.39" ry="18"/>
<text text-anchor="middle" x="530.35" y="-86.3" font-family="Times,serif" font-size="14.00">语法分析树</text>
</g>
<!-- e4&#45;&gt;e5 -->
<g id="edge4" class="edge">
<title>e4&#45;&gt;e5</title>
<path fill="none" stroke="black" d="M455.58,-90C458.05,-90 460.51,-90 462.97,-90"/>
<polygon fill="black" stroke="black" points="463.1,-93.5 473.1,-90 463.1,-86.5 463.1,-93.5"/>
</g>
<!-- e4&#45;&gt;e8 -->
<g id="edge8" class="edge">
<title>e4&#45;&gt;e8</title>
<path fill="none" stroke="black" d="M398.35,-71.7C398.35,-63.98 398.35,-54.71 398.35,-46.11"/>
<polygon fill="black" stroke="black" points="401.85,-46.1 398.35,-36.1 394.85,-46.1 401.85,-46.1"/>
</g>
<!-- e6 -->
<g id="node6" class="node">
<title>e6</title>
<ellipse fill="none" stroke="black" cx="681.35" cy="-90" rx="75.29" ry="18"/>
<text text-anchor="middle" x="681.35" y="-86.3" font-family="Times,serif" font-size="14.00">中间代码生成器</text>
</g>
<!-- e5&#45;&gt;e6 -->
<g id="edge5" class="edge">
<title>e5&#45;&gt;e6</title>
<path fill="none" stroke="black" d="M587.56,-90C590.33,-90 593.09,-90 595.86,-90"/>
<polygon fill="black" stroke="black" points="595.88,-93.5 605.88,-90 595.88,-86.5 595.88,-93.5"/>
</g>
<!-- e7 -->
<g id="node7" class="node">
<title>e7</title>
<ellipse fill="none" stroke="black" cx="832.35" cy="-90" rx="57.39" ry="18"/>
<text text-anchor="middle" x="832.35" y="-86.3" font-family="Times,serif" font-size="14.00">三地址代码</text>
</g>
<!-- e6&#45;&gt;e7 -->
<g id="edge6" class="edge">
<title>e6&#45;&gt;e7</title>
<path fill="none" stroke="black" d="M756.85,-90C759.51,-90 762.18,-90 764.85,-90"/>
<polygon fill="black" stroke="black" points="765.13,-93.5 775.13,-90 765.13,-86.5 765.13,-93.5"/>
</g>
<!-- e6&#45;&gt;e8 -->
<g id="edge9" class="edge">
<title>e6&#45;&gt;e8</title>
<path fill="none" stroke="black" d="M631.08,-76.57C577.02,-63.2 492.01,-42.17 441.07,-29.57"/>
<polygon fill="black" stroke="black" points="441.9,-26.17 431.36,-27.16 440.22,-32.96 441.9,-26.17"/>
</g>
</g>
</svg>
