<?xml version="1.0" encoding="UTF-8" standalone="no"?>
<!DOCTYPE svg PUBLIC "-//W3C//DTD SVG 1.1//EN"
 "http://www.w3.org/Graphics/SVG/1.1/DTD/svg11.dtd">
<!-- Generated by graphviz version 2.43.0 (0)
 -->
<!-- Title: %3 Pages: 1 -->
<svg width="298pt" height="332pt"
 viewBox="0.00 0.00 297.99 332.00" xmlns="http://www.w3.org/2000/svg" xmlns:xlink="http://www.w3.org/1999/xlink">
<g id="graph0" class="graph" transform="scale(1 1) rotate(0) translate(4 328)">
<title>%3</title>
<polygon fill="white" stroke="transparent" points="-4,4 -4,-328 293.99,-328 293.99,4 -4,4"/>
<!-- e1 -->
<g id="node1" class="node">
<title>e1</title>
<ellipse fill="none" stroke="black" cx="178.5" cy="-306" rx="27" ry="18"/>
<text text-anchor="middle" x="178.5" y="-302.3" font-family="Times,serif" font-size="14.00">list</text>
</g>
<!-- e2 -->
<g id="node2" class="node">
<title>e2</title>
<ellipse fill="none" stroke="black" cx="105.5" cy="-234" rx="27" ry="18"/>
<text text-anchor="middle" x="105.5" y="-230.3" font-family="Times,serif" font-size="14.00">list</text>
</g>
<!-- e1&#45;&gt;e2 -->
<g id="edge1" class="edge">
<title>e1&#45;&gt;e2</title>
<path fill="none" stroke="black" d="M163.72,-290.83C153.34,-280.87 139.25,-267.37 127.54,-256.14"/>
<polygon fill="black" stroke="black" points="129.89,-253.54 120.25,-249.14 125.04,-258.59 129.89,-253.54"/>
</g>
<!-- e3 -->
<g id="node3" class="node">
<title>e3</title>
<ellipse fill="none" stroke="black" cx="178.5" cy="-234" rx="27" ry="18"/>
<text text-anchor="middle" x="178.5" y="-230.3" font-family="Times,serif" font-size="14.00">+</text>
</g>
<!-- e1&#45;&gt;e3 -->
<g id="edge2" class="edge">
<title>e1&#45;&gt;e3</title>
<path fill="none" stroke="black" d="M178.5,-287.7C178.5,-279.98 178.5,-270.71 178.5,-262.11"/>
<polygon fill="black" stroke="black" points="182,-262.1 178.5,-252.1 175,-262.1 182,-262.1"/>
</g>
<!-- e4 -->
<g id="node4" class="node">
<title>e4</title>
<ellipse fill="none" stroke="black" cx="257.5" cy="-234" rx="32.49" ry="18"/>
<text text-anchor="middle" x="257.5" y="-230.3" font-family="Times,serif" font-size="14.00">digit</text>
</g>
<!-- e1&#45;&gt;e4 -->
<g id="edge3" class="edge">
<title>e1&#45;&gt;e4</title>
<path fill="none" stroke="black" d="M194.1,-291.17C205.28,-281.27 220.53,-267.75 233.28,-256.46"/>
<polygon fill="black" stroke="black" points="235.67,-259.02 240.83,-249.77 231.03,-253.78 235.67,-259.02"/>
</g>
<!-- e5 -->
<g id="node5" class="node">
<title>e5</title>
<ellipse fill="none" stroke="black" cx="32.5" cy="-162" rx="27" ry="18"/>
<text text-anchor="middle" x="32.5" y="-158.3" font-family="Times,serif" font-size="14.00">list</text>
</g>
<!-- e2&#45;&gt;e5 -->
<g id="edge4" class="edge">
<title>e2&#45;&gt;e5</title>
<path fill="none" stroke="black" d="M90.72,-218.83C80.34,-208.87 66.25,-195.37 54.54,-184.14"/>
<polygon fill="black" stroke="black" points="56.89,-181.54 47.25,-177.14 52.04,-186.59 56.89,-181.54"/>
</g>
<!-- e6 -->
<g id="node6" class="node">
<title>e6</title>
<ellipse fill="none" stroke="black" cx="104.5" cy="-162" rx="27" ry="18"/>
<text text-anchor="middle" x="104.5" y="-158.3" font-family="Times,serif" font-size="14.00">&#45;</text>
</g>
<!-- e2&#45;&gt;e6 -->
<g id="edge5" class="edge">
<title>e2&#45;&gt;e6</title>
<path fill="none" stroke="black" d="M105.25,-215.7C105.14,-207.98 105.01,-198.71 104.88,-190.11"/>
<polygon fill="black" stroke="black" points="108.38,-190.05 104.74,-180.1 101.38,-190.15 108.38,-190.05"/>
</g>
<!-- e7 -->
<g id="node7" class="node">
<title>e7</title>
<ellipse fill="none" stroke="black" cx="181.5" cy="-162" rx="32.49" ry="18"/>
<text text-anchor="middle" x="181.5" y="-158.3" font-family="Times,serif" font-size="14.00">digit</text>
</g>
<!-- e2&#45;&gt;e7 -->
<g id="edge6" class="edge">
<title>e2&#45;&gt;e7</title>
<path fill="none" stroke="black" d="M120.88,-218.83C131.48,-209.07 145.78,-195.9 157.82,-184.8"/>
<polygon fill="black" stroke="black" points="160.37,-187.22 165.35,-177.87 155.63,-182.07 160.37,-187.22"/>
</g>
<!-- e8 -->
<g id="node8" class="node">
<title>e8</title>
<ellipse fill="none" stroke="black" cx="258.5" cy="-162" rx="27" ry="18"/>
<text text-anchor="middle" x="258.5" y="-158.3" font-family="Times,serif" font-size="14.00">2</text>
</g>
<!-- e4&#45;&gt;e8 -->
<g id="edge7" class="edge">
<title>e4&#45;&gt;e8</title>
<path fill="none" stroke="black" d="M257.74,-215.7C257.85,-207.98 257.99,-198.71 258.11,-190.11"/>
<polygon fill="black" stroke="black" points="261.61,-190.15 258.25,-180.1 254.61,-190.05 261.61,-190.15"/>
</g>
<!-- e9 -->
<g id="node9" class="node">
<title>e9</title>
<ellipse fill="none" stroke="black" cx="32.5" cy="-90" rx="32.49" ry="18"/>
<text text-anchor="middle" x="32.5" y="-86.3" font-family="Times,serif" font-size="14.00">digit</text>
</g>
<!-- e5&#45;&gt;e9 -->
<g id="edge8" class="edge">
<title>e5&#45;&gt;e9</title>
<path fill="none" stroke="black" d="M32.5,-143.7C32.5,-135.98 32.5,-126.71 32.5,-118.11"/>
<polygon fill="black" stroke="black" points="36,-118.1 32.5,-108.1 29,-118.1 36,-118.1"/>
</g>
<!-- e10 -->
<g id="node10" class="node">
<title>e10</title>
<ellipse fill="none" stroke="black" cx="181.5" cy="-90" rx="27" ry="18"/>
<text text-anchor="middle" x="181.5" y="-86.3" font-family="Times,serif" font-size="14.00">5</text>
</g>
<!-- e7&#45;&gt;e10 -->
<g id="edge9" class="edge">
<title>e7&#45;&gt;e10</title>
<path fill="none" stroke="black" d="M181.5,-143.7C181.5,-135.98 181.5,-126.71 181.5,-118.11"/>
<polygon fill="black" stroke="black" points="185,-118.1 181.5,-108.1 178,-118.1 185,-118.1"/>
</g>
<!-- e11 -->
<g id="node11" class="node">
<title>e11</title>
<ellipse fill="none" stroke="black" cx="32.5" cy="-18" rx="27" ry="18"/>
<text text-anchor="middle" x="32.5" y="-14.3" font-family="Times,serif" font-size="14.00">9</text>
</g>
<!-- e9&#45;&gt;e11 -->
<g id="edge10" class="edge">
<title>e9&#45;&gt;e11</title>
<path fill="none" stroke="black" d="M32.5,-71.7C32.5,-63.98 32.5,-54.71 32.5,-46.11"/>
<polygon fill="black" stroke="black" points="36,-46.1 32.5,-36.1 29,-46.1 36,-46.1"/>
</g>
</g>
</svg>
