<?xml version="1.0" encoding="UTF-8" standalone="no"?>
<!DOCTYPE svg PUBLIC "-//W3C//DTD SVG 1.1//EN"
 "http://www.w3.org/Graphics/SVG/1.1/DTD/svg11.dtd">
<!-- Generated by graphviz version 2.43.0 (0)
 -->
<!-- Title: %3 Pages: 1 -->
<svg width="350pt" height="332pt"
 viewBox="0.00 0.00 350.50 332.00" xmlns="http://www.w3.org/2000/svg" xmlns:xlink="http://www.w3.org/1999/xlink">
<g id="graph0" class="graph" transform="scale(1 1) rotate(0) translate(4 328)">
<title>%3</title>
<polygon fill="white" stroke="transparent" points="-4,4 -4,-328 346.5,-328 346.5,4 -4,4"/>
<!-- e1 -->
<g id="node1" class="node">
<title>e1</title>
<ellipse fill="none" stroke="black" cx="243.5" cy="-306" rx="27" ry="18"/>
<text text-anchor="middle" x="243.5" y="-302.3" font-family="Times,serif" font-size="14.00">list</text>
</g>
<!-- e2 -->
<g id="node2" class="node">
<title>e2</title>
<ellipse fill="none" stroke="black" cx="132.5" cy="-234" rx="27" ry="18"/>
<text text-anchor="middle" x="132.5" y="-230.3" font-family="Times,serif" font-size="14.00">list</text>
</g>
<!-- e1&#45;&gt;e2 -->
<g id="edge1" class="edge">
<title>e1&#45;&gt;e2</title>
<path fill="none" stroke="black" d="M224.42,-292.97C206.78,-281.85 180.37,-265.19 160.38,-252.58"/>
<polygon fill="black" stroke="black" points="162.03,-249.48 151.7,-247.11 158.29,-255.41 162.03,-249.48"/>
</g>
<!-- e3 -->
<g id="node3" class="node">
<title>e3</title>
<ellipse fill="none" stroke="black" cx="309.5" cy="-234" rx="32.49" ry="18"/>
<text text-anchor="middle" x="309.5" y="-230.3" font-family="Times,serif" font-size="14.00">digit</text>
</g>
<!-- e1&#45;&gt;e3 -->
<g id="edge3" class="edge">
<title>e1&#45;&gt;e3</title>
<path fill="none" stroke="black" d="M257.49,-290.15C266.39,-280.72 278.07,-268.33 288.11,-257.69"/>
<polygon fill="black" stroke="black" points="290.75,-259.98 295.06,-250.31 285.66,-255.18 290.75,-259.98"/>
</g>
<!-- e10 -->
<g id="node10" class="node">
<title>e10</title>
<ellipse fill="none" stroke="black" cx="243.5" cy="-18" rx="27" ry="18"/>
<text text-anchor="middle" x="243.5" y="-14.3" font-family="Times,serif" font-size="14.00">+</text>
</g>
<!-- e1&#45;&gt;e10 -->
<g id="edge2" class="edge">
<title>e1&#45;&gt;e10</title>
<path fill="none" stroke="black" d="M243.5,-287.97C243.5,-240.29 243.5,-105.18 243.5,-46.63"/>
<polygon fill="black" stroke="black" points="247,-46.31 243.5,-36.31 240,-46.31 247,-46.31"/>
</g>
<!-- e4 -->
<g id="node4" class="node">
<title>e4</title>
<ellipse fill="none" stroke="black" cx="39.5" cy="-162" rx="27" ry="18"/>
<text text-anchor="middle" x="39.5" y="-158.3" font-family="Times,serif" font-size="14.00">list</text>
</g>
<!-- e2&#45;&gt;e4 -->
<g id="edge4" class="edge">
<title>e2&#45;&gt;e4</title>
<path fill="none" stroke="black" d="M115,-219.83C100.98,-209.27 81.08,-194.3 65.24,-182.37"/>
<polygon fill="black" stroke="black" points="67.01,-179.32 56.91,-176.11 62.8,-184.92 67.01,-179.32"/>
</g>
<!-- e5 -->
<g id="node5" class="node">
<title>e5</title>
<ellipse fill="none" stroke="black" cx="162.5" cy="-162" rx="32.49" ry="18"/>
<text text-anchor="middle" x="162.5" y="-158.3" font-family="Times,serif" font-size="14.00">digit</text>
</g>
<!-- e2&#45;&gt;e5 -->
<g id="edge5" class="edge">
<title>e2&#45;&gt;e5</title>
<path fill="none" stroke="black" d="M139.61,-216.41C143.07,-208.34 147.31,-198.43 151.2,-189.35"/>
<polygon fill="black" stroke="black" points="154.51,-190.53 155.23,-179.96 148.07,-187.77 154.51,-190.53"/>
</g>
<!-- e8 -->
<g id="node8" class="node">
<title>e8</title>
<ellipse fill="none" stroke="black" cx="99.5" cy="-18" rx="27" ry="18"/>
<text text-anchor="middle" x="99.5" y="-14.3" font-family="Times,serif" font-size="14.00">&#45;</text>
</g>
<!-- e2&#45;&gt;e8 -->
<g id="edge8" class="edge">
<title>e2&#45;&gt;e8</title>
<path fill="none" stroke="black" d="M128.63,-215.87C126.37,-205.52 123.57,-192.04 121.5,-180 113.43,-133.04 106.43,-77.96 102.6,-45.92"/>
<polygon fill="black" stroke="black" points="106.08,-45.5 101.43,-35.98 99.12,-46.32 106.08,-45.5"/>
</g>
<!-- e11 -->
<g id="node11" class="node">
<title>e11</title>
<ellipse fill="none" stroke="black" cx="315.5" cy="-18" rx="27" ry="18"/>
<text text-anchor="middle" x="315.5" y="-14.3" font-family="Times,serif" font-size="14.00">2</text>
</g>
<!-- e3&#45;&gt;e11 -->
<g id="edge9" class="edge">
<title>e3&#45;&gt;e11</title>
<path fill="none" stroke="black" d="M309.98,-215.85C311.02,-178.83 313.47,-91.18 314.73,-46.39"/>
<polygon fill="black" stroke="black" points="318.23,-46.33 315.01,-36.23 311.23,-46.13 318.23,-46.33"/>
</g>
<!-- e6 -->
<g id="node6" class="node">
<title>e6</title>
<ellipse fill="none" stroke="black" cx="32.5" cy="-90" rx="32.49" ry="18"/>
<text text-anchor="middle" x="32.5" y="-86.3" font-family="Times,serif" font-size="14.00">digit</text>
</g>
<!-- e4&#45;&gt;e6 -->
<g id="edge6" class="edge">
<title>e4&#45;&gt;e6</title>
<path fill="none" stroke="black" d="M37.77,-143.7C37,-135.98 36.07,-126.71 35.21,-118.11"/>
<polygon fill="black" stroke="black" points="38.69,-117.71 34.21,-108.1 31.72,-118.4 38.69,-117.71"/>
</g>
<!-- e9 -->
<g id="node9" class="node">
<title>e9</title>
<ellipse fill="none" stroke="black" cx="171.5" cy="-18" rx="27" ry="18"/>
<text text-anchor="middle" x="171.5" y="-14.3" font-family="Times,serif" font-size="14.00">5</text>
</g>
<!-- e5&#45;&gt;e9 -->
<g id="edge10" class="edge">
<title>e5&#45;&gt;e9</title>
<path fill="none" stroke="black" d="M163.58,-143.87C165.12,-119.67 167.93,-75.21 169.76,-46.39"/>
<polygon fill="black" stroke="black" points="173.27,-46.39 170.41,-36.19 166.28,-45.95 173.27,-46.39"/>
</g>
<!-- e7 -->
<g id="node7" class="node">
<title>e7</title>
<ellipse fill="none" stroke="black" cx="27.5" cy="-18" rx="27" ry="18"/>
<text text-anchor="middle" x="27.5" y="-14.3" font-family="Times,serif" font-size="14.00">9</text>
</g>
<!-- e6&#45;&gt;e7 -->
<g id="edge7" class="edge">
<title>e6&#45;&gt;e7</title>
<path fill="none" stroke="black" d="M31.26,-71.7C30.71,-63.98 30.05,-54.71 29.43,-46.11"/>
<polygon fill="black" stroke="black" points="32.92,-45.83 28.72,-36.1 25.94,-46.33 32.92,-45.83"/>
</g>
<!-- e7&#45;&gt;e8 -->
<!-- e8&#45;&gt;e9 -->
<!-- e9&#45;&gt;e10 -->
<!-- e10&#45;&gt;e11 -->
</g>
</svg>
