<?xml version="1.0" encoding="UTF-8" standalone="no"?>
<!DOCTYPE svg PUBLIC "-//W3C//DTD SVG 1.1//EN"
 "http://www.w3.org/Graphics/SVG/1.1/DTD/svg11.dtd">
<!-- Generated by graphviz version 2.43.0 (0)
 -->
<!-- Title: %3 Pages: 1 -->
<svg width="692pt" height="338pt"
 viewBox="0.00 0.00 692.00 338.00" xmlns="http://www.w3.org/2000/svg" xmlns:xlink="http://www.w3.org/1999/xlink">
<g id="graph0" class="graph" transform="scale(1 1) rotate(0) translate(4 334)">
<title>%3</title>
<polygon fill="white" stroke="transparent" points="-4,4 -4,-334 688,-334 688,4 -4,4"/>
<text text-anchor="middle" x="342" y="-7.8" font-family="Times,serif" font-size="14.00">两种情况</text>
<g id="clust1" class="cluster">
<title>cluster1</title>
<polygon fill="none" stroke="black" points="8,-31 8,-322 338,-322 338,-31 8,-31"/>
<text text-anchor="middle" x="173" y="-306.8" font-family="Times,serif" font-size="14.00">1</text>
</g>
<g id="clust2" class="cluster">
<title>cluster2</title>
<polygon fill="none" stroke="black" points="346,-31 346,-322 676,-322 676,-31 346,-31"/>
<text text-anchor="middle" x="511" y="-306.8" font-family="Times,serif" font-size="14.00">2</text>
</g>
<!-- e000 -->
<g id="node1" class="node">
<title>e000</title>
<ellipse fill="none" stroke="black" cx="209" cy="-273" rx="38.19" ry="18"/>
<text text-anchor="middle" x="209" y="-269.3" font-family="Times,serif" font-size="14.00">string</text>
</g>
<!-- e010 -->
<g id="node2" class="node">
<title>e010</title>
<ellipse fill="none" stroke="black" cx="126" cy="-201" rx="38.19" ry="18"/>
<text text-anchor="middle" x="126" y="-197.3" font-family="Times,serif" font-size="14.00">string</text>
</g>
<!-- e000&#45;&gt;e010 -->
<g id="edge1" class="edge">
<title>e000&#45;&gt;e010</title>
<path fill="none" stroke="black" d="M190.99,-256.81C179.57,-247.18 164.61,-234.56 151.92,-223.86"/>
<polygon fill="black" stroke="black" points="153.88,-220.93 143.97,-217.16 149.36,-226.28 153.88,-220.93"/>
</g>
<!-- e011 -->
<g id="node3" class="node">
<title>e011</title>
<ellipse fill="none" stroke="black" cx="209" cy="-201" rx="27" ry="18"/>
<text text-anchor="middle" x="209" y="-197.3" font-family="Times,serif" font-size="14.00">+</text>
</g>
<!-- e000&#45;&gt;e011 -->
<g id="edge2" class="edge">
<title>e000&#45;&gt;e011</title>
<path fill="none" stroke="black" d="M209,-254.7C209,-246.98 209,-237.71 209,-229.11"/>
<polygon fill="black" stroke="black" points="212.5,-229.1 209,-219.1 205.5,-229.1 212.5,-229.1"/>
</g>
<!-- e012 -->
<g id="node4" class="node">
<title>e012</title>
<ellipse fill="none" stroke="black" cx="292" cy="-201" rx="38.19" ry="18"/>
<text text-anchor="middle" x="292" y="-197.3" font-family="Times,serif" font-size="14.00">string</text>
</g>
<!-- e000&#45;&gt;e012 -->
<g id="edge3" class="edge">
<title>e000&#45;&gt;e012</title>
<path fill="none" stroke="black" d="M227.01,-256.81C238.43,-247.18 253.39,-234.56 266.08,-223.86"/>
<polygon fill="black" stroke="black" points="268.64,-226.28 274.03,-217.16 264.12,-220.93 268.64,-226.28"/>
</g>
<!-- e020 -->
<g id="node5" class="node">
<title>e020</title>
<ellipse fill="none" stroke="black" cx="54" cy="-129" rx="38.19" ry="18"/>
<text text-anchor="middle" x="54" y="-125.3" font-family="Times,serif" font-size="14.00">string</text>
</g>
<!-- e010&#45;&gt;e020 -->
<g id="edge4" class="edge">
<title>e010&#45;&gt;e020</title>
<path fill="none" stroke="black" d="M110.02,-184.46C100.42,-175.13 88.03,-163.09 77.35,-152.7"/>
<polygon fill="black" stroke="black" points="79.54,-149.95 69.93,-145.49 74.66,-154.97 79.54,-149.95"/>
</g>
<!-- e021 -->
<g id="node6" class="node">
<title>e021</title>
<ellipse fill="none" stroke="black" cx="137" cy="-129" rx="27" ry="18"/>
<text text-anchor="middle" x="137" y="-125.3" font-family="Times,serif" font-size="14.00">&#45;</text>
</g>
<!-- e010&#45;&gt;e021 -->
<g id="edge5" class="edge">
<title>e010&#45;&gt;e021</title>
<path fill="none" stroke="black" d="M128.72,-182.7C129.93,-174.98 131.39,-165.71 132.74,-157.11"/>
<polygon fill="black" stroke="black" points="136.22,-157.53 134.31,-147.1 129.3,-156.44 136.22,-157.53"/>
</g>
<!-- e022 -->
<g id="node7" class="node">
<title>e022</title>
<ellipse fill="none" stroke="black" cx="220" cy="-129" rx="38.19" ry="18"/>
<text text-anchor="middle" x="220" y="-125.3" font-family="Times,serif" font-size="14.00">string</text>
</g>
<!-- e010&#45;&gt;e022 -->
<g id="edge6" class="edge">
<title>e010&#45;&gt;e022</title>
<path fill="none" stroke="black" d="M145.93,-185.15C159.36,-175.16 177.25,-161.83 192.09,-150.78"/>
<polygon fill="black" stroke="black" points="194.49,-153.36 200.42,-144.58 190.31,-147.75 194.49,-153.36"/>
</g>
<!-- e023 -->
<g id="node8" class="node">
<title>e023</title>
<ellipse fill="none" stroke="black" cx="303" cy="-129" rx="27" ry="18"/>
<text text-anchor="middle" x="303" y="-125.3" font-family="Times,serif" font-size="14.00">2</text>
</g>
<!-- e012&#45;&gt;e023 -->
<g id="edge7" class="edge">
<title>e012&#45;&gt;e023</title>
<path fill="none" stroke="black" d="M294.72,-182.7C295.93,-174.98 297.39,-165.71 298.74,-157.11"/>
<polygon fill="black" stroke="black" points="302.22,-157.53 300.31,-147.1 295.3,-156.44 302.22,-157.53"/>
</g>
<!-- e030 -->
<g id="node9" class="node">
<title>e030</title>
<ellipse fill="none" stroke="black" cx="54" cy="-57" rx="27" ry="18"/>
<text text-anchor="middle" x="54" y="-53.3" font-family="Times,serif" font-size="14.00">9</text>
</g>
<!-- e020&#45;&gt;e030 -->
<g id="edge8" class="edge">
<title>e020&#45;&gt;e030</title>
<path fill="none" stroke="black" d="M54,-110.7C54,-102.98 54,-93.71 54,-85.11"/>
<polygon fill="black" stroke="black" points="57.5,-85.1 54,-75.1 50.5,-85.1 57.5,-85.1"/>
</g>
<!-- e031 -->
<g id="node10" class="node">
<title>e031</title>
<ellipse fill="none" stroke="black" cx="220" cy="-57" rx="27" ry="18"/>
<text text-anchor="middle" x="220" y="-53.3" font-family="Times,serif" font-size="14.00">5</text>
</g>
<!-- e022&#45;&gt;e031 -->
<g id="edge9" class="edge">
<title>e022&#45;&gt;e031</title>
<path fill="none" stroke="black" d="M220,-110.7C220,-102.98 220,-93.71 220,-85.11"/>
<polygon fill="black" stroke="black" points="223.5,-85.1 220,-75.1 216.5,-85.1 223.5,-85.1"/>
</g>
<!-- e100 -->
<g id="node11" class="node">
<title>e100</title>
<ellipse fill="none" stroke="black" cx="475" cy="-273" rx="38.19" ry="18"/>
<text text-anchor="middle" x="475" y="-269.3" font-family="Times,serif" font-size="14.00">string</text>
</g>
<!-- e110 -->
<g id="node12" class="node">
<title>e110</title>
<ellipse fill="none" stroke="black" cx="392" cy="-201" rx="38.19" ry="18"/>
<text text-anchor="middle" x="392" y="-197.3" font-family="Times,serif" font-size="14.00">string</text>
</g>
<!-- e100&#45;&gt;e110 -->
<g id="edge10" class="edge">
<title>e100&#45;&gt;e110</title>
<path fill="none" stroke="black" d="M456.99,-256.81C445.57,-247.18 430.61,-234.56 417.92,-223.86"/>
<polygon fill="black" stroke="black" points="419.88,-220.93 409.97,-217.16 415.36,-226.28 419.88,-220.93"/>
</g>
<!-- e111 -->
<g id="node13" class="node">
<title>e111</title>
<ellipse fill="none" stroke="black" cx="475" cy="-201" rx="27" ry="18"/>
<text text-anchor="middle" x="475" y="-197.3" font-family="Times,serif" font-size="14.00">&#45;</text>
</g>
<!-- e100&#45;&gt;e111 -->
<g id="edge11" class="edge">
<title>e100&#45;&gt;e111</title>
<path fill="none" stroke="black" d="M475,-254.7C475,-246.98 475,-237.71 475,-229.11"/>
<polygon fill="black" stroke="black" points="478.5,-229.1 475,-219.1 471.5,-229.1 478.5,-229.1"/>
</g>
<!-- e112 -->
<g id="node14" class="node">
<title>e112</title>
<ellipse fill="none" stroke="black" cx="558" cy="-201" rx="38.19" ry="18"/>
<text text-anchor="middle" x="558" y="-197.3" font-family="Times,serif" font-size="14.00">string</text>
</g>
<!-- e100&#45;&gt;e112 -->
<g id="edge12" class="edge">
<title>e100&#45;&gt;e112</title>
<path fill="none" stroke="black" d="M493.01,-256.81C504.43,-247.18 519.39,-234.56 532.08,-223.86"/>
<polygon fill="black" stroke="black" points="534.64,-226.28 540.03,-217.16 530.12,-220.93 534.64,-226.28"/>
</g>
<!-- e120 -->
<g id="node15" class="node">
<title>e120</title>
<ellipse fill="none" stroke="black" cx="381" cy="-129" rx="27" ry="18"/>
<text text-anchor="middle" x="381" y="-125.3" font-family="Times,serif" font-size="14.00">9</text>
</g>
<!-- e110&#45;&gt;e120 -->
<g id="edge13" class="edge">
<title>e110&#45;&gt;e120</title>
<path fill="none" stroke="black" d="M389.28,-182.7C388.07,-174.98 386.61,-165.71 385.26,-157.11"/>
<polygon fill="black" stroke="black" points="388.7,-156.44 383.69,-147.1 381.78,-157.53 388.7,-156.44"/>
</g>
<!-- e121 -->
<g id="node16" class="node">
<title>e121</title>
<ellipse fill="none" stroke="black" cx="464" cy="-129" rx="38.19" ry="18"/>
<text text-anchor="middle" x="464" y="-125.3" font-family="Times,serif" font-size="14.00">string</text>
</g>
<!-- e112&#45;&gt;e121 -->
<g id="edge14" class="edge">
<title>e112&#45;&gt;e121</title>
<path fill="none" stroke="black" d="M538.07,-185.15C524.64,-175.16 506.75,-161.83 491.91,-150.78"/>
<polygon fill="black" stroke="black" points="493.69,-147.75 483.58,-144.58 489.51,-153.36 493.69,-147.75"/>
</g>
<!-- e122 -->
<g id="node17" class="node">
<title>e122</title>
<ellipse fill="none" stroke="black" cx="547" cy="-129" rx="27" ry="18"/>
<text text-anchor="middle" x="547" y="-125.3" font-family="Times,serif" font-size="14.00">+</text>
</g>
<!-- e112&#45;&gt;e122 -->
<g id="edge15" class="edge">
<title>e112&#45;&gt;e122</title>
<path fill="none" stroke="black" d="M555.28,-182.7C554.07,-174.98 552.61,-165.71 551.26,-157.11"/>
<polygon fill="black" stroke="black" points="554.7,-156.44 549.69,-147.1 547.78,-157.53 554.7,-156.44"/>
</g>
<!-- e123 -->
<g id="node18" class="node">
<title>e123</title>
<ellipse fill="none" stroke="black" cx="630" cy="-129" rx="38.19" ry="18"/>
<text text-anchor="middle" x="630" y="-125.3" font-family="Times,serif" font-size="14.00">string</text>
</g>
<!-- e112&#45;&gt;e123 -->
<g id="edge16" class="edge">
<title>e112&#45;&gt;e123</title>
<path fill="none" stroke="black" d="M573.98,-184.46C583.58,-175.13 595.97,-163.09 606.65,-152.7"/>
<polygon fill="black" stroke="black" points="609.34,-154.97 614.07,-145.49 604.46,-149.95 609.34,-154.97"/>
</g>
<!-- e130 -->
<g id="node19" class="node">
<title>e130</title>
<ellipse fill="none" stroke="black" cx="464" cy="-57" rx="27" ry="18"/>
<text text-anchor="middle" x="464" y="-53.3" font-family="Times,serif" font-size="14.00">5</text>
</g>
<!-- e121&#45;&gt;e130 -->
<g id="edge17" class="edge">
<title>e121&#45;&gt;e130</title>
<path fill="none" stroke="black" d="M464,-110.7C464,-102.98 464,-93.71 464,-85.11"/>
<polygon fill="black" stroke="black" points="467.5,-85.1 464,-75.1 460.5,-85.1 467.5,-85.1"/>
</g>
<!-- e131 -->
<g id="node20" class="node">
<title>e131</title>
<ellipse fill="none" stroke="black" cx="630" cy="-57" rx="27" ry="18"/>
<text text-anchor="middle" x="630" y="-53.3" font-family="Times,serif" font-size="14.00">2</text>
</g>
<!-- e123&#45;&gt;e131 -->
<g id="edge18" class="edge">
<title>e123&#45;&gt;e131</title>
<path fill="none" stroke="black" d="M630,-110.7C630,-102.98 630,-93.71 630,-85.11"/>
<polygon fill="black" stroke="black" points="633.5,-85.1 630,-75.1 626.5,-85.1 633.5,-85.1"/>
</g>
</g>
</svg>
