<?xml version="1.0" encoding="UTF-8" standalone="no"?>
<!DOCTYPE svg PUBLIC "-//W3C//DTD SVG 1.1//EN"
 "http://www.w3.org/Graphics/SVG/1.1/DTD/svg11.dtd">
<!-- Generated by graphviz version 2.43.0 (0)
 -->
<!-- Title: %3 Pages: 1 -->
<svg width="607pt" height="158pt"
 viewBox="0.00 0.00 606.67 157.74" xmlns="http://www.w3.org/2000/svg" xmlns:xlink="http://www.w3.org/1999/xlink">
<g id="graph0" class="graph" transform="scale(1 1) rotate(0) translate(4 153.74)">
<title>%3</title>
<polygon fill="white" stroke="transparent" points="-4,4 -4,-153.74 602.67,-153.74 602.67,4 -4,4"/>
<text text-anchor="middle" x="299.34" y="-7.8" font-family="Times,serif" font-size="14.00">词法分析器与语法分析器之间的交互</text>
<!-- e1 -->
<g id="node1" class="node">
<title>e1</title>
<ellipse fill="none" stroke="black" cx="38.35" cy="-122.87" rx="38.19" ry="18"/>
<text text-anchor="middle" x="38.35" y="-119.17" font-family="Times,serif" font-size="14.00">源程序</text>
</g>
<!-- e2 -->
<g id="node2" class="node">
<title>e2</title>
<ellipse fill="none" stroke="black" cx="169.35" cy="-122.87" rx="57.39" ry="18"/>
<text text-anchor="middle" x="169.35" y="-119.17" font-family="Times,serif" font-size="14.00">词法分析器</text>
</g>
<!-- e1&#45;&gt;e2 -->
<g id="edge1" class="edge">
<title>e1&#45;&gt;e2</title>
<path fill="none" stroke="black" d="M76.73,-122.87C85.04,-122.87 93.36,-122.87 101.68,-122.87"/>
<polygon fill="black" stroke="black" points="101.82,-126.37 111.82,-122.87 101.82,-119.37 101.82,-126.37"/>
</g>
<!-- e3 -->
<g id="node3" class="node">
<title>e3</title>
<ellipse fill="none" stroke="black" cx="401.35" cy="-122.87" rx="57.39" ry="18"/>
<text text-anchor="middle" x="401.35" y="-119.17" font-family="Times,serif" font-size="14.00">语法分析器</text>
</g>
<!-- e2&#45;&gt;e3 -->
<g id="edge2" class="edge">
<title>e2&#45;&gt;e3</title>
<path fill="none" stroke="black" d="M214.68,-111.67C228.01,-108.87 242.69,-106.27 256.35,-104.87 281.99,-102.25 288.7,-102.25 314.35,-104.87 324.7,-105.93 335.63,-107.68 346.12,-109.68"/>
<polygon fill="black" stroke="black" points="345.52,-113.13 356.02,-111.67 346.9,-106.27 345.52,-113.13"/>
<text text-anchor="middle" x="285.35" y="-108.67" font-family="Times,serif" font-size="14.00">词法单元</text>
</g>
<!-- e5 -->
<g id="node5" class="node">
<title>e5</title>
<ellipse fill="none" stroke="black" cx="284.35" cy="-41" rx="38.19" ry="18"/>
<text text-anchor="middle" x="284.35" y="-37.3" font-family="Times,serif" font-size="14.00">符号表</text>
</g>
<!-- e2&#45;&gt;e5 -->
<g id="edge5" class="edge">
<title>e2&#45;&gt;e5</title>
<path fill="none" stroke="black" d="M200.01,-100.57C217.1,-88.7 238.28,-74 255.13,-62.29"/>
<polygon fill="black" stroke="black" points="198.01,-97.7 191.79,-106.28 202,-103.45 198.01,-97.7"/>
<polygon fill="black" stroke="black" points="257.29,-65.05 263.51,-56.47 253.3,-59.3 257.29,-65.05"/>
</g>
<!-- e3&#45;&gt;e2 -->
<g id="edge3" class="edge">
<title>e3&#45;&gt;e2</title>
<path fill="none" stroke="black" d="M343.85,-122.87C311.48,-122.87 270.88,-122.87 236.98,-122.87"/>
<polygon fill="black" stroke="black" points="236.69,-119.37 226.69,-122.87 236.69,-126.37 236.69,-119.37"/>
<text text-anchor="middle" x="285.35" y="-129.67" font-family="Times,serif" font-size="14.00">getNextToken</text>
</g>
<!-- e4 -->
<g id="node4" class="node">
<title>e4</title>
<ellipse fill="none" stroke="black" cx="546.35" cy="-122.87" rx="52.15" ry="26.74"/>
<text text-anchor="middle" x="546.35" y="-126.67" font-family="Times,serif" font-size="14.00">输出至</text>
<text text-anchor="middle" x="546.35" y="-111.67" font-family="Times,serif" font-size="14.00">语义分析</text>
</g>
<!-- e3&#45;&gt;e4 -->
<g id="edge4" class="edge">
<title>e3&#45;&gt;e4</title>
<path fill="none" stroke="black" d="M458.55,-122.87C466.92,-122.87 475.3,-122.87 483.67,-122.87"/>
<polygon fill="black" stroke="black" points="483.88,-126.37 493.88,-122.87 483.88,-119.37 483.88,-126.37"/>
</g>
<!-- e3&#45;&gt;e5 -->
<g id="edge6" class="edge">
<title>e3&#45;&gt;e5</title>
<path fill="none" stroke="black" d="M370.09,-100.54C352.59,-88.58 330.88,-73.77 313.69,-62.03"/>
<polygon fill="black" stroke="black" points="368.28,-103.53 378.51,-106.28 372.22,-97.75 368.28,-103.53"/>
<polygon fill="black" stroke="black" points="315.4,-58.96 305.16,-56.21 311.45,-64.74 315.4,-58.96"/>
</g>
</g>
</svg>
