<?xml version="1.0" encoding="UTF-8" standalone="no"?><svg xmlns="http://www.w3.org/2000/svg" xmlns:xlink="http://www.w3.org/1999/xlink" contentScriptType="application/ecmascript" contentStyleType="text/css" height="79px" preserveAspectRatio="none" style="width:681px;height:79px;" version="1.1" viewBox="0 0 681 79" width="681px" zoomAndPan="magnify"><defs><filter height="300%" id="fiuj0ovxlgy4e" width="300%" x="-1" y="-1"><feGaussianBlur result="blurOut" stdDeviation="2.0"/><feColorMatrix in="blurOut" result="blurOut2" type="matrix" values="0 0 0 0 0 0 0 0 0 0 0 0 0 0 0 0 0 0 .4 0"/><feOffset dx="4.0" dy="4.0" in="blurOut2" result="blurOut3"/><feBlend in="SourceGraphic" in2="blurOut3" mode="normal"/></filter></defs><g><text fill="#000000" font-family="sans-serif" font-size="18" lengthAdjust="spacingAndGlyphs" textLength="161" x="263.5" y="16.708">假想关键字then的状态转换图</text><rect fill="#F8F8F8" filter="url(#fiuj0ovxlgy4e)" height="40" rx="12.5" ry="12.5" style="stroke: #383838; stroke-width: 1.5;" width="50" x="93" y="28.9531"/><text fill="#000000" font-family="sans-serif" font-size="14" lengthAdjust="spacingAndGlyphs" textLength="0" x="120" y="53.7998"/><rect fill="#F8F8F8" filter="url(#fiuj0ovxlgy4e)" height="40" rx="12.5" ry="12.5" style="stroke: #383838; stroke-width: 1.5;" width="50" x="185" y="28.9531"/><text fill="#000000" font-family="sans-serif" font-size="14" lengthAdjust="spacingAndGlyphs" textLength="0" x="212" y="53.7998"/><rect fill="#F8F8F8" filter="url(#fiuj0ovxlgy4e)" height="40" rx="12.5" ry="12.5" style="stroke: #383838; stroke-width: 1.5;" width="50" x="280" y="28.9531"/><text fill="#000000" font-family="sans-serif" font-size="14" lengthAdjust="spacingAndGlyphs" textLength="0" x="307" y="53.7998"/><rect fill="#F8F8F8" filter="url(#fiuj0ovxlgy4e)" height="40" rx="12.5" ry="12.5" style="stroke: #383838; stroke-width: 1.5;" width="50" x="375" y="28.9531"/><text fill="#000000" font-family="sans-serif" font-size="14" lengthAdjust="spacingAndGlyphs" textLength="0" x="402" y="53.7998"/><rect fill="#F8F8F8" filter="url(#fiuj0ovxlgy4e)" height="40" rx="12.5" ry="12.5" style="stroke: #383838; stroke-width: 1.5;" width="50" x="470" y="28.9531"/><text fill="#000000" font-family="sans-serif" font-size="14" lengthAdjust="spacingAndGlyphs" textLength="0" x="497" y="53.7998"/><rect fill="#F8F8F8" filter="url(#fiuj0ovxlgy4e)" height="40" rx="12.5" ry="12.5" style="stroke: #383838; stroke-width: 1.5;" width="50" x="620" y="28.9531"/><text fill="#000000" font-family="sans-serif" font-size="14" lengthAdjust="spacingAndGlyphs" textLength="7" x="641.5" y="53.7998">*</text><ellipse cx="16" cy="48.9531" fill="#000000" filter="url(#fiuj0ovxlgy4e)" rx="10" ry="10" style="stroke: none; stroke-width: 1.0;"/><!--MD5=[90920f5114a235e1da45e73b7391e34a]
link *start to 1--><path d="M26.15,48.9531 C40.37,48.9531 66.8,48.9531 87.67,48.9531 " fill="none" id="*start-&gt;1" style="stroke: #383838; stroke-width: 1.0;"/><polygon fill="#383838" points="92.85,48.9531,83.85,44.9531,87.85,48.9531,83.85,52.9531,92.85,48.9531" style="stroke: #383838; stroke-width: 1.0;"/><text fill="#000000" font-family="sans-serif" font-size="13" lengthAdjust="spacingAndGlyphs" textLength="30" x="44.5" y="42.02">start</text><!--MD5=[0ba0d8a0fd0e641c23f69743a446dfe6]
link 1 to 2--><path d="M143.14,48.9531 C154.4,48.9531 167.77,48.9531 179.58,48.9531 " fill="none" id="1-&gt;2" style="stroke: #383838; stroke-width: 1.0;"/><polygon fill="#383838" points="184.89,48.9531,175.89,44.9531,179.89,48.9531,175.89,52.9531,184.89,48.9531" style="stroke: #383838; stroke-width: 1.0;"/><text fill="#000000" font-family="sans-serif" font-size="13" lengthAdjust="spacingAndGlyphs" textLength="5" x="161.5" y="42.02">t</text><!--MD5=[eeb69082328d10abd3b14fdeede0d8a3]
link 2 to 3--><path d="M235.46,48.9531 C247.48,48.9531 261.92,48.9531 274.53,48.9531 " fill="none" id="2-&gt;3" style="stroke: #383838; stroke-width: 1.0;"/><polygon fill="#383838" points="279.8,48.9531,270.8,44.9531,274.8,48.9531,270.8,52.9531,279.8,48.9531" style="stroke: #383838; stroke-width: 1.0;"/><text fill="#000000" font-family="sans-serif" font-size="13" lengthAdjust="spacingAndGlyphs" textLength="8" x="253.5" y="42.02">h</text><!--MD5=[b1f22f0c97e7f2b556a5a2d67c42ac53]
link 3 to 4--><path d="M330.46,48.9531 C342.48,48.9531 356.92,48.9531 369.53,48.9531 " fill="none" id="3-&gt;4" style="stroke: #383838; stroke-width: 1.0;"/><polygon fill="#383838" points="374.8,48.9531,365.8,44.9531,369.8,48.9531,365.8,52.9531,374.8,48.9531" style="stroke: #383838; stroke-width: 1.0;"/><text fill="#000000" font-family="sans-serif" font-size="13" lengthAdjust="spacingAndGlyphs" textLength="8" x="348.5" y="42.02">e</text><!--MD5=[fb7a877824a531edc27ce1774c90edf7]
link 4 to 5--><path d="M425.46,48.9531 C437.48,48.9531 451.92,48.9531 464.53,48.9531 " fill="none" id="4-&gt;5" style="stroke: #383838; stroke-width: 1.0;"/><polygon fill="#383838" points="469.8,48.9531,460.8,44.9531,464.8,48.9531,460.8,52.9531,469.8,48.9531" style="stroke: #383838; stroke-width: 1.0;"/><text fill="#000000" font-family="sans-serif" font-size="13" lengthAdjust="spacingAndGlyphs" textLength="8" x="443.5" y="42.02">n</text><!--MD5=[deed8cab30c10dbe2727e65517d240f0]
link 5 to 6--><path d="M520.11,48.9531 C546.17,48.9531 586.96,48.9531 614.77,48.9531 " fill="none" id="5-&gt;6" style="stroke: #383838; stroke-width: 1.0;"/><polygon fill="#383838" points="619.81,48.9531,610.81,44.9531,614.81,48.9531,610.81,52.9531,619.81,48.9531" style="stroke: #383838; stroke-width: 1.0;"/><text fill="#000000" font-family="sans-serif" font-size="13" lengthAdjust="spacingAndGlyphs" textLength="63" x="538.5" y="42.02">nonlet/dig</text><!--MD5=[36923435803f11a8ec300ac999c6f9a4]
@startuml
skinparam monochrome true
title 假想关键字then的状态转换图

hide empty description

state " " as 1
state " " as 2
state " " as 3
state " " as 4
state " " as 5
state "*" as 6

[*] -> 1: start
1 -> 2: t
2 -> 3: h
3 -> 4: e
4 -> 5: n
5 -> 6: nonlet/dig

@enduml

PlantUML version 1.2020.02(Sun Mar 01 18:22:07 CST 2020)
(GPL source distribution)
Java Runtime: OpenJDK Runtime Environment
JVM: OpenJDK 64-Bit Server VM
Java Version: 19.0.2+7-Ubuntu-0ubuntu322.04
Operating System: Linux
Default Encoding: UTF-8
Language: en
Country: US
--></g></svg>