<?xml version="1.0" encoding="UTF-8" standalone="no"?><svg xmlns="http://www.w3.org/2000/svg" xmlns:xlink="http://www.w3.org/1999/xlink" contentScriptType="application/ecmascript" contentStyleType="text/css" height="547px" preserveAspectRatio="none" style="width:691px;height:547px;" version="1.1" viewBox="0 0 691 547" width="691px" zoomAndPan="magnify"><defs><filter height="300%" id="fyduvmefd0bw9" width="300%" x="-1" y="-1"><feGaussianBlur result="blurOut" stdDeviation="2.0"/><feColorMatrix in="blurOut" result="blurOut2" type="matrix" values="0 0 0 0 0 0 0 0 0 0 0 0 0 0 0 0 0 0 .4 0"/><feOffset dx="4.0" dy="4.0" in="blurOut2" result="blurOut3"/><feBlend in="SourceGraphic" in2="blurOut3" mode="normal"/></filter></defs><g><text fill="#000000" font-family="sans-serif" font-size="18" lengthAdjust="spacingAndGlyphs" textLength="156" x="270.5" y="16.708">词法单元relop的状态转换图</text><ellipse cx="16" cy="282.9531" fill="#000000" filter="url(#fyduvmefd0bw9)" rx="10" ry="10" style="stroke: none; stroke-width: 1.0;"/><rect fill="#FEFECE" filter="url(#fyduvmefd0bw9)" height="40" rx="12.5" ry="12.5" style="stroke: #A80036; stroke-width: 1.5;" width="50" x="93" y="262.9531"/><text fill="#000000" font-family="sans-serif" font-size="14" lengthAdjust="spacingAndGlyphs" textLength="9" x="113.5" y="287.7998">0</text><rect fill="#FEFECE" filter="url(#fyduvmefd0bw9)" height="40" rx="12.5" ry="12.5" style="stroke: #A80036; stroke-width: 1.5;" width="50" x="214" y="145.9531"/><text fill="#000000" font-family="sans-serif" font-size="14" lengthAdjust="spacingAndGlyphs" textLength="16" x="231" y="170.7998">4*</text><rect fill="#FEFECE" filter="url(#fyduvmefd0bw9)" height="40" rx="12.5" ry="12.5" style="stroke: #A80036; stroke-width: 1.5;" width="50" x="93" y="496.9531"/><text fill="#000000" font-family="sans-serif" font-size="14" lengthAdjust="spacingAndGlyphs" textLength="16" x="110" y="521.7998">8*</text><rect fill="#FEFECE" filter="url(#fyduvmefd0bw9)" height="40" rx="12.5" ry="12.5" style="stroke: #A80036; stroke-width: 1.5;" width="50" x="93" y="145.9531"/><text fill="#000000" font-family="sans-serif" font-size="14" lengthAdjust="spacingAndGlyphs" textLength="9" x="113.5" y="170.7998">1</text><rect fill="#FEFECE" filter="url(#fyduvmefd0bw9)" height="40" rx="12.5" ry="12.5" style="stroke: #A80036; stroke-width: 1.5;" width="50" x="93" y="28.9531"/><text fill="#000000" font-family="sans-serif" font-size="14" lengthAdjust="spacingAndGlyphs" textLength="9" x="113.5" y="53.7998">2</text><rect fill="#FEFECE" filter="url(#fyduvmefd0bw9)" height="40" rx="12.5" ry="12.5" style="stroke: #A80036; stroke-width: 1.5;" width="50" x="462" y="145.9531"/><text fill="#000000" font-family="sans-serif" font-size="14" lengthAdjust="spacingAndGlyphs" textLength="9" x="482.5" y="170.7998">3</text><rect fill="#FEFECE" filter="url(#fyduvmefd0bw9)" height="40" rx="12.5" ry="12.5" style="stroke: #A80036; stroke-width: 1.5;" width="50" x="191" y="262.9531"/><text fill="#000000" font-family="sans-serif" font-size="14" lengthAdjust="spacingAndGlyphs" textLength="9" x="211.5" y="287.7998">5</text><rect fill="#FEFECE" filter="url(#fyduvmefd0bw9)" height="40" rx="12.5" ry="12.5" style="stroke: #A80036; stroke-width: 1.5;" width="50" x="93" y="379.9531"/><text fill="#000000" font-family="sans-serif" font-size="14" lengthAdjust="spacingAndGlyphs" textLength="9" x="113.5" y="404.7998">6</text><rect fill="#FEFECE" filter="url(#fyduvmefd0bw9)" height="40" rx="12.5" ry="12.5" style="stroke: #A80036; stroke-width: 1.5;" width="50" x="191" y="379.9531"/><text fill="#000000" font-family="sans-serif" font-size="14" lengthAdjust="spacingAndGlyphs" textLength="9" x="211.5" y="404.7998">7</text><path d="M178.5,36.4531 L178.5,44.9531 L143.39,48.9531 L178.5,52.9531 L178.5,61.5859 A0,0 0 0 0 178.5,61.5859 L307.5,61.5859 A0,0 0 0 0 307.5,61.5859 L307.5,46.4531 L297.5,36.4531 L178.5,36.4531 A0,0 0 0 0 178.5,36.4531 " fill="#FBFB77" filter="url(#fyduvmefd0bw9)" style="stroke: #A80036; stroke-width: 1.0;"/><path d="M297.5,36.4531 L297.5,46.4531 L307.5,46.4531 L297.5,36.4531 " fill="#FBFB77" style="stroke: #A80036; stroke-width: 1.0;"/><text fill="#000000" font-family="sans-serif" font-size="13" lengthAdjust="spacingAndGlyphs" textLength="108" x="184.5" y="53.52">return (relop, LE)</text><path d="M547,153.4531 L547,161.9531 L512.1,165.9531 L547,169.9531 L547,178.5859 A0,0 0 0 0 547,178.5859 L679,178.5859 A0,0 0 0 0 679,178.5859 L679,163.4531 L669,153.4531 L547,153.4531 A0,0 0 0 0 547,153.4531 " fill="#FBFB77" filter="url(#fyduvmefd0bw9)" style="stroke: #A80036; stroke-width: 1.0;"/><path d="M669,153.4531 L669,163.4531 L679,163.4531 L669,153.4531 " fill="#FBFB77" style="stroke: #A80036; stroke-width: 1.0;"/><text fill="#000000" font-family="sans-serif" font-size="13" lengthAdjust="spacingAndGlyphs" textLength="111" x="553" y="170.52">return (relop, NE)</text><path d="M299,153.4531 L299,161.9531 L264.19,165.9531 L299,169.9531 L299,178.5859 A0,0 0 0 0 299,178.5859 L427,178.5859 A0,0 0 0 0 427,178.5859 L427,163.4531 L417,153.4531 L299,153.4531 A0,0 0 0 0 299,153.4531 " fill="#FBFB77" filter="url(#fyduvmefd0bw9)" style="stroke: #A80036; stroke-width: 1.0;"/><path d="M417,153.4531 L417,163.4531 L427,163.4531 L417,153.4531 " fill="#FBFB77" style="stroke: #A80036; stroke-width: 1.0;"/><text fill="#000000" font-family="sans-serif" font-size="13" lengthAdjust="spacingAndGlyphs" textLength="107" x="305" y="170.52">return (relop, LT)</text><path d="M276,270.4531 L276,278.9531 L241.1,282.9531 L276,286.9531 L276,295.5859 A0,0 0 0 0 276,295.5859 L408,295.5859 A0,0 0 0 0 408,295.5859 L408,280.4531 L398,270.4531 L276,270.4531 A0,0 0 0 0 276,270.4531 " fill="#FBFB77" filter="url(#fyduvmefd0bw9)" style="stroke: #A80036; stroke-width: 1.0;"/><path d="M398,270.4531 L398,280.4531 L408,280.4531 L398,270.4531 " fill="#FBFB77" style="stroke: #A80036; stroke-width: 1.0;"/><text fill="#000000" font-family="sans-serif" font-size="13" lengthAdjust="spacingAndGlyphs" textLength="111" x="282" y="287.52">return (relop, EQ)</text><path d="M276,387.4531 L276,395.9531 L241.1,399.9531 L276,403.9531 L276,412.5859 A0,0 0 0 0 276,412.5859 L408,412.5859 A0,0 0 0 0 408,412.5859 L408,397.4531 L398,387.4531 L276,387.4531 A0,0 0 0 0 276,387.4531 " fill="#FBFB77" filter="url(#fyduvmefd0bw9)" style="stroke: #A80036; stroke-width: 1.0;"/><path d="M398,387.4531 L398,397.4531 L408,397.4531 L398,387.4531 " fill="#FBFB77" style="stroke: #A80036; stroke-width: 1.0;"/><text fill="#000000" font-family="sans-serif" font-size="13" lengthAdjust="spacingAndGlyphs" textLength="111" x="282" y="404.52">return (relop, GE)</text><path d="M178.5,504.4531 L178.5,512.9531 L143.1,516.9531 L178.5,520.9531 L178.5,529.5859 A0,0 0 0 0 178.5,529.5859 L309.5,529.5859 A0,0 0 0 0 309.5,529.5859 L309.5,514.4531 L299.5,504.4531 L178.5,504.4531 A0,0 0 0 0 178.5,504.4531 " fill="#FBFB77" filter="url(#fyduvmefd0bw9)" style="stroke: #A80036; stroke-width: 1.0;"/><path d="M299.5,504.4531 L299.5,514.4531 L309.5,514.4531 L299.5,504.4531 " fill="#FBFB77" style="stroke: #A80036; stroke-width: 1.0;"/><text fill="#000000" font-family="sans-serif" font-size="13" lengthAdjust="spacingAndGlyphs" textLength="110" x="184.5" y="521.52">return (relop, GT)</text><!--MD5=[7766b8d0521aa09e0b5f6e1649ae45e7]
link *start to 0--><path d="M26.15,282.9531 C40.37,282.9531 66.8,282.9531 87.67,282.9531 " fill="none" id="*start-&gt;0" style="stroke: #A80036; stroke-width: 1.0;"/><polygon fill="#A80036" points="92.85,282.9531,83.85,278.9531,87.85,282.9531,83.85,286.9531,92.85,282.9531" style="stroke: #A80036; stroke-width: 1.0;"/><text fill="#000000" font-family="sans-serif" font-size="13" lengthAdjust="spacingAndGlyphs" textLength="30" x="44.5" y="276.02">start</text><!--MD5=[d310cc16938962836a1ee110921ed263]
reverse link 1 to 0--><path d="M118,191.3931 C118,212.6631 118,243.0531 118,262.6431 " fill="none" id="1&lt;-0" style="stroke: #A80036; stroke-width: 1.0;"/><polygon fill="#A80036" points="118,186.2031,114,195.2031,118,191.2031,122,195.2031,118,186.2031" style="stroke: #A80036; stroke-width: 1.0;"/><text fill="#000000" font-family="sans-serif" font-size="13" lengthAdjust="spacingAndGlyphs" textLength="11" x="119" y="229.02">&lt;</text><!--MD5=[33ed49aa3311b135d2192157c3ea4eb7]
reverse link 2 to 1--><path d="M118,74.3931 C118,95.6631 118,126.0531 118,145.6431 " fill="none" id="2&lt;-1" style="stroke: #A80036; stroke-width: 1.0;"/><polygon fill="#A80036" points="118,69.2031,114,78.2031,118,74.2031,122,78.2031,118,69.2031" style="stroke: #A80036; stroke-width: 1.0;"/><text fill="#000000" font-family="sans-serif" font-size="13" lengthAdjust="spacingAndGlyphs" textLength="11" x="119" y="112.02">=</text><!--MD5=[2d4b753efd65b00afdf467246674cbe5]
link 1 to 3--><path d="M143.24,154.8831 C177.1,140.7031 239.47,116.8731 295.5,107.9531 C354.34,98.5831 420.31,127.8031 457.43,148.1131 " fill="none" id="1-&gt;3" style="stroke: #A80036; stroke-width: 1.0;"/><polygon fill="#A80036" points="461.81,150.5431,455.8852,142.6757,457.4392,148.1149,452,149.669,461.81,150.5431" style="stroke: #A80036; stroke-width: 1.0;"/><text fill="#000000" font-family="sans-serif" font-size="13" lengthAdjust="spacingAndGlyphs" textLength="11" x="296.5" y="112.02">&gt;</text><!--MD5=[a94a78a4bcab98299a720253a19623a8]
link 1 to 4--><path d="M143.07,165.9531 C162.22,165.9531 188.67,165.9531 208.95,165.9531 " fill="none" id="1-&gt;4" style="stroke: #A80036; stroke-width: 1.0;"/><polygon fill="#A80036" points="213.96,165.9531,204.96,161.9531,208.96,165.9531,204.96,169.9531,213.96,165.9531" style="stroke: #A80036; stroke-width: 1.0;"/><text fill="#000000" font-family="sans-serif" font-size="13" lengthAdjust="spacingAndGlyphs" textLength="34" x="161.5" y="159.02">other</text><!--MD5=[828eee10fbcc1ac0931785059decc0af]
link 0 to 5--><path d="M143.24,282.9531 C156.15,282.9531 171.98,282.9531 185.57,282.9531 " fill="none" id="0-&gt;5" style="stroke: #A80036; stroke-width: 1.0;"/><polygon fill="#A80036" points="190.85,282.9531,181.85,278.9531,185.85,282.9531,181.85,286.9531,190.85,282.9531" style="stroke: #A80036; stroke-width: 1.0;"/><text fill="#000000" font-family="sans-serif" font-size="13" lengthAdjust="spacingAndGlyphs" textLength="11" x="161.5" y="276.02">=</text><!--MD5=[1d17b108804246bb7c49ad6f40c77db3]
link 0 to 6--><path d="M118,303.2031 C118,322.7731 118,353.1631 118,374.4431 " fill="none" id="0-&gt;6" style="stroke: #A80036; stroke-width: 1.0;"/><polygon fill="#A80036" points="118,379.6431,122,370.6431,118,374.6431,114,370.6431,118,379.6431" style="stroke: #A80036; stroke-width: 1.0;"/><text fill="#000000" font-family="sans-serif" font-size="13" lengthAdjust="spacingAndGlyphs" textLength="11" x="119" y="346.02">&gt;</text><!--MD5=[2dfa168d6698efd82f568a8036f37f42]
link 6 to 7--><path d="M143.24,399.9531 C156.15,399.9531 171.98,399.9531 185.57,399.9531 " fill="none" id="6-&gt;7" style="stroke: #A80036; stroke-width: 1.0;"/><polygon fill="#A80036" points="190.85,399.9531,181.85,395.9531,185.85,399.9531,181.85,403.9531,190.85,399.9531" style="stroke: #A80036; stroke-width: 1.0;"/><text fill="#000000" font-family="sans-serif" font-size="13" lengthAdjust="spacingAndGlyphs" textLength="11" x="161.5" y="393.02">=</text><!--MD5=[bcb90f14dd6207bfac8bacdc809e2579]
link 6 to 8--><path d="M118,420.2031 C118,439.7731 118,470.1631 118,491.4431 " fill="none" id="6-&gt;8" style="stroke: #A80036; stroke-width: 1.0;"/><polygon fill="#A80036" points="118,496.6431,122,487.6431,118,491.6431,114,487.6431,118,496.6431" style="stroke: #A80036; stroke-width: 1.0;"/><text fill="#000000" font-family="sans-serif" font-size="13" lengthAdjust="spacingAndGlyphs" textLength="34" x="119" y="463.02">other</text><!--MD5=[8939fafa87e8efb0eb196d984a8981ce]
@startuml

title 词法单元relop的状态转换图

hide empty description

[*] -> 0: start

state "4*" as 4
state "8*" as 8

0 -up-> 1: <
1 -up-> 2: =
1 -right-> 3: >
1 -right-> 4: other
0 -right-> 5: =
0 -down-> 6: >
6 -right-> 7: =
6 -down-> 8: other

note right of 2: return (relop, LE)
note right of 3: return (relop, NE)
note right of 4: return (relop, LT)
note right of 5: return (relop, EQ)
note right of 7: return (relop, GE)
note right of 8: return (relop, GT)

@enduml

PlantUML version 1.2020.02(Sun Mar 01 10:22:07 UTC 2020)
(GPL source distribution)
Java Runtime: OpenJDK Runtime Environment
JVM: OpenJDK 64-Bit Server VM
Java Version: 19.0.2+7-Ubuntu-0ubuntu322.04
Operating System: Linux
Default Encoding: UTF-8
Language: en
Country: US
--></g></svg>