<?xml version="1.0" encoding="UTF-8" standalone="no"?><svg xmlns="http://www.w3.org/2000/svg" xmlns:xlink="http://www.w3.org/1999/xlink" contentScriptType="application/ecmascript" contentStyleType="text/css" height="255px" preserveAspectRatio="none" style="width:1136px;height:255px;" version="1.1" viewBox="0 0 1136 255" width="1136px" zoomAndPan="magnify"><defs><filter height="300%" id="f1lo8eswcix0w1" width="300%" x="-1" y="-1"><feGaussianBlur result="blurOut" stdDeviation="2.0"/><feColorMatrix in="blurOut" result="blurOut2" type="matrix" values="0 0 0 0 0 0 0 0 0 0 0 0 0 0 0 0 0 0 .4 0"/><feOffset dx="4.0" dy="4.0" in="blurOut2" result="blurOut3"/><feBlend in="SourceGraphic" in2="blurOut3" mode="normal"/></filter></defs><g><text fill="#000000" font-family="sans-serif" font-size="18" lengthAdjust="spacingAndGlyphs" textLength="121" x="511" y="16.708">无符号数字的状态转换图</text><rect fill="#F8F8F8" filter="url(#f1lo8eswcix0w1)" height="40" rx="12.5" ry="12.5" style="stroke: #383838; stroke-width: 1.5;" width="50" x="1075" y="87.9531"/><text fill="#000000" font-family="sans-serif" font-size="14" lengthAdjust="spacingAndGlyphs" textLength="25" x="1087.5" y="112.7998">19*</text><rect fill="#F8F8F8" filter="url(#f1lo8eswcix0w1)" height="40" rx="12.5" ry="12.5" style="stroke: #383838; stroke-width: 1.5;" width="50" x="207" y="204.9531"/><text fill="#000000" font-family="sans-serif" font-size="14" lengthAdjust="spacingAndGlyphs" textLength="25" x="219.5" y="229.7998">20*</text><rect fill="#F8F8F8" filter="url(#f1lo8eswcix0w1)" height="40" rx="12.5" ry="12.5" style="stroke: #383838; stroke-width: 1.5;" width="50" x="497" y="204.9531"/><text fill="#000000" font-family="sans-serif" font-size="14" lengthAdjust="spacingAndGlyphs" textLength="25" x="509.5" y="229.7998">21*</text><ellipse cx="16" cy="107.9531" fill="#000000" filter="url(#f1lo8eswcix0w1)" rx="10" ry="10" style="stroke: none; stroke-width: 1.0;"/><rect fill="#F8F8F8" filter="url(#f1lo8eswcix0w1)" height="40" rx="12.5" ry="12.5" style="stroke: #383838; stroke-width: 1.5;" width="50" x="93" y="87.9531"/><text fill="#000000" font-family="sans-serif" font-size="14" lengthAdjust="spacingAndGlyphs" textLength="18" x="109" y="112.7998">12</text><rect fill="#F8F8F8" filter="url(#f1lo8eswcix0w1)" height="40" rx="12.5" ry="12.5" style="stroke: #383838; stroke-width: 1.5;" width="50" x="207" y="87.9531"/><text fill="#000000" font-family="sans-serif" font-size="14" lengthAdjust="spacingAndGlyphs" textLength="18" x="223" y="112.7998">13</text><rect fill="#F8F8F8" filter="url(#f1lo8eswcix0w1)" height="40" rx="12.5" ry="12.5" style="stroke: #383838; stroke-width: 1.5;" width="50" x="383" y="87.9531"/><text fill="#000000" font-family="sans-serif" font-size="14" lengthAdjust="spacingAndGlyphs" textLength="18" x="399" y="112.7998">14</text><rect fill="#F8F8F8" filter="url(#f1lo8eswcix0w1)" height="40" rx="12.5" ry="12.5" style="stroke: #383838; stroke-width: 1.5;" width="50" x="649" y="87.9531"/><text fill="#000000" font-family="sans-serif" font-size="14" lengthAdjust="spacingAndGlyphs" textLength="18" x="665" y="112.7998">16</text><rect fill="#F8F8F8" filter="url(#f1lo8eswcix0w1)" height="40" rx="12.5" ry="12.5" style="stroke: #383838; stroke-width: 1.5;" width="50" x="497" y="87.9531"/><text fill="#000000" font-family="sans-serif" font-size="14" lengthAdjust="spacingAndGlyphs" textLength="18" x="513" y="112.7998">15</text><rect fill="#F8F8F8" filter="url(#f1lo8eswcix0w1)" height="40" rx="12.5" ry="12.5" style="stroke: #383838; stroke-width: 1.5;" width="50" x="783" y="87.9531"/><text fill="#000000" font-family="sans-serif" font-size="14" lengthAdjust="spacingAndGlyphs" textLength="18" x="799" y="112.7998">17</text><rect fill="#F8F8F8" filter="url(#f1lo8eswcix0w1)" height="40" rx="12.5" ry="12.5" style="stroke: #383838; stroke-width: 1.5;" width="50" x="897" y="87.9531"/><text fill="#000000" font-family="sans-serif" font-size="14" lengthAdjust="spacingAndGlyphs" textLength="18" x="913" y="112.7998">18</text><!--MD5=[b1ff642ff61a9c5d4b3dd961d020b47f]
link *start to 12--><path d="M26.15,107.9531 C40.37,107.9531 66.8,107.9531 87.67,107.9531 " fill="none" id="*start-&gt;12" style="stroke: #383838; stroke-width: 1.0;"/><polygon fill="#383838" points="92.85,107.9531,83.85,103.9531,87.85,107.9531,83.85,111.9531,92.85,107.9531" style="stroke: #383838; stroke-width: 1.0;"/><text fill="#000000" font-family="sans-serif" font-size="13" lengthAdjust="spacingAndGlyphs" textLength="30" x="44.5" y="101.02">start</text><!--MD5=[5cad5af0897dff878c8b6da08fd225e3]
link 12 to 13--><path d="M143.02,107.9531 C160.27,107.9531 183.31,107.9531 201.62,107.9531 " fill="none" id="12-&gt;13" style="stroke: #383838; stroke-width: 1.0;"/><polygon fill="#383838" points="206.65,107.9531,197.65,103.9531,201.65,107.9531,197.65,111.9531,206.65,107.9531" style="stroke: #383838; stroke-width: 1.0;"/><text fill="#000000" font-family="sans-serif" font-size="13" lengthAdjust="spacingAndGlyphs" textLength="27" x="161.5" y="101.02">digit</text><!--MD5=[2f0b501fc55d386b0861038e6e42356d]
link 13 to 13--><path d="M257.28,98.1431 C274.77,95.1631 292,98.4331 292,107.9531 C292,116.5031 278.09,120.0131 262.58,118.4831 " fill="none" id="13-&gt;13" style="stroke: #383838; stroke-width: 1.0;"/><polygon fill="#383838" points="257.28,117.7631,265.6617,122.9349,262.2348,118.4342,266.7354,115.0073,257.28,117.7631" style="stroke: #383838; stroke-width: 1.0;"/><text fill="#000000" font-family="sans-serif" font-size="13" lengthAdjust="spacingAndGlyphs" textLength="27" x="298" y="112.52">digit</text><!--MD5=[26c085f55605f16ba30993d7cca82057]
link 13 to 14--><path d="M257.22,107.9531 C288.98,107.9531 343.5,107.9531 377.55,107.9531 " fill="none" id="13-&gt;14" style="stroke: #383838; stroke-width: 1.0;"/><polygon fill="#383838" points="382.83,107.9531,373.83,103.9531,377.83,107.9531,373.83,111.9531,382.83,107.9531" style="stroke: #383838; stroke-width: 1.0;"/><text fill="#000000" font-family="sans-serif" font-size="13" lengthAdjust="spacingAndGlyphs" textLength="32" x="304" y="101.02">point</text><!--MD5=[81c31b20973292284c9b99e6c687c01a]
link 13 to 20--><path d="M232,128.2031 C232,147.7731 232,178.1631 232,199.4431 " fill="none" id="13-&gt;20" style="stroke: #383838; stroke-width: 1.0;"/><polygon fill="#383838" points="232,204.6431,236,195.6431,232,199.6431,228,195.6431,232,204.6431" style="stroke: #383838; stroke-width: 1.0;"/><text fill="#000000" font-family="sans-serif" font-size="13" lengthAdjust="spacingAndGlyphs" textLength="34" x="233" y="171.02">other</text><!--MD5=[d3d446dc34180abf0e537dc58c91fbaa]
link 13 to 16--><path d="M257.16,98.8731 C297.01,85.0331 377.36,59.2731 448,49.9531 C519.88,40.4731 601.72,72.5931 644.46,92.7831 " fill="none" id="13-&gt;16" style="stroke: #383838; stroke-width: 1.0;"/><polygon fill="#383838" points="648.97,94.9431,642.5833,87.4457,644.4613,92.7818,639.1252,94.6597,648.97,94.9431" style="stroke: #383838; stroke-width: 1.0;"/><text fill="#000000" font-family="sans-serif" font-size="13" lengthAdjust="spacingAndGlyphs" textLength="8" x="449" y="54.02">E</text><!--MD5=[a265fc1556089d313f2ac809f362dff5]
link 14 to 15--><path d="M433.02,107.9531 C450.27,107.9531 473.31,107.9531 491.62,107.9531 " fill="none" id="14-&gt;15" style="stroke: #383838; stroke-width: 1.0;"/><polygon fill="#383838" points="496.65,107.9531,487.65,103.9531,491.65,107.9531,487.65,111.9531,496.65,107.9531" style="stroke: #383838; stroke-width: 1.0;"/><text fill="#000000" font-family="sans-serif" font-size="13" lengthAdjust="spacingAndGlyphs" textLength="27" x="451.5" y="101.02">digit</text><!--MD5=[c4143db11262a44ea5ac07f0947cdbec]
link 15 to 15--><path d="M547.28,98.1431 C564.77,95.1631 582,98.4331 582,107.9531 C582,116.5031 568.09,120.0131 552.58,118.4831 " fill="none" id="15-&gt;15" style="stroke: #383838; stroke-width: 1.0;"/><polygon fill="#383838" points="547.28,117.7631,555.6617,122.9349,552.2348,118.4342,556.7354,115.0073,547.28,117.7631" style="stroke: #383838; stroke-width: 1.0;"/><text fill="#000000" font-family="sans-serif" font-size="13" lengthAdjust="spacingAndGlyphs" textLength="27" x="588" y="112.52">digit</text><!--MD5=[4dca66fb0d9cfb8b0ca9b77e0e08f996]
link 15 to 16--><path d="M547.1,107.9531 C573.61,107.9531 615.42,107.9531 643.74,107.9531 " fill="none" id="15-&gt;16" style="stroke: #383838; stroke-width: 1.0;"/><polygon fill="#383838" points="648.86,107.9531,639.86,103.9531,643.86,107.9531,639.86,111.9531,648.86,107.9531" style="stroke: #383838; stroke-width: 1.0;"/><text fill="#000000" font-family="sans-serif" font-size="13" lengthAdjust="spacingAndGlyphs" textLength="8" x="594" y="101.02">E</text><!--MD5=[2bf05f4d7fb7d17f049fb615d1fd568e]
link 15 to 21--><path d="M522,128.2031 C522,147.7731 522,178.1631 522,199.4431 " fill="none" id="15-&gt;21" style="stroke: #383838; stroke-width: 1.0;"/><polygon fill="#383838" points="522,204.6431,526,195.6431,522,199.6431,518,195.6431,522,204.6431" style="stroke: #383838; stroke-width: 1.0;"/><text fill="#000000" font-family="sans-serif" font-size="13" lengthAdjust="spacingAndGlyphs" textLength="34" x="523" y="171.02">other</text><!--MD5=[ba2e5fa2c698e5c9043853b0c770153c]
link 16 to 17--><path d="M699.2,107.9531 C721.48,107.9531 754.01,107.9531 777.69,107.9531 " fill="none" id="16-&gt;17" style="stroke: #383838; stroke-width: 1.0;"/><polygon fill="#383838" points="782.91,107.9531,773.91,103.9531,777.91,107.9531,773.91,111.9531,782.91,107.9531" style="stroke: #383838; stroke-width: 1.0;"/><text fill="#000000" font-family="sans-serif" font-size="13" lengthAdjust="spacingAndGlyphs" textLength="47" x="717.5" y="101.02">"+ or -"</text><!--MD5=[451e4fd71fcd7781fcafb88cd2382a24]
link 16 to 18--><path d="M699.09,90.0731 C720.4,76.0631 752.39,57.6831 783.5,49.9531 C823.36,40.0431 866.63,64.3131 894,84.4331 " fill="none" id="16-&gt;18" style="stroke: #383838; stroke-width: 1.0;"/><polygon fill="#383838" points="898.25,87.6231,893.45,79.0231,894.25,84.6231,888.65,85.4231,898.25,87.6231" style="stroke: #383838; stroke-width: 1.0;"/><text fill="#000000" font-family="sans-serif" font-size="13" lengthAdjust="spacingAndGlyphs" textLength="27" x="784.5" y="54.02">digit</text><!--MD5=[f563b88519aec37ca9b20ceaa35beeb1]
link 17 to 18--><path d="M833.02,107.9531 C850.27,107.9531 873.31,107.9531 891.62,107.9531 " fill="none" id="17-&gt;18" style="stroke: #383838; stroke-width: 1.0;"/><polygon fill="#383838" points="896.65,107.9531,887.65,103.9531,891.65,107.9531,887.65,111.9531,896.65,107.9531" style="stroke: #383838; stroke-width: 1.0;"/><text fill="#000000" font-family="sans-serif" font-size="13" lengthAdjust="spacingAndGlyphs" textLength="27" x="851.5" y="101.02">digit</text><!--MD5=[089706f23238b411abfaef6ae771a25a]
link 18 to 18--><path d="M947.28,98.1431 C964.77,95.1631 982,98.4331 982,107.9531 C982,116.5031 968.09,120.0131 952.58,118.4831 " fill="none" id="18-&gt;18" style="stroke: #383838; stroke-width: 1.0;"/><polygon fill="#383838" points="947.28,117.7631,955.6617,122.9349,952.2348,118.4342,956.7354,115.0073,947.28,117.7631" style="stroke: #383838; stroke-width: 1.0;"/><text fill="#000000" font-family="sans-serif" font-size="13" lengthAdjust="spacingAndGlyphs" textLength="27" x="988" y="112.52">digit</text><!--MD5=[8fa2ef2cb709af82b374dd2230e09fb4]
link 18 to 19--><path d="M947.13,107.9531 C979.24,107.9531 1034.79,107.9531 1069.35,107.9531 " fill="none" id="18-&gt;19" style="stroke: #383838; stroke-width: 1.0;"/><polygon fill="#383838" points="1074.71,107.9531,1065.71,103.9531,1069.71,107.9531,1065.71,111.9531,1074.71,107.9531" style="stroke: #383838; stroke-width: 1.0;"/><text fill="#000000" font-family="sans-serif" font-size="13" lengthAdjust="spacingAndGlyphs" textLength="34" x="994" y="101.02">other</text><!--MD5=[875f5253b7e2c30648ce55c856d67610]
@startuml
skinparam monochrome true
title 无符号数字的状态转换图

hide empty description

state "19*" as 19 
state "20*" as 20
state "21*" as 21

[*] -> 12: start
12 -> 13: digit
13 -> 13: digit
13 -> 14: point
13 - -> 20: other
13 -> 16: E
14 -> 15: digit
15 -> 15: digit
15 -> 16: E
15 - -> 21: other
16 -> 17: "+ or -"
16 -> 18: digit
17 -> 18: digit
18 -> 18: digit
18 -> 19: other


@enduml

PlantUML version 1.2020.02(Sun Mar 01 18:22:07 CST 2020)
(GPL source distribution)
Java Runtime: OpenJDK Runtime Environment
JVM: OpenJDK 64-Bit Server VM
Java Version: 19.0.2+7-Ubuntu-0ubuntu322.04
Operating System: Linux
Default Encoding: UTF-8
Language: en
Country: US
--></g></svg>