<?xml version="1.0" encoding="us-ascii" standalone="no"?><svg xmlns="http://www.w3.org/2000/svg" xmlns:xlink="http://www.w3.org/1999/xlink" contentStyleType="text/css" height="558px" preserveAspectRatio="none" style="width:686px;height:558px;background:#FFFFFF;" version="1.1" viewBox="0 0 686 558" width="686px" zoomAndPan="magnify"><defs/><g><text fill="#000000" font-family="sans-serif" font-size="14" font-weight="bold" lengthAdjust="spacing" textLength="185.375" x="243.3125" y="22.9951">&#35789;&#27861;&#21333;&#20803;relop&#30340;&#29366;&#24577;&#36716;&#25442;&#22270;</text><ellipse cx="16" cy="298.2969" fill="#181818" rx="10" ry="10" style="stroke:none;stroke-width:1.0;"/><rect fill="#F1F1F1" height="40" rx="12.5" ry="12.5" style="stroke:#181818;stroke-width:0.5;" width="50" x="93" y="278.2969"/><text fill="#000000" font-family="sans-serif" font-size="14" lengthAdjust="spacing" textLength="9" x="113.5" y="303.1436">0</text><rect fill="#F1F1F1" height="40" rx="12.5" ry="12.5" style="stroke:#181818;stroke-width:0.5;" width="50" x="214" y="161.2969"/><text fill="#000000" font-family="sans-serif" font-size="14" lengthAdjust="spacing" textLength="16" x="231" y="186.1436">4*</text><rect fill="#F1F1F1" height="40" rx="12.5" ry="12.5" style="stroke:#181818;stroke-width:0.5;" width="50" x="93" y="512.2969"/><text fill="#000000" font-family="sans-serif" font-size="14" lengthAdjust="spacing" textLength="16" x="110" y="537.1436">8*</text><rect fill="#F1F1F1" height="40" rx="12.5" ry="12.5" style="stroke:#181818;stroke-width:0.5;" width="50" x="93" y="161.2969"/><text fill="#000000" font-family="sans-serif" font-size="14" lengthAdjust="spacing" textLength="9" x="113.5" y="186.1436">1</text><rect fill="#F1F1F1" height="40" rx="12.5" ry="12.5" style="stroke:#181818;stroke-width:0.5;" width="50" x="93" y="44.2969"/><text fill="#000000" font-family="sans-serif" font-size="14" lengthAdjust="spacing" textLength="9" x="113.5" y="69.1436">2</text><rect fill="#F1F1F1" height="40" rx="12.5" ry="12.5" style="stroke:#181818;stroke-width:0.5;" width="50" x="462" y="161.2969"/><text fill="#000000" font-family="sans-serif" font-size="14" lengthAdjust="spacing" textLength="9" x="482.5" y="186.1436">3</text><rect fill="#F1F1F1" height="40" rx="12.5" ry="12.5" style="stroke:#181818;stroke-width:0.5;" width="50" x="191" y="278.2969"/><text fill="#000000" font-family="sans-serif" font-size="14" lengthAdjust="spacing" textLength="9" x="211.5" y="303.1436">5</text><rect fill="#F1F1F1" height="40" rx="12.5" ry="12.5" style="stroke:#181818;stroke-width:0.5;" width="50" x="93" y="395.2969"/><text fill="#000000" font-family="sans-serif" font-size="14" lengthAdjust="spacing" textLength="9" x="113.5" y="420.1436">6</text><rect fill="#F1F1F1" height="40" rx="12.5" ry="12.5" style="stroke:#181818;stroke-width:0.5;" width="50" x="191" y="395.2969"/><text fill="#000000" font-family="sans-serif" font-size="14" lengthAdjust="spacing" textLength="9" x="211.5" y="420.1436">7</text><g id="elem_GMN23"><path d="M178.5,51.7969 L178.5,60.2969 L143.39,64.2969 L178.5,68.2969 L178.5,76.9297 A0,0 0 0 0 178.5,76.9297 L307.5,76.9297 A0,0 0 0 0 307.5,76.9297 L307.5,61.7969 L297.5,51.7969 L178.5,51.7969 A0,0 0 0 0 178.5,51.7969 " fill="#FAFAFA" style="stroke:#181818;stroke-width:0.5;"/><path d="M297.5,51.7969 L297.5,61.7969 L307.5,61.7969 L297.5,51.7969 " fill="#FAFAFA" style="stroke:#181818;stroke-width:0.5;"/><text fill="#000000" font-family="sans-serif" font-size="13" lengthAdjust="spacing" textLength="108" x="184.5" y="68.8638">return (relop, LE)</text></g><g id="elem_GMN26"><path d="M547,168.7969 L547,177.2969 L512.1,181.2969 L547,185.2969 L547,193.9297 A0,0 0 0 0 547,193.9297 L679,193.9297 A0,0 0 0 0 679,193.9297 L679,178.7969 L669,168.7969 L547,168.7969 A0,0 0 0 0 547,168.7969 " fill="#FAFAFA" style="stroke:#181818;stroke-width:0.5;"/><path d="M669,168.7969 L669,178.7969 L679,178.7969 L669,168.7969 " fill="#FAFAFA" style="stroke:#181818;stroke-width:0.5;"/><text fill="#000000" font-family="sans-serif" font-size="13" lengthAdjust="spacing" textLength="111" x="553" y="185.8638">return (relop, NE)</text></g><g id="elem_GMN29"><path d="M299,168.7969 L299,177.2969 L264.19,181.2969 L299,185.2969 L299,193.9297 A0,0 0 0 0 299,193.9297 L427,193.9297 A0,0 0 0 0 427,193.9297 L427,178.7969 L417,168.7969 L299,168.7969 A0,0 0 0 0 299,168.7969 " fill="#FAFAFA" style="stroke:#181818;stroke-width:0.5;"/><path d="M417,168.7969 L417,178.7969 L427,178.7969 L417,168.7969 " fill="#FAFAFA" style="stroke:#181818;stroke-width:0.5;"/><text fill="#000000" font-family="sans-serif" font-size="13" lengthAdjust="spacing" textLength="107" x="305" y="185.8638">return (relop, LT)</text></g><g id="elem_GMN32"><path d="M276,285.7969 L276,294.2969 L241.1,298.2969 L276,302.2969 L276,310.9297 A0,0 0 0 0 276,310.9297 L408,310.9297 A0,0 0 0 0 408,310.9297 L408,295.7969 L398,285.7969 L276,285.7969 A0,0 0 0 0 276,285.7969 " fill="#FAFAFA" style="stroke:#181818;stroke-width:0.5;"/><path d="M398,285.7969 L398,295.7969 L408,295.7969 L398,285.7969 " fill="#FAFAFA" style="stroke:#181818;stroke-width:0.5;"/><text fill="#000000" font-family="sans-serif" font-size="13" lengthAdjust="spacing" textLength="111" x="282" y="302.8638">return (relop, EQ)</text></g><g id="elem_GMN35"><path d="M276,402.7969 L276,411.2969 L241.1,415.2969 L276,419.2969 L276,427.9297 A0,0 0 0 0 276,427.9297 L408,427.9297 A0,0 0 0 0 408,427.9297 L408,412.7969 L398,402.7969 L276,402.7969 A0,0 0 0 0 276,402.7969 " fill="#FAFAFA" style="stroke:#181818;stroke-width:0.5;"/><path d="M398,402.7969 L398,412.7969 L408,412.7969 L398,402.7969 " fill="#FAFAFA" style="stroke:#181818;stroke-width:0.5;"/><text fill="#000000" font-family="sans-serif" font-size="13" lengthAdjust="spacing" textLength="111" x="282" y="419.8638">return (relop, GE)</text></g><g id="elem_GMN38"><path d="M178.5,519.7969 L178.5,528.2969 L143.1,532.2969 L178.5,536.2969 L178.5,544.9297 A0,0 0 0 0 178.5,544.9297 L309.5,544.9297 A0,0 0 0 0 309.5,544.9297 L309.5,529.7969 L299.5,519.7969 L178.5,519.7969 A0,0 0 0 0 178.5,519.7969 " fill="#FAFAFA" style="stroke:#181818;stroke-width:0.5;"/><path d="M299.5,519.7969 L299.5,529.7969 L309.5,529.7969 L299.5,519.7969 " fill="#FAFAFA" style="stroke:#181818;stroke-width:0.5;"/><text fill="#000000" font-family="sans-serif" font-size="13" lengthAdjust="spacing" textLength="110" x="184.5" y="536.8638">return (relop, GT)</text></g><!--link *start* to 0--><g id="link_*start*_0"><path d="M26.15,298.2969 C40.37,298.2969 66.8,298.2969 87.67,298.2969 " fill="none" id="*start*-to-0" style="stroke:#181818;stroke-width:1.0;"/><polygon fill="#181818" points="92.85,298.2969,83.85,294.2969,87.85,298.2969,83.85,302.2969,92.85,298.2969" style="stroke:#181818;stroke-width:1.0;"/><text fill="#000000" font-family="sans-serif" font-size="13" lengthAdjust="spacing" textLength="30" x="44.5" y="291.3638">start</text></g><!--reverse link 1 to 0--><g id="link_1_0"><path d="M118,206.7369 C118,228.0069 118,258.3969 118,277.9869 " fill="none" id="1-backto-0" style="stroke:#181818;stroke-width:1.0;"/><polygon fill="#181818" points="118,201.5469,114,210.5469,118,206.5469,122,210.5469,118,201.5469" style="stroke:#181818;stroke-width:1.0;"/><text fill="#000000" font-family="sans-serif" font-size="13" lengthAdjust="spacing" textLength="11" x="119" y="244.3638">&lt;</text></g><!--reverse link 2 to 1--><g id="link_2_1"><path d="M118,89.7369 C118,111.0069 118,141.3969 118,160.9869 " fill="none" id="2-backto-1" style="stroke:#181818;stroke-width:1.0;"/><polygon fill="#181818" points="118,84.5469,114,93.5469,118,89.5469,122,93.5469,118,84.5469" style="stroke:#181818;stroke-width:1.0;"/><text fill="#000000" font-family="sans-serif" font-size="13" lengthAdjust="spacing" textLength="11" x="119" y="127.3638">=</text></g><!--link 1 to 3--><g id="link_1_3"><path d="M143.24,170.2269 C177.1,156.0469 239.47,132.2169 295.5,123.2969 C354.34,113.9269 420.31,143.1469 457.43,163.4569 " fill="none" id="1-to-3" style="stroke:#181818;stroke-width:1.0;"/><polygon fill="#181818" points="461.81,165.8869,455.8852,158.0195,457.4392,163.4587,452,165.0127,461.81,165.8869" style="stroke:#181818;stroke-width:1.0;"/><text fill="#000000" font-family="sans-serif" font-size="13" lengthAdjust="spacing" textLength="11" x="296.5" y="127.3638">&gt;</text></g><!--link 1 to 4--><g id="link_1_4"><path d="M143.07,181.2969 C162.22,181.2969 188.67,181.2969 208.95,181.2969 " fill="none" id="1-to-4" style="stroke:#181818;stroke-width:1.0;"/><polygon fill="#181818" points="213.96,181.2969,204.96,177.2969,208.96,181.2969,204.96,185.2969,213.96,181.2969" style="stroke:#181818;stroke-width:1.0;"/><text fill="#000000" font-family="sans-serif" font-size="13" lengthAdjust="spacing" textLength="34" x="161.5" y="174.3638">other</text></g><!--link 0 to 5--><g id="link_0_5"><path d="M143.24,298.2969 C156.15,298.2969 171.98,298.2969 185.57,298.2969 " fill="none" id="0-to-5" style="stroke:#181818;stroke-width:1.0;"/><polygon fill="#181818" points="190.85,298.2969,181.85,294.2969,185.85,298.2969,181.85,302.2969,190.85,298.2969" style="stroke:#181818;stroke-width:1.0;"/><text fill="#000000" font-family="sans-serif" font-size="13" lengthAdjust="spacing" textLength="11" x="161.5" y="291.3638">=</text></g><!--link 0 to 6--><g id="link_0_6"><path d="M118,318.5469 C118,338.1169 118,368.5069 118,389.7869 " fill="none" id="0-to-6" style="stroke:#181818;stroke-width:1.0;"/><polygon fill="#181818" points="118,394.9869,122,385.9869,118,389.9869,114,385.9869,118,394.9869" style="stroke:#181818;stroke-width:1.0;"/><text fill="#000000" font-family="sans-serif" font-size="13" lengthAdjust="spacing" textLength="11" x="119" y="361.3638">&gt;</text></g><!--link 6 to 7--><g id="link_6_7"><path d="M143.24,415.2969 C156.15,415.2969 171.98,415.2969 185.57,415.2969 " fill="none" id="6-to-7" style="stroke:#181818;stroke-width:1.0;"/><polygon fill="#181818" points="190.85,415.2969,181.85,411.2969,185.85,415.2969,181.85,419.2969,190.85,415.2969" style="stroke:#181818;stroke-width:1.0;"/><text fill="#000000" font-family="sans-serif" font-size="13" lengthAdjust="spacing" textLength="11" x="161.5" y="408.3638">=</text></g><!--link 6 to 8--><g id="link_6_8"><path d="M118,435.5469 C118,455.1169 118,485.5069 118,506.7869 " fill="none" id="6-to-8" style="stroke:#181818;stroke-width:1.0;"/><polygon fill="#181818" points="118,511.9869,122,502.9869,118,506.9869,114,502.9869,118,511.9869" style="stroke:#181818;stroke-width:1.0;"/><text fill="#000000" font-family="sans-serif" font-size="13" lengthAdjust="spacing" textLength="34" x="119" y="478.3638">other</text></g><!--SRC=[POynImCn5CVtzoaUdRHOQEtrUWJjLbn44Dp4uUX5BzXBGkuTugQeYt1Z5zsS1GUXctwRk_PZc5HFvJA5N_w__tj9VYcaZasSOQQacgL6PHp951n8q9pZ-gsitnTLkQWUxWoVAxrwkbyzBkkRs_N7Qrs-LC-V0Ab8EF9CqpKcF9yPeKae2N3QFSFU1FiCSueD0TY3E7Q2RWVZ78E6es-E0FhOAxIj31ZkmU07TXdkEp3Y8YNBGuQJ_nmmL9HouzhDtSXrB2VgIbeCNINyYySk3d_Zg9a0Kja7RInKvswpuLGOYLkRp-_WuNIxvGmzvyXp0d_EITiPUSxqkEsCFUV0snNvZjtr1G00]--></g></svg>