<?xml version="1.0" encoding="UTF-8" standalone="no"?><svg xmlns="http://www.w3.org/2000/svg" xmlns:xlink="http://www.w3.org/1999/xlink" contentScriptType="application/ecmascript" contentStyleType="text/css" height="527px" preserveAspectRatio="none" style="width:691px;height:527px;" version="1.1" viewBox="0 0 691 527" width="691px" zoomAndPan="magnify"><defs><filter height="300%" id="f1f09mw6sub9eo" width="300%" x="-1" y="-1"><feGaussianBlur result="blurOut" stdDeviation="2.0"/><feColorMatrix in="blurOut" result="blurOut2" type="matrix" values="0 0 0 0 0 0 0 0 0 0 0 0 0 0 0 0 0 0 .4 0"/><feOffset dx="4.0" dy="4.0" in="blurOut2" result="blurOut3"/><feBlend in="SourceGraphic" in2="blurOut3" mode="normal"/></filter></defs><g><ellipse cx="16" cy="262" fill="#000000" filter="url(#f1f09mw6sub9eo)" rx="10" ry="10" style="stroke: none; stroke-width: 1.0;"/><rect fill="#FEFECE" filter="url(#f1f09mw6sub9eo)" height="40" rx="12.5" ry="12.5" style="stroke: #A80036; stroke-width: 1.5;" width="50" x="93" y="242"/><text fill="#000000" font-family="sans-serif" font-size="14" lengthAdjust="spacingAndGlyphs" textLength="9" x="113.5" y="266.8467">0</text><rect fill="#FEFECE" filter="url(#f1f09mw6sub9eo)" height="40" rx="12.5" ry="12.5" style="stroke: #A80036; stroke-width: 1.5;" width="50" x="214" y="125"/><text fill="#000000" font-family="sans-serif" font-size="14" lengthAdjust="spacingAndGlyphs" textLength="16" x="231" y="149.8467">4*</text><rect fill="#FEFECE" filter="url(#f1f09mw6sub9eo)" height="40" rx="12.5" ry="12.5" style="stroke: #A80036; stroke-width: 1.5;" width="50" x="93" y="476"/><text fill="#000000" font-family="sans-serif" font-size="14" lengthAdjust="spacingAndGlyphs" textLength="16" x="110" y="500.8467">8*</text><rect fill="#FEFECE" filter="url(#f1f09mw6sub9eo)" height="40" rx="12.5" ry="12.5" style="stroke: #A80036; stroke-width: 1.5;" width="50" x="93" y="125"/><text fill="#000000" font-family="sans-serif" font-size="14" lengthAdjust="spacingAndGlyphs" textLength="9" x="113.5" y="149.8467">1</text><rect fill="#FEFECE" filter="url(#f1f09mw6sub9eo)" height="40" rx="12.5" ry="12.5" style="stroke: #A80036; stroke-width: 1.5;" width="50" x="93" y="8"/><text fill="#000000" font-family="sans-serif" font-size="14" lengthAdjust="spacingAndGlyphs" textLength="9" x="113.5" y="32.8467">2</text><rect fill="#FEFECE" filter="url(#f1f09mw6sub9eo)" height="40" rx="12.5" ry="12.5" style="stroke: #A80036; stroke-width: 1.5;" width="50" x="462" y="125"/><text fill="#000000" font-family="sans-serif" font-size="14" lengthAdjust="spacingAndGlyphs" textLength="9" x="482.5" y="149.8467">3</text><rect fill="#FEFECE" filter="url(#f1f09mw6sub9eo)" height="40" rx="12.5" ry="12.5" style="stroke: #A80036; stroke-width: 1.5;" width="50" x="191" y="242"/><text fill="#000000" font-family="sans-serif" font-size="14" lengthAdjust="spacingAndGlyphs" textLength="9" x="211.5" y="266.8467">5</text><rect fill="#FEFECE" filter="url(#f1f09mw6sub9eo)" height="40" rx="12.5" ry="12.5" style="stroke: #A80036; stroke-width: 1.5;" width="50" x="93" y="359"/><text fill="#000000" font-family="sans-serif" font-size="14" lengthAdjust="spacingAndGlyphs" textLength="9" x="113.5" y="383.8467">6</text><rect fill="#FEFECE" filter="url(#f1f09mw6sub9eo)" height="40" rx="12.5" ry="12.5" style="stroke: #A80036; stroke-width: 1.5;" width="50" x="191" y="359"/><text fill="#000000" font-family="sans-serif" font-size="14" lengthAdjust="spacingAndGlyphs" textLength="9" x="211.5" y="383.8467">7</text><path d="M178.5,15.5 L178.5,24 L143.39,28 L178.5,32 L178.5,40.6328 A0,0 0 0 0 178.5,40.6328 L307.5,40.6328 A0,0 0 0 0 307.5,40.6328 L307.5,25.5 L297.5,15.5 L178.5,15.5 A0,0 0 0 0 178.5,15.5 " fill="#FBFB77" filter="url(#f1f09mw6sub9eo)" style="stroke: #A80036; stroke-width: 1.0;"/><path d="M297.5,15.5 L297.5,25.5 L307.5,25.5 L297.5,15.5 " fill="#FBFB77" style="stroke: #A80036; stroke-width: 1.0;"/><text fill="#000000" font-family="sans-serif" font-size="13" lengthAdjust="spacingAndGlyphs" textLength="108" x="184.5" y="32.5669">return (relop, LE)</text><path d="M547,132.5 L547,141 L512.1,145 L547,149 L547,157.6328 A0,0 0 0 0 547,157.6328 L679,157.6328 A0,0 0 0 0 679,157.6328 L679,142.5 L669,132.5 L547,132.5 A0,0 0 0 0 547,132.5 " fill="#FBFB77" filter="url(#f1f09mw6sub9eo)" style="stroke: #A80036; stroke-width: 1.0;"/><path d="M669,132.5 L669,142.5 L679,142.5 L669,132.5 " fill="#FBFB77" style="stroke: #A80036; stroke-width: 1.0;"/><text fill="#000000" font-family="sans-serif" font-size="13" lengthAdjust="spacingAndGlyphs" textLength="111" x="553" y="149.5669">return (relop, NE)</text><path d="M299,132.5 L299,141 L264.19,145 L299,149 L299,157.6328 A0,0 0 0 0 299,157.6328 L427,157.6328 A0,0 0 0 0 427,157.6328 L427,142.5 L417,132.5 L299,132.5 A0,0 0 0 0 299,132.5 " fill="#FBFB77" filter="url(#f1f09mw6sub9eo)" style="stroke: #A80036; stroke-width: 1.0;"/><path d="M417,132.5 L417,142.5 L427,142.5 L417,132.5 " fill="#FBFB77" style="stroke: #A80036; stroke-width: 1.0;"/><text fill="#000000" font-family="sans-serif" font-size="13" lengthAdjust="spacingAndGlyphs" textLength="107" x="305" y="149.5669">return (relop, LT)</text><path d="M276,249.5 L276,258 L241.1,262 L276,266 L276,274.6328 A0,0 0 0 0 276,274.6328 L408,274.6328 A0,0 0 0 0 408,274.6328 L408,259.5 L398,249.5 L276,249.5 A0,0 0 0 0 276,249.5 " fill="#FBFB77" filter="url(#f1f09mw6sub9eo)" style="stroke: #A80036; stroke-width: 1.0;"/><path d="M398,249.5 L398,259.5 L408,259.5 L398,249.5 " fill="#FBFB77" style="stroke: #A80036; stroke-width: 1.0;"/><text fill="#000000" font-family="sans-serif" font-size="13" lengthAdjust="spacingAndGlyphs" textLength="111" x="282" y="266.5669">return (relop, EQ)</text><path d="M276,366.5 L276,375 L241.1,379 L276,383 L276,391.6328 A0,0 0 0 0 276,391.6328 L408,391.6328 A0,0 0 0 0 408,391.6328 L408,376.5 L398,366.5 L276,366.5 A0,0 0 0 0 276,366.5 " fill="#FBFB77" filter="url(#f1f09mw6sub9eo)" style="stroke: #A80036; stroke-width: 1.0;"/><path d="M398,366.5 L398,376.5 L408,376.5 L398,366.5 " fill="#FBFB77" style="stroke: #A80036; stroke-width: 1.0;"/><text fill="#000000" font-family="sans-serif" font-size="13" lengthAdjust="spacingAndGlyphs" textLength="111" x="282" y="383.5669">return (relop, GE)</text><path d="M178.5,483.5 L178.5,492 L143.1,496 L178.5,500 L178.5,508.6328 A0,0 0 0 0 178.5,508.6328 L309.5,508.6328 A0,0 0 0 0 309.5,508.6328 L309.5,493.5 L299.5,483.5 L178.5,483.5 A0,0 0 0 0 178.5,483.5 " fill="#FBFB77" filter="url(#f1f09mw6sub9eo)" style="stroke: #A80036; stroke-width: 1.0;"/><path d="M299.5,483.5 L299.5,493.5 L309.5,493.5 L299.5,483.5 " fill="#FBFB77" style="stroke: #A80036; stroke-width: 1.0;"/><text fill="#000000" font-family="sans-serif" font-size="13" lengthAdjust="spacingAndGlyphs" textLength="110" x="184.5" y="500.5669">return (relop, GT)</text><!--MD5=[7766b8d0521aa09e0b5f6e1649ae45e7]
link *start to 0--><path d="M26.15,262 C40.37,262 66.8,262 87.67,262 " fill="none" id="*start-&gt;0" style="stroke: #A80036; stroke-width: 1.0;"/><polygon fill="#A80036" points="92.85,262,83.85,258,87.85,262,83.85,266,92.85,262" style="stroke: #A80036; stroke-width: 1.0;"/><text fill="#000000" font-family="sans-serif" font-size="13" lengthAdjust="spacingAndGlyphs" textLength="30" x="44.5" y="255.0669">start</text><!--MD5=[d310cc16938962836a1ee110921ed263]
reverse link 1 to 0--><path d="M118,170.44 C118,191.71 118,222.1 118,241.69 " fill="none" id="1&lt;-0" style="stroke: #A80036; stroke-width: 1.0;"/><polygon fill="#A80036" points="118,165.25,114,174.25,118,170.25,122,174.25,118,165.25" style="stroke: #A80036; stroke-width: 1.0;"/><text fill="#000000" font-family="sans-serif" font-size="13" lengthAdjust="spacingAndGlyphs" textLength="11" x="119" y="208.0669">&lt;</text><!--MD5=[33ed49aa3311b135d2192157c3ea4eb7]
reverse link 2 to 1--><path d="M118,53.44 C118,74.71 118,105.1 118,124.69 " fill="none" id="2&lt;-1" style="stroke: #A80036; stroke-width: 1.0;"/><polygon fill="#A80036" points="118,48.25,114,57.25,118,53.25,122,57.25,118,48.25" style="stroke: #A80036; stroke-width: 1.0;"/><text fill="#000000" font-family="sans-serif" font-size="13" lengthAdjust="spacingAndGlyphs" textLength="11" x="119" y="91.0669">=</text><!--MD5=[2d4b753efd65b00afdf467246674cbe5]
link 1 to 3--><path d="M143.24,133.93 C177.1,119.75 239.47,95.92 295.5,87 C354.34,77.63 420.31,106.85 457.43,127.16 " fill="none" id="1-&gt;3" style="stroke: #A80036; stroke-width: 1.0;"/><polygon fill="#A80036" points="461.81,129.59,455.8852,121.7226,457.4392,127.1618,452,128.7158,461.81,129.59" style="stroke: #A80036; stroke-width: 1.0;"/><text fill="#000000" font-family="sans-serif" font-size="13" lengthAdjust="spacingAndGlyphs" textLength="11" x="296.5" y="91.0669">&gt;</text><!--MD5=[a94a78a4bcab98299a720253a19623a8]
link 1 to 4--><path d="M143.07,145 C162.22,145 188.67,145 208.95,145 " fill="none" id="1-&gt;4" style="stroke: #A80036; stroke-width: 1.0;"/><polygon fill="#A80036" points="213.96,145,204.96,141,208.96,145,204.96,149,213.96,145" style="stroke: #A80036; stroke-width: 1.0;"/><text fill="#000000" font-family="sans-serif" font-size="13" lengthAdjust="spacingAndGlyphs" textLength="34" x="161.5" y="138.0669">other</text><!--MD5=[828eee10fbcc1ac0931785059decc0af]
link 0 to 5--><path d="M143.24,262 C156.15,262 171.98,262 185.57,262 " fill="none" id="0-&gt;5" style="stroke: #A80036; stroke-width: 1.0;"/><polygon fill="#A80036" points="190.85,262,181.85,258,185.85,262,181.85,266,190.85,262" style="stroke: #A80036; stroke-width: 1.0;"/><text fill="#000000" font-family="sans-serif" font-size="13" lengthAdjust="spacingAndGlyphs" textLength="11" x="161.5" y="255.0669">=</text><!--MD5=[1d17b108804246bb7c49ad6f40c77db3]
link 0 to 6--><path d="M118,282.25 C118,301.82 118,332.21 118,353.49 " fill="none" id="0-&gt;6" style="stroke: #A80036; stroke-width: 1.0;"/><polygon fill="#A80036" points="118,358.69,122,349.69,118,353.69,114,349.69,118,358.69" style="stroke: #A80036; stroke-width: 1.0;"/><text fill="#000000" font-family="sans-serif" font-size="13" lengthAdjust="spacingAndGlyphs" textLength="11" x="119" y="325.0669">&gt;</text><!--MD5=[2dfa168d6698efd82f568a8036f37f42]
link 6 to 7--><path d="M143.24,379 C156.15,379 171.98,379 185.57,379 " fill="none" id="6-&gt;7" style="stroke: #A80036; stroke-width: 1.0;"/><polygon fill="#A80036" points="190.85,379,181.85,375,185.85,379,181.85,383,190.85,379" style="stroke: #A80036; stroke-width: 1.0;"/><text fill="#000000" font-family="sans-serif" font-size="13" lengthAdjust="spacingAndGlyphs" textLength="11" x="161.5" y="372.0669">=</text><!--MD5=[bcb90f14dd6207bfac8bacdc809e2579]
link 6 to 8--><path d="M118,399.25 C118,418.82 118,449.21 118,470.49 " fill="none" id="6-&gt;8" style="stroke: #A80036; stroke-width: 1.0;"/><polygon fill="#A80036" points="118,475.69,122,466.69,118,470.69,114,466.69,118,475.69" style="stroke: #A80036; stroke-width: 1.0;"/><text fill="#000000" font-family="sans-serif" font-size="13" lengthAdjust="spacingAndGlyphs" textLength="34" x="119" y="442.0669">other</text><!--MD5=[08783ab1848a6f2d0e5b7d694f756193]
@startuml

hide empty description



[*] -> 0: start

state "4*" as 4
state "8*" as 8

0 -up-> 1: <
1 -up-> 2: =
1 -right-> 3: >
1 -right-> 4: other
0 -right-> 5: =
0 -down-> 6: >
6 -right-> 7: =
6 -down-> 8: other

note right of 2: return (relop, LE)
note right of 3: return (relop, NE)
note right of 4: return (relop, LT)
note right of 5: return (relop, EQ)
note right of 7: return (relop, GE)
note right of 8: return (relop, GT)

@enduml

PlantUML version 1.2020.02(Sun Mar 01 10:22:07 UTC 2020)
(GPL source distribution)
Java Runtime: OpenJDK Runtime Environment
JVM: OpenJDK 64-Bit Server VM
Java Version: 19.0.2+7-Ubuntu-0ubuntu322.04
Operating System: Linux
Default Encoding: UTF-8
Language: en
Country: US
--></g></svg>