<?xml version="1.0" encoding="us-ascii" standalone="no"?><svg xmlns="http://www.w3.org/2000/svg" xmlns:xlink="http://www.w3.org/1999/xlink" contentStyleType="text/css" height="254px" preserveAspectRatio="none" style="width:1131px;height:254px;background:#FFFFFF;" version="1.1" viewBox="0 0 1131 254" width="1131px" zoomAndPan="magnify"><defs/><g><text fill="#000000" font-family="sans-serif" font-size="14" font-weight="bold" lengthAdjust="spacing" textLength="158.8125" x="479.0938" y="22.9951">&#26080;&#31526;&#21495;&#25968;&#23383;&#30340;&#29366;&#24577;&#36716;&#25442;&#22270;</text><rect fill="#F1F1F1" height="40" rx="12.5" ry="12.5" style="stroke:#181818;stroke-width:0.5;" width="50" x="1075" y="91.2069"/><text fill="#000000" font-family="sans-serif" font-size="14" lengthAdjust="spacing" textLength="25" x="1087.5" y="116.0536">19*</text><rect fill="#F1F1F1" height="40" rx="12.5" ry="12.5" style="stroke:#181818;stroke-width:0.5;" width="50" x="207" y="208.2069"/><text fill="#000000" font-family="sans-serif" font-size="14" lengthAdjust="spacing" textLength="25" x="219.5" y="233.0536">20*</text><rect fill="#F1F1F1" height="40" rx="12.5" ry="12.5" style="stroke:#181818;stroke-width:0.5;" width="50" x="497" y="208.2069"/><text fill="#000000" font-family="sans-serif" font-size="14" lengthAdjust="spacing" textLength="25" x="509.5" y="233.0536">21*</text><ellipse cx="16" cy="111.2069" fill="#181818" rx="10" ry="10" style="stroke:none;stroke-width:1.0;"/><rect fill="#F1F1F1" height="40" rx="12.5" ry="12.5" style="stroke:#181818;stroke-width:0.5;" width="50" x="93" y="91.2069"/><text fill="#000000" font-family="sans-serif" font-size="14" lengthAdjust="spacing" textLength="18" x="109" y="116.0536">12</text><rect fill="#F1F1F1" height="40" rx="12.5" ry="12.5" style="stroke:#181818;stroke-width:0.5;" width="50" x="207" y="91.2069"/><text fill="#000000" font-family="sans-serif" font-size="14" lengthAdjust="spacing" textLength="18" x="223" y="116.0536">13</text><rect fill="#F1F1F1" height="40" rx="12.5" ry="12.5" style="stroke:#181818;stroke-width:0.5;" width="50" x="383" y="91.2069"/><text fill="#000000" font-family="sans-serif" font-size="14" lengthAdjust="spacing" textLength="18" x="399" y="116.0536">14</text><rect fill="#F1F1F1" height="40" rx="12.5" ry="12.5" style="stroke:#181818;stroke-width:0.5;" width="50" x="649" y="91.2069"/><text fill="#000000" font-family="sans-serif" font-size="14" lengthAdjust="spacing" textLength="18" x="665" y="116.0536">16</text><rect fill="#F1F1F1" height="40" rx="12.5" ry="12.5" style="stroke:#181818;stroke-width:0.5;" width="50" x="497" y="91.2069"/><text fill="#000000" font-family="sans-serif" font-size="14" lengthAdjust="spacing" textLength="18" x="513" y="116.0536">15</text><rect fill="#F1F1F1" height="40" rx="12.5" ry="12.5" style="stroke:#181818;stroke-width:0.5;" width="50" x="783" y="91.2069"/><text fill="#000000" font-family="sans-serif" font-size="14" lengthAdjust="spacing" textLength="18" x="799" y="116.0536">17</text><rect fill="#F1F1F1" height="40" rx="12.5" ry="12.5" style="stroke:#181818;stroke-width:0.5;" width="50" x="897" y="91.2069"/><text fill="#000000" font-family="sans-serif" font-size="14" lengthAdjust="spacing" textLength="18" x="913" y="116.0536">18</text><!--link *start* to 12--><g id="link_*start*_12"><path d="M26.15,111.2069 C40.37,111.2069 66.8,111.2069 87.67,111.2069 " fill="none" id="*start*-to-12" style="stroke:#181818;stroke-width:1.0;"/><polygon fill="#181818" points="92.85,111.2069,83.85,107.2069,87.85,111.2069,83.85,115.2069,92.85,111.2069" style="stroke:#181818;stroke-width:1.0;"/><text fill="#000000" font-family="sans-serif" font-size="13" lengthAdjust="spacing" textLength="30" x="44.5" y="104.2738">start</text></g><!--link 12 to 13--><g id="link_12_13"><path d="M143.02,111.2069 C160.27,111.2069 183.31,111.2069 201.62,111.2069 " fill="none" id="12-to-13" style="stroke:#181818;stroke-width:1.0;"/><polygon fill="#181818" points="206.65,111.2069,197.65,107.2069,201.65,111.2069,197.65,115.2069,206.65,111.2069" style="stroke:#181818;stroke-width:1.0;"/><text fill="#000000" font-family="sans-serif" font-size="13" lengthAdjust="spacing" textLength="27" x="161.5" y="104.2738">digit</text></g><!--link 13 to 13--><g id="link_13_13"><path d="M257.28,101.3969 C274.77,98.4169 292,101.6869 292,111.2069 C292,119.7569 278.09,123.2669 262.58,121.7369 " fill="none" id="13-to-13" style="stroke:#181818;stroke-width:1.0;"/><polygon fill="#181818" points="257.28,121.0169,265.6617,126.1887,262.2348,121.688,266.7354,118.2611,257.28,121.0169" style="stroke:#181818;stroke-width:1.0;"/><text fill="#000000" font-family="sans-serif" font-size="13" lengthAdjust="spacing" textLength="27" x="298" y="115.7738">digit</text></g><!--link 13 to 14--><g id="link_13_14"><path d="M257.22,111.2069 C288.98,111.2069 343.5,111.2069 377.55,111.2069 " fill="none" id="13-to-14" style="stroke:#181818;stroke-width:1.0;"/><polygon fill="#181818" points="382.83,111.2069,373.83,107.2069,377.83,111.2069,373.83,115.2069,382.83,111.2069" style="stroke:#181818;stroke-width:1.0;"/><text fill="#000000" font-family="sans-serif" font-size="13" lengthAdjust="spacing" textLength="32" x="304" y="104.2738">point</text></g><!--link 13 to 20--><g id="link_13_20"><path d="M232,131.4569 C232,151.0269 232,181.4169 232,202.6969 " fill="none" id="13-to-20" style="stroke:#181818;stroke-width:1.0;"/><polygon fill="#181818" points="232,207.8969,236,198.8969,232,202.8969,228,198.8969,232,207.8969" style="stroke:#181818;stroke-width:1.0;"/><text fill="#000000" font-family="sans-serif" font-size="13" lengthAdjust="spacing" textLength="34" x="233" y="174.2738">other</text></g><!--link 13 to 16--><g id="link_13_16"><path d="M257.16,102.1269 C297.01,88.2869 377.36,62.5269 448,53.2069 C519.88,43.7269 601.72,75.8469 644.46,96.0369 " fill="none" id="13-to-16" style="stroke:#181818;stroke-width:1.0;"/><polygon fill="#181818" points="648.97,98.1969,642.5833,90.6995,644.4613,96.0355,639.1252,97.9135,648.97,98.1969" style="stroke:#181818;stroke-width:1.0;"/><text fill="#000000" font-family="sans-serif" font-size="13" lengthAdjust="spacing" textLength="8" x="449" y="57.2738">E</text></g><!--link 14 to 15--><g id="link_14_15"><path d="M433.02,111.2069 C450.27,111.2069 473.31,111.2069 491.62,111.2069 " fill="none" id="14-to-15" style="stroke:#181818;stroke-width:1.0;"/><polygon fill="#181818" points="496.65,111.2069,487.65,107.2069,491.65,111.2069,487.65,115.2069,496.65,111.2069" style="stroke:#181818;stroke-width:1.0;"/><text fill="#000000" font-family="sans-serif" font-size="13" lengthAdjust="spacing" textLength="27" x="451.5" y="104.2738">digit</text></g><!--link 15 to 15--><g id="link_15_15"><path d="M547.28,101.3969 C564.77,98.4169 582,101.6869 582,111.2069 C582,119.7569 568.09,123.2669 552.58,121.7369 " fill="none" id="15-to-15" style="stroke:#181818;stroke-width:1.0;"/><polygon fill="#181818" points="547.28,121.0169,555.6617,126.1887,552.2348,121.688,556.7354,118.2611,547.28,121.0169" style="stroke:#181818;stroke-width:1.0;"/><text fill="#000000" font-family="sans-serif" font-size="13" lengthAdjust="spacing" textLength="27" x="588" y="115.7738">digit</text></g><!--link 15 to 16--><g id="link_15_16"><path d="M547.1,111.2069 C573.61,111.2069 615.42,111.2069 643.74,111.2069 " fill="none" id="15-to-16" style="stroke:#181818;stroke-width:1.0;"/><polygon fill="#181818" points="648.86,111.2069,639.86,107.2069,643.86,111.2069,639.86,115.2069,648.86,111.2069" style="stroke:#181818;stroke-width:1.0;"/><text fill="#000000" font-family="sans-serif" font-size="13" lengthAdjust="spacing" textLength="8" x="594" y="104.2738">E</text></g><!--link 15 to 21--><g id="link_15_21"><path d="M522,131.4569 C522,151.0269 522,181.4169 522,202.6969 " fill="none" id="15-to-21" style="stroke:#181818;stroke-width:1.0;"/><polygon fill="#181818" points="522,207.8969,526,198.8969,522,202.8969,518,198.8969,522,207.8969" style="stroke:#181818;stroke-width:1.0;"/><text fill="#000000" font-family="sans-serif" font-size="13" lengthAdjust="spacing" textLength="34" x="523" y="174.2738">other</text></g><!--link 16 to 17--><g id="link_16_17"><path d="M699.2,111.2069 C721.48,111.2069 754.01,111.2069 777.69,111.2069 " fill="none" id="16-to-17" style="stroke:#181818;stroke-width:1.0;"/><polygon fill="#181818" points="782.91,111.2069,773.91,107.2069,777.91,111.2069,773.91,115.2069,782.91,111.2069" style="stroke:#181818;stroke-width:1.0;"/><text fill="#000000" font-family="sans-serif" font-size="13" lengthAdjust="spacing" textLength="47" x="717.5" y="104.2738">"+ or -"</text></g><!--link 16 to 18--><g id="link_16_18"><path d="M699.09,93.3269 C720.4,79.3169 752.39,60.9369 783.5,53.2069 C823.36,43.2969 866.63,67.5669 894,87.6869 " fill="none" id="16-to-18" style="stroke:#181818;stroke-width:1.0;"/><polygon fill="#181818" points="898.25,90.8769,893.45,82.2769,894.25,87.8769,888.65,88.6769,898.25,90.8769" style="stroke:#181818;stroke-width:1.0;"/><text fill="#000000" font-family="sans-serif" font-size="13" lengthAdjust="spacing" textLength="27" x="784.5" y="57.2738">digit</text></g><!--link 17 to 18--><g id="link_17_18"><path d="M833.02,111.2069 C850.27,111.2069 873.31,111.2069 891.62,111.2069 " fill="none" id="17-to-18" style="stroke:#181818;stroke-width:1.0;"/><polygon fill="#181818" points="896.65,111.2069,887.65,107.2069,891.65,111.2069,887.65,115.2069,896.65,111.2069" style="stroke:#181818;stroke-width:1.0;"/><text fill="#000000" font-family="sans-serif" font-size="13" lengthAdjust="spacing" textLength="27" x="851.5" y="104.2738">digit</text></g><!--link 18 to 18--><g id="link_18_18"><path d="M947.28,101.3969 C964.77,98.4169 982,101.6869 982,111.2069 C982,119.7569 968.09,123.2669 952.58,121.7369 " fill="none" id="18-to-18" style="stroke:#181818;stroke-width:1.0;"/><polygon fill="#181818" points="947.28,121.0169,955.6617,126.1887,952.2348,121.688,956.7354,118.2611,947.28,121.0169" style="stroke:#181818;stroke-width:1.0;"/><text fill="#000000" font-family="sans-serif" font-size="13" lengthAdjust="spacing" textLength="27" x="988" y="115.7738">digit</text></g><!--link 18 to 19--><g id="link_18_19"><path d="M947.13,111.2069 C979.24,111.2069 1034.79,111.2069 1069.35,111.2069 " fill="none" id="18-to-19" style="stroke:#181818;stroke-width:1.0;"/><polygon fill="#181818" points="1074.71,111.2069,1065.71,107.2069,1069.71,111.2069,1065.71,115.2069,1074.71,111.2069" style="stroke:#181818;stroke-width:1.0;"/><text fill="#000000" font-family="sans-serif" font-size="13" lengthAdjust="spacing" textLength="34" x="994" y="104.2738">other</text></g><!--SRC=[ROonIiDG58RtynG_6Ik5tDkcRUxWvbE8GsWkpKMJ6swEWvk2ao1EKj15EdHgmKadVPiaFeOXCHaas_c-_pz_SMcoF79HYjHcTfqucsgmkzR4XgyqgkrRVTYNJv_LytjvtDOlz_N3HtLxz_Drg1vtvUitKM9Y3PtcV8DO5sjdSZOs8oeuOWrFX1CFKG4HebVIxvJq1oF-Z20wdrnWUWeX5PhKCGdPyamXDXlJy6oKvmgvDLd7ZP2-WkL4kxwmK3WZCM_lO7WEHhdh1jsG68OMRRXKy4vW7QPUhrR3__8VhqOvx2Vf5m00]--></g></svg>