<?xml version="1.0" encoding="UTF-8" standalone="no"?><svg xmlns="http://www.w3.org/2000/svg" xmlns:xlink="http://www.w3.org/1999/xlink" contentScriptType="application/ecmascript" contentStyleType="text/css" height="196px" preserveAspectRatio="none" style="width:522px;height:196px;" version="1.1" viewBox="0 0 522 196" width="522px" zoomAndPan="magnify"><defs><filter height="300%" id="f1bv2bs1ro1or8" width="300%" x="-1" y="-1"><feGaussianBlur result="blurOut" stdDeviation="2.0"/><feColorMatrix in="blurOut" result="blurOut2" type="matrix" values="0 0 0 0 0 0 0 0 0 0 0 0 0 0 0 0 0 0 .4 0"/><feOffset dx="4.0" dy="4.0" in="blurOut2" result="blurOut3"/><feBlend in="SourceGraphic" in2="blurOut3" mode="normal"/></filter></defs><g><text fill="#000000" font-family="sans-serif" font-size="18" lengthAdjust="spacingAndGlyphs" textLength="126" x="201.5" y="16.708">id和关键字的状态转换图</text><rect fill="#FEFECE" filter="url(#f1bv2bs1ro1or8)" height="40" rx="12.5" ry="12.5" style="stroke: #A80036; stroke-width: 1.5;" width="50" x="214" y="145.9531"/><text fill="#000000" font-family="sans-serif" font-size="14" lengthAdjust="spacingAndGlyphs" textLength="25" x="226.5" y="170.7998">11*</text><ellipse cx="16" cy="48.9531" fill="#000000" filter="url(#f1bv2bs1ro1or8)" rx="10" ry="10" style="stroke: none; stroke-width: 1.0;"/><rect fill="#FEFECE" filter="url(#f1bv2bs1ro1or8)" height="40" rx="12.5" ry="12.5" style="stroke: #A80036; stroke-width: 1.5;" width="50" x="93" y="28.9531"/><text fill="#000000" font-family="sans-serif" font-size="14" lengthAdjust="spacingAndGlyphs" textLength="9" x="113.5" y="53.7998">9</text><rect fill="#FEFECE" filter="url(#f1bv2bs1ro1or8)" height="40" rx="12.5" ry="12.5" style="stroke: #A80036; stroke-width: 1.5;" width="50" x="214" y="28.9531"/><text fill="#000000" font-family="sans-serif" font-size="14" lengthAdjust="spacingAndGlyphs" textLength="18" x="230" y="53.7998">10</text><path d="M299.5,153.4531 L299.5,161.9531 L264.29,165.9531 L299.5,169.9531 L299.5,178.5859 A0,0 0 0 0 299.5,178.5859 L510.5,178.5859 A0,0 0 0 0 510.5,178.5859 L510.5,163.4531 L500.5,153.4531 L299.5,153.4531 A0,0 0 0 0 299.5,153.4531 " fill="#FBFB77" filter="url(#f1bv2bs1ro1or8)" style="stroke: #A80036; stroke-width: 1.0;"/><path d="M500.5,153.4531 L500.5,163.4531 L510.5,163.4531 L500.5,153.4531 " fill="#FBFB77" style="stroke: #A80036; stroke-width: 1.0;"/><text fill="#000000" font-family="sans-serif" font-size="13" lengthAdjust="spacingAndGlyphs" textLength="190" x="305.5" y="170.52">return (getToken(), installID())</text><!--MD5=[de8be3c792da875d4554ae87cddb2b12]
link *start to 9--><path d="M26.15,48.9531 C40.37,48.9531 66.8,48.9531 87.67,48.9531 " fill="none" id="*start-&gt;9" style="stroke: #A80036; stroke-width: 1.0;"/><polygon fill="#A80036" points="92.85,48.9531,83.85,44.9531,87.85,48.9531,83.85,52.9531,92.85,48.9531" style="stroke: #A80036; stroke-width: 1.0;"/><text fill="#000000" font-family="sans-serif" font-size="13" lengthAdjust="spacingAndGlyphs" textLength="30" x="44.5" y="42.02">start</text><!--MD5=[d626a4137f042c9ed96693ba98ea08de]
link 9 to 10--><path d="M143.07,48.9531 C162.22,48.9531 188.67,48.9531 208.95,48.9531 " fill="none" id="9-&gt;10" style="stroke: #A80036; stroke-width: 1.0;"/><polygon fill="#A80036" points="213.96,48.9531,204.96,44.9531,208.96,48.9531,204.96,52.9531,213.96,48.9531" style="stroke: #A80036; stroke-width: 1.0;"/><text fill="#000000" font-family="sans-serif" font-size="13" lengthAdjust="spacingAndGlyphs" textLength="34" x="161.5" y="42.02">letter</text><!--MD5=[401811cf5a8eb25bb30072bd8f1d82d1]
reverse link 10 to 10--><path d="M269.58,38.4231 C285.09,36.8931 299,40.4031 299,48.9531 C299,58.4731 281.77,61.7431 264.28,58.7631 " fill="none" id="10&lt;-10" style="stroke: #A80036; stroke-width: 1.0;"/><polygon fill="#A80036" points="264.28,39.1431,273.7354,41.8989,269.2348,38.472,272.6617,33.9713,264.28,39.1431" style="stroke: #A80036; stroke-width: 1.0;"/><text fill="#000000" font-family="sans-serif" font-size="13" lengthAdjust="spacingAndGlyphs" textLength="82" x="305" y="53.52">letter or digit</text><!--MD5=[ec143eb54b8ec3c64add95129ee53470]
link 10 to 11--><path d="M239,69.2031 C239,88.7731 239,119.1631 239,140.4431 " fill="none" id="10-&gt;11" style="stroke: #A80036; stroke-width: 1.0;"/><polygon fill="#A80036" points="239,145.6431,243,136.6431,239,140.6431,235,136.6431,239,145.6431" style="stroke: #A80036; stroke-width: 1.0;"/><text fill="#000000" font-family="sans-serif" font-size="13" lengthAdjust="spacingAndGlyphs" textLength="34" x="240" y="112.02">other</text><!--MD5=[4d58653428fe3e217a44dc97692aff8a]
@startuml

title id和关键字的状态转换图

hide empty description

state "11*" as 11

[*] -> 9: start
9 -> 10: letter
10 -up-> 10: letter or digit
10 -down-> 11: other

note right of 11: return (getToken(), installID())

@enduml

PlantUML version 1.2020.02(Sun Mar 01 10:22:07 UTC 2020)
(GPL source distribution)
Java Runtime: OpenJDK Runtime Environment
JVM: OpenJDK 64-Bit Server VM
Java Version: 19.0.2+7-Ubuntu-0ubuntu322.04
Operating System: Linux
Default Encoding: UTF-8
Language: en
Country: US
--></g></svg>