<?xml version="1.0" encoding="UTF-8" standalone="no"?><svg xmlns="http://www.w3.org/2000/svg" xmlns:xlink="http://www.w3.org/1999/xlink" contentScriptType="application/ecmascript" contentStyleType="text/css" height="79px" preserveAspectRatio="none" style="width:462px;height:79px;" version="1.1" viewBox="0 0 462 79" width="462px" zoomAndPan="magnify"><defs><filter height="300%" id="f54ul4bj2yq21" width="300%" x="-1" y="-1"><feGaussianBlur result="blurOut" stdDeviation="2.0"/><feColorMatrix in="blurOut" result="blurOut2" type="matrix" values="0 0 0 0 0 0 0 0 0 0 0 0 0 0 0 0 0 0 .4 0"/><feOffset dx="4.0" dy="4.0" in="blurOut2" result="blurOut3"/><feBlend in="SourceGraphic" in2="blurOut3" mode="normal"/></filter></defs><g><text fill="#000000" font-family="sans-serif" font-size="18" lengthAdjust="spacingAndGlyphs" textLength="99" x="185" y="16.708">空白符的状态转换图</text><rect fill="#F8F8F8" filter="url(#f54ul4bj2yq21)" height="40" rx="12.5" ry="12.5" style="stroke: #383838; stroke-width: 1.5;" width="50" x="401" y="28.9531"/><text fill="#000000" font-family="sans-serif" font-size="14" lengthAdjust="spacingAndGlyphs" textLength="25" x="413.5" y="53.7998">24*</text><ellipse cx="16" cy="48.9531" fill="#000000" filter="url(#f54ul4bj2yq21)" rx="10" ry="10" style="stroke: none; stroke-width: 1.0;"/><rect fill="#F8F8F8" filter="url(#f54ul4bj2yq21)" height="40" rx="12.5" ry="12.5" style="stroke: #383838; stroke-width: 1.5;" width="50" x="93" y="28.9531"/><text fill="#000000" font-family="sans-serif" font-size="14" lengthAdjust="spacingAndGlyphs" textLength="18" x="109" y="53.7998">22</text><rect fill="#F8F8F8" filter="url(#f54ul4bj2yq21)" height="40" rx="12.5" ry="12.5" style="stroke: #383838; stroke-width: 1.5;" width="50" x="215" y="28.9531"/><text fill="#000000" font-family="sans-serif" font-size="14" lengthAdjust="spacingAndGlyphs" textLength="18" x="231" y="53.7998">23</text><!--MD5=[d67abf0bab84a193ccdad007befa9ce1]
link *start to 22--><path d="M26.15,48.9531 C40.37,48.9531 66.8,48.9531 87.67,48.9531 " fill="none" id="*start-&gt;22" style="stroke: #383838; stroke-width: 1.0;"/><polygon fill="#383838" points="92.85,48.9531,83.85,44.9531,87.85,48.9531,83.85,52.9531,92.85,48.9531" style="stroke: #383838; stroke-width: 1.0;"/><text fill="#000000" font-family="sans-serif" font-size="13" lengthAdjust="spacingAndGlyphs" textLength="30" x="44.5" y="42.02">start</text><!--MD5=[39b157e93396464e046a0700ff4ab03e]
link 22 to 23--><path d="M143.28,48.9531 C162.58,48.9531 189.25,48.9531 209.7,48.9531 " fill="none" id="22-&gt;23" style="stroke: #383838; stroke-width: 1.0;"/><polygon fill="#383838" points="214.75,48.9531,205.75,44.9531,209.75,48.9531,205.75,52.9531,214.75,48.9531" style="stroke: #383838; stroke-width: 1.0;"/><text fill="#000000" font-family="sans-serif" font-size="13" lengthAdjust="spacingAndGlyphs" textLength="35" x="161.5" y="42.02">delim</text><!--MD5=[467389570bf5af3e69a713a45a52c3e9]
link 23 to 23--><path d="M265.28,42.1831 C282.77,40.1331 300,42.3931 300,48.9531 C300,54.8531 286.09,57.2731 270.58,56.2131 " fill="none" id="23-&gt;23" style="stroke: #383838; stroke-width: 1.0;"/><polygon fill="#383838" points="265.28,55.7231,273.8622,60.5549,270.2577,56.1951,274.6174,52.5906,265.28,55.7231" style="stroke: #383838; stroke-width: 1.0;"/><text fill="#000000" font-family="sans-serif" font-size="13" lengthAdjust="spacingAndGlyphs" textLength="35" x="306" y="53.52">delim</text><!--MD5=[b7d062ec7aa1e52dd64e861d2a2308e8]
link 23 to 24--><path d="M265.08,48.9531 C298.92,48.9531 359.13,48.9531 395.53,48.9531 " fill="none" id="23-&gt;24" style="stroke: #383838; stroke-width: 1.0;"/><polygon fill="#383838" points="400.72,48.9531,391.72,44.9531,395.72,48.9531,391.72,52.9531,400.72,48.9531" style="stroke: #383838; stroke-width: 1.0;"/><text fill="#000000" font-family="sans-serif" font-size="13" lengthAdjust="spacingAndGlyphs" textLength="34" x="316" y="42.02">other</text><!--MD5=[556ad0377d0d999ddebd4d9d8e1337e0]
@startuml
skinparam monochrome true
title 空白符的状态转换图

hide empty description

state "24*" as 24

[*] -> 22: start
22 -> 23: delim
23 -> 23: delim
23 -> 24: other

@enduml

PlantUML version 1.2020.02(Sun Mar 01 18:22:07 CST 2020)
(GPL source distribution)
Java Runtime: OpenJDK Runtime Environment
JVM: OpenJDK 64-Bit Server VM
Java Version: 19.0.2+7-Ubuntu-0ubuntu322.04
Operating System: Linux
Default Encoding: UTF-8
Language: en
Country: US
--></g></svg>