<?xml version="1.0" encoding="UTF-8" standalone="no"?>
<!DOCTYPE svg PUBLIC "-//W3C//DTD SVG 1.1//EN"
 "http://www.w3.org/Graphics/SVG/1.1/DTD/svg11.dtd">
<!-- Generated by graphviz version 2.43.0 (0)
 -->
<!-- Title: %3 Pages: 1 -->
<svg width="202pt" height="277pt"
 viewBox="0.00 0.00 202.00 277.00" xmlns="http://www.w3.org/2000/svg" xmlns:xlink="http://www.w3.org/1999/xlink">
<g id="graph0" class="graph" transform="scale(1 1) rotate(0) translate(4 273)">
<title>%3</title>
<polygon fill="white" stroke="transparent" points="-4,4 -4,-273 198,-273 198,4 -4,4"/>
<!-- A -->
<g id="node1" class="node">
<title>A</title>
<ellipse fill="none" stroke="red" cx="27" cy="-251" rx="27" ry="18"/>
<text text-anchor="middle" x="27" y="-247.3" font-family="Times,serif" font-size="14.00">A</text>
</g>
<!-- B -->
<g id="node2" class="node">
<title>B</title>
<ellipse fill="none" stroke="black" cx="27" cy="-178" rx="27" ry="18"/>
<text text-anchor="middle" x="27" y="-174.3" font-family="Times,serif" font-size="14.00">B</text>
</g>
<!-- A&#45;&#45;B -->
<g id="edge1" class="edge">
<title>A&#45;&#45;B</title>
<path fill="none" stroke="black" d="M27,-232.81C27,-221.65 27,-207.16 27,-196.03"/>
</g>
<!-- C -->
<g id="node3" class="node">
<title>C</title>
<ellipse fill="none" stroke="black" cx="117" cy="-178" rx="27" ry="18"/>
<text text-anchor="middle" x="117" y="-174.3" font-family="Times,serif" font-size="14.00">C</text>
</g>
<!-- B&#45;&#45;C -->
<g id="edge2" class="edge">
<title>B&#45;&#45;C</title>
<path fill="none" stroke="black" d="M54.07,-178C66.03,-178 78,-178 89.96,-178"/>
</g>
<!-- D -->
<g id="node4" class="node">
<title>D</title>
<ellipse fill="none" stroke="black" cx="117" cy="-91" rx="27" ry="18"/>
<text text-anchor="middle" x="117" y="-87.3" font-family="Times,serif" font-size="14.00">D</text>
</g>
<!-- C&#45;&#45;D -->
<g id="edge3" class="edge">
<title>C&#45;&#45;D</title>
<path fill="none" stroke="black" d="M117,-159.8C117,-145.05 117,-123.92 117,-109.18"/>
<text text-anchor="middle" x="155.5" y="-130.8" font-family="Times,serif" font-size="14.00">some label</text>
</g>
<!-- F -->
<g id="node5" class="node">
<title>F</title>
<ellipse fill="none" stroke="black" cx="117" cy="-18" rx="27" ry="18"/>
<text text-anchor="middle" x="117" y="-14.3" font-family="Times,serif" font-size="14.00">F</text>
</g>
<!-- D&#45;&#45;F -->
<g id="edge4" class="edge">
<title>D&#45;&#45;F</title>
<path fill="none" stroke="black" d="M117,-72.81C117,-61.65 117,-47.16 117,-36.03"/>
</g>
</g>
</svg>
