<?xml version="1.0" encoding="UTF-8" standalone="no"?>
<!DOCTYPE svg PUBLIC "-//W3C//DTD SVG 1.1//EN"
 "http://www.w3.org/Graphics/SVG/1.1/DTD/svg11.dtd">
<!-- Generated by graphviz version 2.43.0 (0)
 -->
<!-- Title: %3 Pages: 1 -->
<svg width="172pt" height="206pt"
 viewBox="0.00 0.00 172.00 205.74" xmlns="http://www.w3.org/2000/svg" xmlns:xlink="http://www.w3.org/1999/xlink">
<g id="graph0" class="graph" transform="scale(1 1) rotate(0) translate(4 201.74)">
<title>%3</title>
<polygon fill="white" stroke="transparent" points="-4,4 -4,-201.74 168,-201.74 168,4 -4,4"/>
<!-- a1 -->
<g id="node1" class="node">
<title>a1</title>
<ellipse fill="none" stroke="black" cx="100" cy="-170.87" rx="31.23" ry="26.74"/>
<text text-anchor="middle" x="100" y="-174.67" font-family="Times,serif" font-size="14.00">123</text>
<text text-anchor="middle" x="100" y="-159.67" font-family="Times,serif" font-size="14.00">123</text>
</g>
<!-- a2 -->
<g id="node2" class="node">
<title>a2</title>
<ellipse fill="none" stroke="black" cx="63" cy="-90" rx="28.7" ry="18"/>
<text text-anchor="middle" x="63" y="-86.3" font-family="Times,serif" font-size="14.00">345</text>
</g>
<!-- a1&#45;&#45;a2 -->
<g id="edge1" class="edge">
<title>a1&#45;&#45;a2</title>
<path fill="none" stroke="black" d="M88.7,-145.78C82.92,-133.46 76.03,-118.77 70.84,-107.7"/>
</g>
<!-- a5 -->
<g id="node5" class="node">
<title>a5</title>
<ellipse fill="none" stroke="black" cx="137" cy="-90" rx="27" ry="18"/>
<text text-anchor="middle" x="137" y="-86.3" font-family="Times,serif" font-size="14.00">a5</text>
</g>
<!-- a1&#45;&#45;a5 -->
<g id="edge4" class="edge">
<title>a1&#45;&#45;a5</title>
<path fill="none" stroke="black" d="M111.3,-145.78C117.08,-133.46 123.97,-118.77 129.16,-107.7"/>
</g>
<!-- a3 -->
<g id="node3" class="node">
<title>a3</title>
<ellipse fill="none" stroke="black" cx="27" cy="-18" rx="27" ry="18"/>
<text text-anchor="middle" x="27" y="-14.3" font-family="Times,serif" font-size="14.00">a3</text>
</g>
<!-- a2&#45;&#45;a3 -->
<g id="edge2" class="edge">
<title>a2&#45;&#45;a3</title>
<path fill="none" stroke="black" d="M54.65,-72.76C48.83,-61.46 41.11,-46.44 35.3,-35.15"/>
</g>
<!-- a4 -->
<g id="node4" class="node">
<title>a4</title>
<ellipse fill="none" stroke="black" cx="99" cy="-18" rx="27" ry="18"/>
<text text-anchor="middle" x="99" y="-14.3" font-family="Times,serif" font-size="14.00">a4</text>
</g>
<!-- a2&#45;&#45;a4 -->
<g id="edge3" class="edge">
<title>a2&#45;&#45;a4</title>
<path fill="none" stroke="black" d="M71.35,-72.76C77.17,-61.46 84.89,-46.44 90.7,-35.15"/>
</g>
</g>
</svg>
