<?xml version="1.0" encoding="UTF-8" standalone="no"?><svg xmlns="http://www.w3.org/2000/svg" xmlns:xlink="http://www.w3.org/1999/xlink" contentScriptType="application/ecmascript" contentStyleType="text/css" height="451px" preserveAspectRatio="none" style="width:707px;height:451px;" version="1.1" viewBox="0 0 707 451" width="707px" zoomAndPan="magnify"><defs><filter height="300%" id="ffhpyn9yb24wi" width="300%" x="-1" y="-1"><feGaussianBlur result="blurOut" stdDeviation="2.0"/><feColorMatrix in="blurOut" result="blurOut2" type="matrix" values="0 0 0 0 0 0 0 0 0 0 0 0 0 0 0 0 0 0 .4 0"/><feOffset dx="4.0" dy="4.0" in="blurOut2" result="blurOut3"/><feBlend in="SourceGraphic" in2="blurOut3" mode="normal"/></filter></defs><g><text fill="#000000" font-family="sans-serif" font-size="18" lengthAdjust="spacingAndGlyphs" textLength="121" x="297" y="16.708">一个典型系统的硬件组成</text><!--MD5=[b46a581074bff28f056249e32a12e54f]
cluster CPU--><polygon fill="#FFFFFF" filter="url(#ffhpyn9yb24wi)" points="22,54.9531,32,44.9531,315,44.9531,315,223.9531,305,233.9531,22,233.9531,22,54.9531" style="stroke: #000000; stroke-width: 1.5;"/><line style="stroke: #000000; stroke-width: 1.5;" x1="305" x2="314" y1="54.9531" y2="45.9531"/><line style="stroke: #000000; stroke-width: 1.5;" x1="22" x2="305" y1="54.9531" y2="54.9531"/><line style="stroke: #000000; stroke-width: 1.5;" x1="305" x2="305" y1="54.9531" y2="233.9531"/><text fill="#000000" font-family="sans-serif" font-size="14" font-weight="bold" lengthAdjust="spacingAndGlyphs" textLength="32" x="148.5" y="70.9482">CPU</text><!--MD5=[7b283ce894c5928581d5380ce71c9d62]
entity PC--><rect fill="#F8F8F8" filter="url(#ffhpyn9yb24wi)" height="36.2969" style="stroke: #383838; stroke-width: 1.5;" width="39" x="38.5" y="84.9531"/><rect fill="#F8F8F8" height="5" style="stroke: #383838; stroke-width: 1.5;" width="10" x="33.5" y="89.9531"/><rect fill="#F8F8F8" height="5" style="stroke: #383838; stroke-width: 1.5;" width="10" x="33.5" y="111.25"/><text fill="#000000" font-family="sans-serif" font-size="14" lengthAdjust="spacingAndGlyphs" textLength="19" x="48.5" y="107.9482">PC</text><!--MD5=[1372ed1e215eb83eb12022613cd8672f]
entity Register File--><rect fill="#F8F8F8" filter="url(#ffhpyn9yb24wi)" height="36.2969" style="stroke: #383838; stroke-width: 1.5;" width="105" x="112.5" y="84.9531"/><rect fill="#F8F8F8" height="5" style="stroke: #383838; stroke-width: 1.5;" width="10" x="107.5" y="89.9531"/><rect fill="#F8F8F8" height="5" style="stroke: #383838; stroke-width: 1.5;" width="10" x="107.5" y="111.25"/><text fill="#000000" font-family="sans-serif" font-size="14" lengthAdjust="spacingAndGlyphs" textLength="85" x="122.5" y="107.9482">Register File</text><!--MD5=[71c3a621b34cf48bc8a8ddab2d25772e]
entity ALU--><rect fill="#F8F8F8" filter="url(#ffhpyn9yb24wi)" height="36.2969" style="stroke: #383838; stroke-width: 1.5;" width="46" x="253" y="84.9531"/><rect fill="#F8F8F8" height="5" style="stroke: #383838; stroke-width: 1.5;" width="10" x="248" y="89.9531"/><rect fill="#F8F8F8" height="5" style="stroke: #383838; stroke-width: 1.5;" width="10" x="248" y="111.25"/><text fill="#000000" font-family="sans-serif" font-size="14" lengthAdjust="spacingAndGlyphs" textLength="26" x="263" y="107.9482">ALU</text><!--MD5=[d3f4a69ffa5db098f241d57fada07535]
entity Bus Interface--><rect fill="#F8F8F8" filter="url(#ffhpyn9yb24wi)" height="36.2969" style="stroke: #383838; stroke-width: 1.5;" width="111" x="109.5" y="181.9531"/><rect fill="#F8F8F8" height="5" style="stroke: #383838; stroke-width: 1.5;" width="10" x="104.5" y="186.9531"/><rect fill="#F8F8F8" height="5" style="stroke: #383838; stroke-width: 1.5;" width="10" x="104.5" y="208.25"/><text fill="#000000" font-family="sans-serif" font-size="14" lengthAdjust="spacingAndGlyphs" textLength="91" x="119.5" y="204.9482">Bus Interface</text><!--MD5=[d6390c49bab35ae95e08a3714e25346f]
entity HardDisk--><path d="M432,403.9531 C432,393.9531 473,393.9531 473,393.9531 C473,393.9531 514,393.9531 514,403.9531 L514,429.25 C514,439.25 473,439.25 473,439.25 C473,439.25 432,439.25 432,429.25 L432,403.9531 " fill="#F8F8F8" filter="url(#ffhpyn9yb24wi)" style="stroke: #000000; stroke-width: 1.5;"/><path d="M432,403.9531 C432,413.9531 473,413.9531 473,413.9531 C473,413.9531 514,413.9531 514,403.9531 " fill="none" style="stroke: #000000; stroke-width: 1.5;"/><text fill="#000000" font-family="sans-serif" font-size="14" lengthAdjust="spacingAndGlyphs" textLength="62" x="442" y="430.9482">HardDisk</text><!--MD5=[5ddfe203068982aa4315b84a3e25c9bb]
entity I/O Bridge--><rect fill="#F8F8F8" filter="url(#ffhpyn9yb24wi)" height="36.2969" style="stroke: #383838; stroke-width: 1.5;" width="88" x="334" y="181.9531"/><rect fill="#F8F8F8" height="5" style="stroke: #383838; stroke-width: 1.5;" width="10" x="329" y="186.9531"/><rect fill="#F8F8F8" height="5" style="stroke: #383838; stroke-width: 1.5;" width="10" x="329" y="208.25"/><text fill="#000000" font-family="sans-serif" font-size="14" lengthAdjust="spacingAndGlyphs" textLength="68" x="344" y="204.9482">I/O Bridge</text><!--MD5=[bdfad404fdf3df882c3ac71aa5606f51]
entity Memory--><rect fill="#F8F8F8" filter="url(#ffhpyn9yb24wi)" height="36.2969" style="stroke: #383838; stroke-width: 1.5;" width="75" x="538.5" y="181.9531"/><rect fill="#F8F8F8" height="5" style="stroke: #383838; stroke-width: 1.5;" width="10" x="533.5" y="186.9531"/><rect fill="#F8F8F8" height="5" style="stroke: #383838; stroke-width: 1.5;" width="10" x="533.5" y="208.25"/><text fill="#000000" font-family="sans-serif" font-size="14" lengthAdjust="spacingAndGlyphs" textLength="55" x="548.5" y="204.9482">Memory</text><!--MD5=[e3c14d34d908c2f4e725014352b0fbb9]
entity USB Controler--><rect fill="#F8F8F8" filter="url(#ffhpyn9yb24wi)" height="36.2969" style="stroke: #383838; stroke-width: 1.5;" width="117" x="53.5" y="296.9531"/><rect fill="#F8F8F8" height="5" style="stroke: #383838; stroke-width: 1.5;" width="10" x="48.5" y="301.9531"/><rect fill="#F8F8F8" height="5" style="stroke: #383838; stroke-width: 1.5;" width="10" x="48.5" y="323.25"/><text fill="#000000" font-family="sans-serif" font-size="14" lengthAdjust="spacingAndGlyphs" textLength="97" x="63.5" y="319.9482">USB Controler</text><!--MD5=[feda44c9eb03bca6632091e17d33d678]
entity Graphphics Adapter--><rect fill="#F8F8F8" filter="url(#ffhpyn9yb24wi)" height="36.2969" style="stroke: #383838; stroke-width: 1.5;" width="157" x="205.5" y="296.9531"/><rect fill="#F8F8F8" height="5" style="stroke: #383838; stroke-width: 1.5;" width="10" x="200.5" y="301.9531"/><rect fill="#F8F8F8" height="5" style="stroke: #383838; stroke-width: 1.5;" width="10" x="200.5" y="323.25"/><text fill="#000000" font-family="sans-serif" font-size="14" lengthAdjust="spacingAndGlyphs" textLength="137" x="215.5" y="319.9482">Graphphics Adapter</text><!--MD5=[7e005866c7c65da747568a63ca2a3184]
entity HardDisk Controler--><rect fill="#F8F8F8" filter="url(#ffhpyn9yb24wi)" height="36.2969" style="stroke: #383838; stroke-width: 1.5;" width="150" x="398" y="296.9531"/><rect fill="#F8F8F8" height="5" style="stroke: #383838; stroke-width: 1.5;" width="10" x="393" y="301.9531"/><rect fill="#F8F8F8" height="5" style="stroke: #383838; stroke-width: 1.5;" width="10" x="393" y="323.25"/><text fill="#000000" font-family="sans-serif" font-size="14" lengthAdjust="spacingAndGlyphs" textLength="130" x="408" y="319.9482">HardDisk Controler</text><!--MD5=[fd6e566c7521e9c8f37b429ce000c9aa]
entity Other Slots ...--><rect fill="#F8F8F8" filter="url(#ffhpyn9yb24wi)" height="36.2969" style="stroke: #383838; stroke-width: 1.5;" width="113" x="583.5" y="296.9531"/><rect fill="#F8F8F8" height="5" style="stroke: #383838; stroke-width: 1.5;" width="10" x="578.5" y="301.9531"/><rect fill="#F8F8F8" height="5" style="stroke: #383838; stroke-width: 1.5;" width="10" x="578.5" y="323.25"/><text fill="#000000" font-family="sans-serif" font-size="14" lengthAdjust="spacingAndGlyphs" textLength="93" x="593.5" y="319.9482">Other Slots ...</text><!--MD5=[5902d1e73d9a594febc57676c59b026d]
entity Mouse, Keyboard--><rect fill="#F8F8F8" filter="url(#ffhpyn9yb24wi)" height="36.2969" style="stroke: #383838; stroke-width: 1.5;" width="140" x="42" y="398.4531"/><rect fill="#F8F8F8" height="5" style="stroke: #383838; stroke-width: 1.5;" width="10" x="37" y="403.4531"/><rect fill="#F8F8F8" height="5" style="stroke: #383838; stroke-width: 1.5;" width="10" x="37" y="424.75"/><text fill="#000000" font-family="sans-serif" font-size="14" lengthAdjust="spacingAndGlyphs" textLength="120" x="52" y="421.4482">Mouse, Keyboard</text><!--MD5=[38b63608fc882c218f92584be216d0cc]
entity Monitor--><rect fill="#F8F8F8" filter="url(#ffhpyn9yb24wi)" height="36.2969" style="stroke: #383838; stroke-width: 1.5;" width="72" x="248" y="398.4531"/><rect fill="#F8F8F8" height="5" style="stroke: #383838; stroke-width: 1.5;" width="10" x="243" y="403.4531"/><rect fill="#F8F8F8" height="5" style="stroke: #383838; stroke-width: 1.5;" width="10" x="243" y="424.75"/><text fill="#000000" font-family="sans-serif" font-size="14" lengthAdjust="spacingAndGlyphs" textLength="52" x="258" y="421.4482">Monitor</text><!--MD5=[d992b25d62c209a8f6628c3a73041d49]
link Register File to ALU--><path d="M223.09,102.9531 C231.3,102.9531 239.52,102.9531 247.73,102.9531 " fill="none" id="Register File-ALU" style="stroke: #383838; stroke-width: 1.0;"/><polygon fill="#383838" points="252.85,102.9531,243.85,98.9531,247.85,102.9531,243.85,106.9531,252.85,102.9531" style="stroke: #383838; stroke-width: 1.0;"/><polygon fill="#383838" points="217.9,102.9531,226.9,106.9531,222.9,102.9531,226.9,98.9531,217.9,102.9531" style="stroke: #383838; stroke-width: 1.0;"/><!--MD5=[564001ac28fd543039a6854e396dbfae]
link Register File to Bus Interface--><path d="M165,126.4131 C165,141.4731 165,161.2231 165,176.3031 " fill="none" id="Register File-Bus Interface" style="stroke: #383838; stroke-width: 1.0;"/><polygon fill="#383838" points="165,181.6431,169,172.6431,165,176.6431,161,172.6431,165,181.6431" style="stroke: #383838; stroke-width: 1.0;"/><polygon fill="#383838" points="165,121.3731,161,130.3731,165,126.3731,169,130.3731,165,121.3731" style="stroke: #383838; stroke-width: 1.0;"/><!--MD5=[5b4aaa576f0592dbe804d711297eb476]
link Bus Interface to I/O Bridge--><path d="M225.7,199.9531 C258.24,199.9531 297.83,199.9531 328.48,199.9531 " fill="none" id="Bus Interface-I/O Bridge" style="stroke: #383838; stroke-width: 1.0;"/><polygon fill="#383838" points="333.71,199.9531,324.71,195.9531,328.71,199.9531,324.71,203.9531,333.71,199.9531" style="stroke: #383838; stroke-width: 1.0;"/><polygon fill="#383838" points="220.69,199.9531,229.7014,203.9274,225.69,199.9388,229.6785,195.9274,220.69,199.9531" style="stroke: #383838; stroke-width: 1.0;"/><text fill="#000000" font-family="sans-serif" font-size="13" lengthAdjust="spacingAndGlyphs" textLength="77" x="238.75" y="193.02">System Bus</text><!--MD5=[3a68bccb9eaed2b36c41c1d6ba53d834]
link I/O Bridge to Memory--><path d="M427.85,199.9531 C460.29,199.9531 502.16,199.9531 533.11,199.9531 " fill="none" id="I/O Bridge-Memory" style="stroke: #383838; stroke-width: 1.0;"/><polygon fill="#383838" points="538.37,199.9531,529.37,195.9531,533.37,199.9531,529.37,203.9531,538.37,199.9531" style="stroke: #383838; stroke-width: 1.0;"/><polygon fill="#383838" points="422.44,199.9531,431.44,203.9531,427.44,199.9531,431.44,195.9531,422.44,199.9531" style="stroke: #383838; stroke-width: 1.0;"/><text fill="#000000" font-family="sans-serif" font-size="13" lengthAdjust="spacingAndGlyphs" textLength="80" x="440.25" y="193.02">Memory Bus</text><!--MD5=[3d9656b3f17752d9811e517e4fa8e0ae]
link I/O Bridge to USB Controler--><path d="M352.22,221.0631 C341.28,228.6831 328.06,236.7631 315,241.9531 C296.53,249.2931 290.1,244.4331 271,249.9531 C229.72,261.8831 184.42,280.7131 152.77,294.8731 " fill="none" id="I/O Bridge-USB Controler" style="stroke: #383838; stroke-width: 1.0;"/><polygon fill="#383838" points="148.2,296.9231,158.0488,296.9032,152.7649,294.8832,154.7849,289.5993,148.2,296.9231" style="stroke: #383838; stroke-width: 1.0;"/><polygon fill="#383838" points="356.45,218.0631,346.7911,219.9881,352.366,220.9477,351.4063,226.5225,356.45,218.0631" style="stroke: #383838; stroke-width: 1.0;"/><text fill="#000000" font-family="sans-serif" font-size="13" lengthAdjust="spacingAndGlyphs" textLength="41" x="272" y="263.02">IO Bus</text><!--MD5=[5f50b3447c7fc043bb6238951a2a8eec]
link I/O Bridge to Graphphics Adapter--><path d="M358.15,222.4231 C350.47,230.8831 341.7,240.7631 334,249.9531 C322.28,263.9331 309.64,280.1331 300,292.7331 " fill="none" id="I/O Bridge-Graphphics Adapter" style="stroke: #383838; stroke-width: 1.0;"/><polygon fill="#383838" points="296.85,296.8631,305.4882,292.1322,299.8819,292.8873,299.1268,287.2811,296.85,296.8631" style="stroke: #383838; stroke-width: 1.0;"/><polygon fill="#383838" points="361.82,218.3831,352.8016,222.3415,358.4524,222.0789,358.7149,227.7297,361.82,218.3831" style="stroke: #383838; stroke-width: 1.0;"/><text fill="#000000" font-family="sans-serif" font-size="13" lengthAdjust="spacingAndGlyphs" textLength="41" x="335" y="263.02">IO Bus</text><!--MD5=[e42661774230ee78e4a5c3fbaaf31fbc]
link I/O Bridge to HardDisk Controler--><path d="M395.69,221.9931 C412.65,242.1731 438.13,272.4831 455.15,292.7231 " fill="none" id="I/O Bridge-HardDisk Controler" style="stroke: #383838; stroke-width: 1.0;"/><polygon fill="#383838" points="458.44,296.6331,455.6959,287.1743,455.2167,292.8108,449.5802,292.3316,458.44,296.6331" style="stroke: #383838; stroke-width: 1.0;"/><polygon fill="#383838" points="392.43,218.1131,395.1741,227.572,395.6533,221.9355,401.2898,222.4147,392.43,218.1131" style="stroke: #383838; stroke-width: 1.0;"/><text fill="#000000" font-family="sans-serif" font-size="13" lengthAdjust="spacingAndGlyphs" textLength="41" x="433" y="263.02">IO Bus</text><!--MD5=[c3495e0bdad2d571560b710462d63944]
link I/O Bridge to Other Slots ...--><path d="M422.23,220.0331 C470.38,240.7931 546.95,273.8231 595.29,294.6731 " fill="none" id="I/O Bridge-Other Slots ..." style="stroke: #383838; stroke-width: 1.0;"/><polygon fill="#383838" points="600.17,296.7731,593.4734,289.5513,595.5743,294.8035,590.322,296.9044,600.17,296.7731" style="stroke: #383838; stroke-width: 1.0;"/><polygon fill="#383838" points="417.51,217.9931,424.2066,225.215,422.1057,219.9627,427.358,217.8618,417.51,217.9931" style="stroke: #383838; stroke-width: 1.0;"/><text fill="#000000" font-family="sans-serif" font-size="13" lengthAdjust="spacingAndGlyphs" textLength="41" x="526" y="263.02">IO Bus</text><!--MD5=[c74adcf70131472ca167773532fe8a6e]
link USB Controler to Mouse, Keyboard--><path d="M112,338.6731 C112,354.9731 112,376.8231 112,393.0531 " fill="none" id="USB Controler-Mouse, Keyboard" style="stroke: #383838; stroke-width: 1.0;"/><polygon fill="#383838" points="112,398.3231,116,389.3231,112,393.3231,108,389.3231,112,398.3231" style="stroke: #383838; stroke-width: 1.0;"/><polygon fill="#383838" points="112,333.2831,108,342.2831,112,338.2831,116,342.2831,112,333.2831" style="stroke: #383838; stroke-width: 1.0;"/><!--MD5=[3713164019802d2d59013fb978353c01]
link Graphphics Adapter to Monitor--><path d="M284,338.6731 C284,354.9731 284,376.8231 284,393.0531 " fill="none" id="Graphphics Adapter-Monitor" style="stroke: #383838; stroke-width: 1.0;"/><polygon fill="#383838" points="284,398.3231,288,389.3231,284,393.3231,280,389.3231,284,398.3231" style="stroke: #383838; stroke-width: 1.0;"/><polygon fill="#383838" points="284,333.2831,280,342.2831,284,338.2831,288,342.2831,284,333.2831" style="stroke: #383838; stroke-width: 1.0;"/><!--MD5=[54ea19ff342764971f0d765649a60d39]
link HardDisk Controler to HardDisk--><path d="M473,338.6631 C473,353.5331 473,373.0431 473,388.6731 " fill="none" id="HardDisk Controler-HardDisk" style="stroke: #383838; stroke-width: 1.0;"/><polygon fill="#383838" points="473,393.8131,477,384.8131,473,388.8131,469,384.8131,473,393.8131" style="stroke: #383838; stroke-width: 1.0;"/><polygon fill="#383838" points="473,333.2831,469,342.2831,473,338.2831,477,342.2831,473,333.2831" style="stroke: #383838; stroke-width: 1.0;"/><!--MD5=[792c872424df16cce52b8177c0b959e0]
@startuml

skinparam monochrome true

title 一个典型系统的硬件组成

database HardDisk

node CPU {
    [PC]
    [Register File] <-> [ALU]
    [Register File] <- -> [Bus Interface]
}

[Bus Interface] <-> [I/O Bridge]: System Bus

[I/O Bridge] <-> [Memory]: Memory Bus

[I/O Bridge] <- -> [USB Controler]: IO Bus

[I/O Bridge] <- -> [Graphphics Adapter]: IO Bus

[I/O Bridge] <- -> [HardDisk Controler]: IO Bus

[I/O Bridge] <- -> [Other Slots ...]: IO Bus

[USB Controler] <- -> [Mouse, Keyboard]

[Graphphics Adapter] <- -> [Monitor]

[HardDisk Controler] <- -> [HardDisk]

@enduml

PlantUML version 1.2020.02(Sun Mar 01 18:22:07 CST 2020)
(GPL source distribution)
Java Runtime: OpenJDK Runtime Environment
JVM: OpenJDK 64-Bit Server VM
Java Version: 19.0.2+7-Ubuntu-0ubuntu322.04
Operating System: Linux
Default Encoding: UTF-8
Language: en
Country: US
--></g></svg>